<?xml version="1.0" encoding="UTF-8"?>
<svg width="548px" height="303px" viewBox="0 0 548 303" version="1.1" xmlns="http://www.w3.org/2000/svg" xmlns:xlink="http://www.w3.org/1999/xlink">
    <!-- Generator: Sketch 42 (36781) - http://www.bohemiancoding.com/sketch -->
    <title>Group 67</title>
    <desc>Created with Sketch.</desc>
    <defs></defs>
    <g id="Page-1" stroke="none" stroke-width="1" fill="none" fill-rule="evenodd">
        <g id="Group-67">
            <g id="Group-5" transform="translate(70.000000, 0.000000)">
                <g id="Group-5-Copy">
                    <g id="Group-3" transform="translate(241.889764, 0.000000)">
                        <polygon id="Fill-1" fill="#FFFFFF" points="0 0 0 35.4929577 52.4976378 35.4929577 52.4976378 0"></polygon>
                        <polygon id="Fill-1" fill="#3B5999" points="0 0 0 35.4929577 18.8976378 35.4929577 18.8976378 0"></polygon>
                        <polygon id="Fill-1-Copy" fill="#E54A09" points="37.7952756 0 37.7952756 35.4929577 56.6929134 35.4929577 56.6929134 0"></polygon>
                    </g>
                    <polygon id="Fill-2" fill="#B2B8BB" points="0 262.242254 0 274.242254 477.701407 274.242254 477.701407 262.242254"></polygon>
                    <polygon id="Fill-3" fill="#794D3D" points="234.330709 0 234.330709 53.2224 243.189921 53.2224 243.189921 0"></polygon>
                    <polygon id="Fill-4" fill="#E3E3E3" style="mix-blend-mode: multiply;" points="22.6771654 249.870423 22.6771654 261.870423 461.102362 261.870423 461.102362 249.870423"></polygon>
                    <polygon id="Fill-7" fill="#BBBBBB" points="240.587315 49.2169014 18.8976378 114.59978 18.8976378 124.655054 462.270236 124.655054 462.270236 114.59978"></polygon>
                    <polygon id="Fill-7" fill="#E4E4E4" fill-rule="nonzero" points="419.422191 112.81522 68.0314961 112.81522 243.730106 60.5746479"></polygon>
                    <path d="M54.6026884,134.214893 L48.5974562,134.214893 C51.5047511,167.949966 51.4570905,205.898193 48.7821409,239.579558 L54.6026884,239.579558 L54.6026884,248.90698 L30.2362205,248.90698 L30.2362205,239.579558 L34.1682177,239.579558 C31.5409287,205.665455 31.5409287,168.134963 34.400563,134.214893 L30.2362205,134.214893 L30.2362205,124.935211 L54.6026884,124.935211 L54.6026884,134.214893 Z M229.070173,134.214893 C232.025128,167.991739 231.929807,205.802711 229.302518,239.579558 L234.306878,239.579558 L234.306878,248.90698 L209.94041,248.90698 L209.94041,239.579558 L214.688595,239.579558 C212.055348,205.75497 211.965985,168.03948 214.87328,134.214893 L209.964241,134.214893 L209.964241,124.935211 L234.330709,124.935211 L234.330709,134.214893 L229.094003,134.214893 L229.070173,134.214893 Z M192.931544,134.214893 C195.791178,168.182704 195.743517,205.665455 193.116228,239.579558 L196.863541,239.579558 L196.863541,248.90698 L172.497073,248.90698 L172.497073,239.579558 L178.502305,239.579558 C175.869058,205.75497 175.779695,168.03948 178.68699,134.214893 L172.520903,134.214893 L172.520903,124.935211 L196.887371,124.935211 L196.887371,134.214893 L192.949416,134.214893 L192.931544,134.214893 Z M157.203987,134.214893 C160.1649,168.182704 160.021918,205.665455 157.394629,239.579558 L161.278966,239.579558 L161.278966,248.90698 L136.912498,248.90698 L136.912498,239.579558 L142.780706,239.579558 C140.147459,205.75497 140.058096,168.03948 143.013051,134.214893 L136.936328,134.214893 L136.936328,124.935211 L161.302796,124.935211 L161.302796,134.214893 L157.227817,134.214893 L157.203987,134.214893 Z M121.601539,134.214893 C124.461173,168.224477 124.41947,205.569973 121.786223,239.579558 L125.718221,239.579558 L125.718221,248.90698 L101.351753,248.90698 L101.351753,239.579558 L107.1723,239.579558 C104.545011,205.665455 104.497351,168.134963 107.356985,134.214893 L101.351753,134.214893 L101.351753,124.935211 L125.718221,124.935211 L125.718221,134.214893 L121.601539,134.214893 Z M84.9684308,134.214893 C87.9293439,168.03948 87.8816834,205.802711 85.2067337,239.579558 L90.1634333,239.579558 L90.1634333,248.90698 L65.7969654,248.90698 L65.7969654,239.579558 L70.586853,239.579558 C67.9595639,205.802711 67.8642428,167.991739 70.7774953,134.214893 L65.8207957,134.214893 L65.8207957,124.935211 L90.181306,124.935211 L90.181306,134.214893 L84.9922611,134.214893 L84.9684308,134.214893 Z M270.035759,134.214893 L264.030527,134.214893 C266.937822,167.949966 266.890161,205.898193 264.215212,239.579558 L270.035759,239.579558 L270.035759,248.90698 L245.669291,248.90698 L245.669291,239.579558 L249.601289,239.579558 C246.974,205.665455 246.974,168.134963 249.833634,134.214893 L245.669291,134.214893 L245.669291,124.935211 L270.035759,124.935211 L270.035759,134.214893 Z M444.503244,134.214893 C447.458199,167.991739 447.362878,205.802711 444.735589,239.579558 L449.739949,239.579558 L449.739949,248.90698 L425.373481,248.90698 L425.373481,239.579558 L430.121666,239.579558 C427.488419,205.75497 427.399056,168.03948 430.306351,134.214893 L425.397312,134.214893 L425.397312,124.935211 L449.76378,124.935211 L449.76378,134.214893 L444.527074,134.214893 L444.503244,134.214893 Z M408.364614,134.214893 C411.224249,168.182704 411.176588,205.665455 408.549299,239.579558 L412.296612,239.579558 L412.296612,248.90698 L387.930144,248.90698 L387.930144,239.579558 L393.935376,239.579558 C391.302129,205.75497 391.212766,168.03948 394.120061,134.214893 L387.953974,134.214893 L387.953974,124.935211 L412.320442,124.935211 L412.320442,134.214893 L408.382487,134.214893 L408.364614,134.214893 Z M372.637057,134.214893 C375.597971,168.182704 375.454989,205.665455 372.8277,239.579558 L376.712036,239.579558 L376.712036,248.90698 L352.345569,248.90698 L352.345569,239.579558 L358.213777,239.579558 C355.58053,205.75497 355.491166,168.03948 358.446122,134.214893 L352.369399,134.214893 L352.369399,124.935211 L376.735867,124.935211 L376.735867,134.214893 L372.660888,134.214893 L372.637057,134.214893 Z M337.03461,134.214893 C339.894244,168.224477 339.852541,205.569973 337.219294,239.579558 L341.151292,239.579558 L341.151292,248.90698 L316.784824,248.90698 L316.784824,239.579558 L322.605371,239.579558 C319.978082,205.665455 319.930421,168.134963 322.790056,134.214893 L316.784824,134.214893 L316.784824,124.935211 L341.151292,124.935211 L341.151292,134.214893 L337.03461,134.214893 Z M300.401502,134.214893 C303.362415,168.03948 303.314754,205.802711 300.639805,239.579558 L305.596504,239.579558 L305.596504,248.90698 L281.230036,248.90698 L281.230036,239.579558 L286.019924,239.579558 C283.392635,205.802711 283.297314,167.991739 286.210566,134.214893 L281.253867,134.214893 L281.253867,124.935211 L305.614377,124.935211 L305.614377,134.214893 L300.425332,134.214893 L300.401502,134.214893 Z" id="Combined-Shape" fill="#E4E4E4"></path>
                </g>
            </g>
            <g id="Group-66" transform="translate(0.000000, 187.000000)">
                <path d="M70.2053327,34.5993824 L68.6003327,31 C64.733666,31.4845 51.0953327,36.1819706 51.0003327,48.5409118 C50.928666,58.1655294 62.458666,63.8470882 62.9569994,64.0851471 L64.6419994,60.5192941 C64.5419994,60.4740294 54.7669994,55.6910588 54.923666,48.6280882 C55.0553327,42.7269118 65.998666,36.5005 70.2053327,34.5993824" id="Fill-14-Copy" fill="#C09B7C"></path>
                <path d="M361.771667,23.4331779 C361.406667,19.1950603 360.156667,16.0282073 357.165,13.0189426 C354.741667,10.5796779 350.3,8.03814851 347.815,9.36423675 C342.06,9.46650145 338.373333,16.2210015 337.55,21.4499132 C337.021667,24.8078838 337.051667,28.2195015 337.051667,31.6763838 C337.051667,34.4341779 336.88,52.1159132 335,54.3875309 C340.888333,55.2022956 345.263333,58.3155015 351.503333,58.0925309 C356.315,57.9232073 359.503333,54.8854426 363.951667,54.1545015 C360.316667,50.9172367 362.165,27.9814426 361.771667,23.4331779" id="Fill-666-Copy" fill="#513423"></path>
                <path d="M94.2966667,25.3513824 C86.7816667,32.3623824 74.6466667,30.8049412 74.525,30.7881765 L74,36.9827353 C74.3033333,37.0229706 78.2533333,37.541 83.2216667,36.7731765 C87.595,36.0975588 93.3116667,33.2978529 97.4666667,29.4319118 C101.273333,25.8928824 103.05,19.9665588 103.911667,14 L99.8483333,14.6286765 C98.9966667,19.0998235 97.145,22.6941765 94.2966667,25.3513824" id="Fill-15-Copy" fill="#C09B7C"></path>
                <path d="M102.84764,10.087457 C100.744307,9.61133933 98.6226403,11.1268687 98.1126403,13.4739276 C97.599307,15.8226629 98.889307,18.1110452 100.989307,18.5888393 C103.09264,19.0666334 105.214307,17.5494276 105.725974,15.2023687 C106.239307,12.8553099 104.949307,10.5652511 102.84764,10.087457" id="Fill-16-Copy" fill="#C09B7C"></path>
                <polyline id="Fill-17-Copy" fill="#5878A4" points="69.565 109.729118 73.115 109.729118 71.9933333 70.2683529 74.795 70.2683529 76.1016667 109.916882 79.6516667 110.292412 84.5 62 62 62 69.565 109.729118"></polyline>
                <path d="M69.9641799,109 C69.9641799,109 63.6108466,112.758647 62.1175132,114.824059 C60.6225132,116.892824 73.8858466,115.202941 73.8858466,115.202941 L73.5141799,109 L69.9641799,109" id="Fill-18-Copy" fill="#848484"></path>
                <path d="M80.3066667,109 L76.3616667,109 L76,115.201265 C76,115.201265 88.8466667,116.892824 87.3983333,114.825735 C85.9516667,112.758647 80.3066667,109 80.3066667,109" id="Fill-19-Copy" fill="#848484"></path>
                <path d="M94.89,32.0235294 C93.74,30.6823529 92.59,29.3445294 91.445,28 C86.035,31.4183235 79.445,31.6865588 76.2333333,31.5759118 C75.06,30.8231765 73.7283333,30.3856176 72.2033333,30.3705294 C70.7283333,30.3554412 69.455,30.7410294 68.355,31.4317353 C64.9916667,31.9128824 55.2683333,35.2574412 52,43.3531176 C53.5466667,43.5760882 55.075,44.0706471 56.5133333,44.8535588 C58.205,42.5567941 60.9416667,40.3857647 63.6333333,38.6204412 C60.6383333,47.9801765 61.9316667,61.9602647 61.9316667,61.9602647 L84.4333333,61.9602647 C84.4333333,61.9602647 84.8983333,47.0162059 80.86,37.6832941 C81.5383333,37.6212647 82.2466667,37.5391176 82.9766667,37.4251176 C86.5783333,36.8685294 91.0883333,34.8701765 94.89,32.0235294" id="Fill-20-Copy" fill="#8FDDDD"></path>
                <path d="M71.06,7 C66.0566667,7 62,12.3797941 62,19.0169412 C62,25.6524118 66.0566667,31.0322059 71.06,31.0322059 C76.0633333,31.0322059 80.12,25.6524118 80.12,19.0169412 C80.12,12.3797941 76.0633333,7 71.06,7" id="Fill-21-Copy" fill="#C09B7C"></path>
                <path d="M131.141667,5.01742471 C128.72,2.57816001 124.278333,0.0383070666 121.793333,1.3643953 C116.036667,1.46666001 112.351667,8.22116001 111.528333,13.4500718 C110.998333,16.8097188 111.028333,20.21966 111.028333,23.6765424 C111.028333,26.4343365 111.88,30.5919835 110,32.8652777 C115.888333,33.6783659 120.261667,36.7932482 126.503333,36.5702777 C131.315,36.4009541 134.503333,33.3648659 138.951667,32.6322482 C135.316667,29.3949835 136.141667,19.9816012 135.75,15.43166 C135.383333,11.1952188 134.133333,8.02836589 131.141667,5.01742471" id="Fill-273-Copy" fill="#E7CEAE"></path>
                <path d="M430.061667,7 C425.056667,7 421,12.3797941 421,19.0152647 C421,25.6524118 425.056667,31.0305294 430.061667,31.0305294 C435.065,31.0305294 439.12,25.6524118 439.12,19.0152647 C439.12,12.3797941 435.065,7 430.061667,7" id="Fill-274-Copy" fill="#C09B7C"></path>
                <path d="M436.779321,52.0058526 C440.420988,41.0149114 438.399321,30.0843232 430.144321,30.0004996 C421.410988,29.9099702 419.405988,42.1398232 425.569321,52.0058526 C428.114321,56.0779996 422.114321,61.5902349 422.114321,61.5902349 L440.132654,61.5902349 C440.132654,61.5902349 435.030988,57.2817055 436.779321,52.0058526" id="Fill-275-Copy" fill="#C09B7C"></path>
                <polyline id="Fill-276-Copy" fill="#C09B7C" points="427.885 109.729118 430.873333 109.729118 429.751667 70.2683529 432.555 70.2683529 433.861667 109.916882 436.29 110.292412 440.018333 62 422 62 427.885 109.729118"></polyline>
                <path d="M430.207889,33.6010588 L428.601223,30 C426.822889,30.8013529 411.209556,38.1107647 411.002889,47.5409118 C410.789556,57.1638529 422.459556,62.8470882 422.956223,63.0851471 L424.641223,59.5192941 C424.542889,59.4740294 414.767889,54.6927353 414.924556,47.6280882 C415.054556,41.7269118 425.999556,35.5005 430.207889,33.6010588" id="Fill-277-Copy" fill="#C09B7C"></path>
                <path d="M431.605,30 L430,33.6010588 C434.205,35.5005 445.15,41.7269118 445.281667,47.6280882 C445.438333,54.6927353 435.663333,59.4740294 435.565,59.5192941 L437.248333,63.0851471 C437.743333,62.8470882 449.416667,57.1638529 449.201667,47.5409118 C448.993333,38.1107647 433.385,30.8013529 431.605,30" id="Fill-278-Copy" fill="#C09B7C"></path>
                <path d="M428.304673,109 C428.304673,109 423.633006,112.758647 422.139673,114.825735 C420.643006,116.892824 431.668006,115.201265 431.668006,115.201265 L431.293006,109 L428.304673,109" id="Fill-279-Copy" fill="#5878A4"></path>
                <path d="M436.186667,109 L433.363333,109 L433,115.201265 C433,115.201265 443.605,116.892824 442.156667,114.824059 C440.71,112.758647 436.186667,109 436.186667,109" id="Fill-280-Copy" fill="#5878A4"></path>
                <path d="M436.673443,57 L425.558443,57 C417.988443,60.6630882 424.850109,91.3877647 424.850109,91.3877647 L438.565109,91.3877647 C446.606776,58.1265882 436.673443,57 436.673443,57" id="Fill-281-Copy" fill="#8FDDDD"></path>
                <polyline id="Fill-282-Copy" fill="#8FDDDD" points="419.56 40.073 425.066667 57.2685588 437.493333 57.2685588 439.735 40.6379706 440.015 35 419 35 419.56 40.073"></polyline>
                <path d="M347.471136,39.6108636 L345.842308,36 C344.039446,36.8039091 328.214136,44.1366364 328.002929,53.5968636 C327.786653,63.2505 339.619308,68.9518636 340.122825,69.189 L341.829377,65.6151364 C341.729687,65.5663636 331.81986,60.7698182 331.978687,53.6843182 C332.11048,47.766 343.206446,41.5180455 347.471136,39.6108636" id="Fill-300-Copy" fill="#7C5842"></path>
                <path d="M352.625448,36 L351,39.6108636 C355.263,41.5180455 366.358966,47.766 366.490759,53.6843182 C366.647897,60.7698182 356.739759,65.5663636 356.640069,65.6151364 L358.34831,69.189 C358.851828,68.9518636 370.682793,63.2505 370.466517,53.5968636 C370.257,44.1366364 354.43,36.8039091 352.625448,36" id="Fill-301-Copy" fill="#7C5842"></path>
                <path d="M349.184966,13 C344.112621,13 340,18.3969545 340,25.0552727 C340,31.7119091 344.112621,37.1088636 349.184966,37.1088636 C354.259,37.1088636 358.369931,31.7119091 358.369931,25.0552727 C358.369931,18.3969545 354.259,13 349.184966,13" id="Fill-302-Copy" fill="#7C5842"></path>
                <path d="M349.696712,35.0004361 C336.306195,34.8642088 339.281678,66.6909361 339.281678,66.6909361 L362.095402,66.6909361 C362.095402,66.6909361 363.08723,35.1383452 349.696712,35.0004361" id="Fill-303-Copy" fill="#7C5842"></path>
                <polyline id="Fill-304-Copy" fill="#5878A4" points="339 66 344.966172 108.792182 350.27 108.792182 349.132862 74.8598182 352.542586 74.8598182 364.662483 108.982227 369.398586 109.360636 361.813724 66 339 66"></polyline>
                <path d="M345.368912,109 C345.368912,109 340.632809,112.770636 339.118878,114.844318 C337.604947,116.919682 351.051223,115.221045 351.051223,115.221045 L350.67274,109 L345.368912,109" id="Fill-305-Copy" fill="#848484"></path>
                <path d="M369.501517,109 L364.364966,109 L364,115.222727 C364,115.222727 377.023862,116.918 375.555552,114.844318 C374.087241,112.772318 369.501517,109 369.501517,109" id="Fill-306-Copy" fill="#848484"></path>
                <path d="M356.572069,38 C356.276379,38.2018182 355.973931,38.3969091 355.664724,38.5735 L355.377483,38.7517727 C352.587862,40.2452273 351.636586,40.3141818 348.492138,40.6085 C346.094517,40.6000909 343.860793,39.9996818 341.787586,38.8022273 C341.579759,38.6424545 341.373621,38.481 341.165793,38.3245909 C336.088379,41.2341364 328.697828,46.4965455 328,52.7798182 C328.665724,52.6755455 329.344966,52.6234091 330.025897,52.6234091 C330.698379,52.6234091 331.362414,52.6755455 332.021379,52.7747727 C332.693862,49.2984545 336.82169,45.7901818 340.841379,43.1816818 C337.808448,52.5695909 339.116241,66.5959545 339.116241,66.5959545 L361.929966,66.5959545 C361.929966,66.5959545 362.338862,53.6409091 359.106552,44.2967273 C362.404759,46.6445455 365.446138,49.5204545 366.204793,52.3997273 C367.646069,52.5342727 369.048483,52.9059545 370.361345,53.4861818 C370.161966,46.6495909 361.828586,40.9347727 356.572069,38" id="Fill-308-Copy" fill="#D3DC4E"></path>
                <path d="M298.50001,39.6157778 L296.870318,36 C295.066318,36.8059365 279.214472,44.140127 279.002933,53.6060952 C278.786318,63.2621905 290.637549,68.9676825 291.140164,69.2049206 L292.851087,65.6278413 C292.752933,65.5807302 282.827549,60.7838095 282.984933,53.6935873 C283.116933,47.7710476 294.230318,41.5220952 298.50001,39.6157778" id="Fill-434-Copy" fill="#C09B7C"></path>
                <path d="M303.633077,36 L302,39.6157778 C306.274769,41.5220952 317.386462,47.7710476 317.518462,53.6935873 C317.677538,60.7838095 307.752154,65.5807302 307.652308,65.6278413 L309.363231,69.2049206 C309.867538,68.9676825 321.717077,63.2621905 321.502154,53.6060952 C321.290615,44.140127 305.438769,36.8059365 303.633077,36" id="Fill-435-Copy" fill="#C09B7C"></path>
                <path d="M300.201077,13 C295.120769,13 291,18.4009524 291,25.0604444 C291,31.721619 295.120769,37.1208889 300.201077,37.1208889 C305.279692,37.1208889 309.398769,31.721619 309.398769,25.0604444 C309.398769,18.4009524 305.279692,13 300.201077,13" id="Fill-436-Copy" fill="#C09B7C"></path>
                <path d="M300.713838,35.0004363 C287.300607,34.8641505 290.282453,66.7045315 290.282453,66.7045315 L313.131991,66.7045315 C313.131991,66.7045315 314.127068,35.136722 300.713838,35.0004363" id="Fill-437-Copy" fill="#C09B7C"></path>
                <polyline id="Fill-438-Copy" fill="#114E2E" points="295.973846 108.67819 301.286 108.67819 300.147077 75.2966032 302.993538 75.2966032 304.322 108.868317 309.062154 109.245206 312.849538 67 290 67 295.973846 108.67819"></polyline>
                <path d="M296.377489,109 C296.377489,109 291.635643,112.770571 290.119335,114.848508 C288.601335,116.921397 302.067027,115.223714 302.067027,115.223714 L301.689643,109 L296.377489,109" id="Fill-439-Copy" fill="#8FDDDD"></path>
                <path d="M309.510154,109 L304.367231,109 L304,115.223714 C304,115.223714 317.044308,116.921397 315.575385,114.846825 C314.103077,112.772254 309.510154,109 309.510154,109" id="Fill-440-Copy" fill="#8FDDDD"></path>
                <path d="M301.363231,38.7195556 C299.027846,38.7195556 296.816,38.0902857 294.888462,37 C291.996308,38.4587619 286.696,41.4486349 283,45.3756825 C284.270923,45.969619 285.548615,46.5568254 286.809385,47.1743175 C288.313846,45.7710794 289.523846,45.5927302 291.285538,44.4519683 C288.417077,54.2039683 290.126308,66.745619 290.126308,66.745619 L312.975846,66.745619 C312.975846,66.7473016 314.13,54.9224127 310.896,45.5759048 C311.977385,46.3465079 312.282,46.0268254 313.236462,46.8916508 L313.273692,46.8714603 C314.490462,46.2051746 315.724154,45.5742222 316.961231,44.9600952 C313.756,41.7094286 309.515077,39.141873 306.634769,37.6040317 C305.011846,38.3174286 303.228154,38.7195556 301.363231,38.7195556" id="Fill-442-Copy" fill="#8FDDDD"></path>
                <path d="M290.940923,48 C290.233538,51.5552063 290.010154,55.2601587 290,58.4670794 L313.448615,58.4670794 C313.272615,55.2366032 312.829231,51.5165079 311.844308,48 L290.940923,48" id="Fill-443-Copy" fill="#5878A4"></path>
                <path d="M386.503349,40.6107302 L384.873657,37 C383.067965,37.804254 367.216119,45.140127 367.002888,54.6044127 C366.787965,64.2621905 378.639196,69.9676825 379.143503,70.2032381 L380.854426,66.6261587 C380.75458,66.5790476 370.829196,61.7804444 370.98658,54.6919048 C371.120273,48.7676825 382.231965,42.5204127 386.503349,40.6107302" id="Fill-538-Copy" fill="#C09B7C"></path>
                <path d="M391.629692,37 L390,40.6107302 C394.269692,42.5204127 405.384769,48.7676825 405.516769,54.6919048 C405.675846,61.7804444 395.750462,66.5790476 395.648923,66.6261587 L397.359846,70.2032381 C397.864154,69.9676825 409.715385,64.2621905 409.498769,54.6044127 C409.287231,45.140127 393.437077,37.804254 391.629692,37" id="Fill-539-Copy" fill="#C09B7C"></path>
                <path d="M389.201077,13 C384.120769,13 380,18.3992698 380,25.0587619 C380,31.718254 384.120769,37.1175238 389.201077,37.1175238 C394.281385,37.1175238 398.400462,31.718254 398.400462,25.0587619 C398.400462,18.3992698 394.281385,13 389.201077,13" id="Fill-540-Copy" fill="#C09B7C"></path>
                <path d="M388.713838,36.0004256 C375.300607,35.8658224 378.282453,67.7062033 378.282453,67.7062033 L401.131991,67.7062033 C401.131991,67.7062033 402.125376,36.1383938 388.713838,36.0004256" id="Fill-541-Copy" fill="#C09B7C"></path>
                <polyline id="Fill-542-Copy" fill="#848484" points="384.975538 109.67819 390.286 109.67819 389.148769 76.2966032 391.993538 76.2966032 393.322 109.866635 398.063846 110.243524 401.849538 68 379 68 384.975538 109.67819"></polyline>
                <path d="M384.378925,109 C384.378925,109 379.637078,112.772254 378.119078,114.846825 C376.602771,116.919714 390.068463,115.223714 390.068463,115.223714 L389.689386,109 L384.378925,109" id="Fill-543-Copy" fill="#114E2E"></path>
                <path d="M397.511846,109 L392.367231,109 L392,115.223714 C392,115.223714 405.044308,116.921397 403.573692,114.846825 C402.104769,112.770571 397.511846,109 397.511846,109" id="Fill-544-Copy" fill="#114E2E"></path>
                <path d="M389.190798,13.0090768 C376.391875,13.4330768 378.664644,22.6247911 380.228336,28.2865371 C380.446644,29.065553 381.00849,31.8484736 380.536336,26.0992356 C380.087875,20.647807 381.541567,18.5261244 387.198951,18.5261244 C388.97249,18.5261244 391.575259,18.3679657 393.323413,18.5193943 C400.002951,19.0914578 398.183721,28.7929816 398.581413,28.0021879 C399.009567,27.1525054 401.994798,12.5850768 389.190798,13.0090768" id="Fill-545-Copy" fill="#513423"></path>
                <path d="M71.1907976,6.00907682 C58.3918745,6.43307682 60.6646437,15.6247911 62.2283361,21.2865371 C62.4466437,22.065553 63.0084899,24.8484736 62.5363361,19.0992356 C62.0878745,13.647807 63.5415668,11.5261244 69.1989514,11.5261244 C70.9724899,11.5261244 73.5752591,11.3679657 75.323413,11.5193943 C82.0029514,12.0914578 80.1837207,21.7929816 80.581413,21.0021879 C81.0095668,20.1525054 83.9947976,5.58507682 71.1907976,6.00907682" id="Fill-545-Copy-3" fill="#B7590B"></path>
                <path d="M390.364923,39.7161905 C388.026154,39.7161905 385.816,39.0886032 383.890154,38 C380.998,39.4587619 375.697692,42.4469524 372,46.374 C373.272615,46.969619 374.548615,47.5568254 375.811077,48.176 C377.313846,46.7693968 378.525538,46.5910476 380.287231,45.4519683 C377.418769,55.2039683 379.126308,67.745619 379.126308,67.745619 L401.975846,67.745619 C401.975846,67.745619 403.131692,55.9207302 399.897692,46.5742222 C400.979077,47.3448254 401.283692,47.0285079 402.236462,47.8916508 L402.272,47.8697778 C403.492154,47.2034921 404.724154,46.5742222 405.961231,45.9600952 C402.757692,42.7111111 398.518462,40.141873 395.634769,38.6057143 C394.013538,39.3174286 392.228154,39.7161905 390.364923,39.7161905" id="Fill-546-Copy" fill="#5878A4"></path>
                <path d="M272.141667,6.01742471 C269.72,3.57816001 265.278333,1.03830707 262.793333,2.3643953 C257.036667,2.46666001 253.351667,9.22116001 252.528333,14.4500718 C251.998333,17.8097188 252.028333,21.21966 252.028333,24.6765424 C252.028333,27.4343365 252.88,31.5919835 251,33.8652777 C256.888333,34.6783659 261.261667,37.7932482 267.503333,37.5702777 C272.315,37.4009541 275.503333,34.3648659 279.951667,33.6322482 C276.316667,30.3949835 277.141667,20.9816012 276.75,16.43166 C276.383333,12.1952188 275.133333,9.02836589 272.141667,6.01742471" id="Fill-273-Copy" fill="#3B3833"></path>
                <path d="M395.177423,16 L380.760654,18.0728889 C380.264808,19.538381 379.907731,21.259619 380.021116,22.9472063 C381.990962,23.9617778 383.857577,21.1822222 384.32127,19.6376508 C384.432962,20.9735873 383.6545,23.6925714 385.739423,23.5546032 C387.450347,23.4435556 387.8345,20.916381 387.968193,19.6410159 C388.066347,21.0173333 388.50127,23.2786667 390.391577,23.1793968 C391.736962,23.1087302 392.474808,21.6129524 392.3225,20.389746 C392.63727,22.5619048 395.806962,23.2719365 395.925423,20.7716825 C396.683577,23.2567937 398.140654,20.4334921 397.837731,18.9646349 C397.497577,17.3275238 396.37727,16.8059365 395.177423,16" id="Fill-547-Copy" fill="#513423"></path>
                <path d="M77.1774235,9 L62.7606542,11.0728889 C62.2648081,12.538381 61.9077312,14.259619 62.0211158,15.9472063 C63.9909619,16.9617778 65.8575773,14.1822222 66.3212696,12.6376508 C66.4329619,13.9735873 65.6545004,16.6925714 67.7394235,16.5546032 C69.4503465,16.4435556 69.8345004,13.916381 69.9681927,12.6410159 C70.0663465,14.0173333 70.5012696,16.2786667 72.3915773,16.1793968 C73.7369619,16.1087302 74.4748081,14.6129524 74.3225004,13.389746 C74.6372696,15.5619048 77.8069619,16.2719365 77.9254235,13.7716825 C78.6835773,16.2567937 80.1406542,13.4334921 79.8377312,11.9646349 C79.4975773,10.3275238 78.3772696,9.80593651 77.1774235,9" id="Fill-547-Copy-3" fill="#B7590B"></path>
                <path d="M265.06,7 C260.056667,7 256,12.3814706 256,19.0169412 C256,25.6524118 260.056667,31.0322059 265.06,31.0322059 C270.063333,31.0322059 274.121667,25.6524118 274.121667,19.0169412 C274.121667,12.3814706 270.063333,7 265.06,7" id="Fill-667-Copy" fill="#7C5842"></path>
                <path d="M271.778756,51.0074928 C275.42209,40.0148752 273.400423,29.0859634 265.145423,29.0004634 C256.41209,28.9132869 254.405423,41.1431399 260.568756,51.0074928 C263.115423,55.0796399 257.113756,60.5918752 257.113756,60.5918752 L275.133756,60.5918752 C275.133756,60.5918752 270.030423,56.2833458 271.778756,51.0074928" id="Fill-668-Copy" fill="#7C5842"></path>
                <polyline id="Fill-669-Copy" fill="#7C5842" points="262.885 108.730794 265.875 108.730794 264.753333 69.2683529 267.556667 69.2683529 268.863333 108.916882 271.291667 109.294088 275.02 61 257 61 262.885 108.730794"></polyline>
                <path d="M265.207845,32.5993824 L263.601178,29 C261.822845,29.8013529 246.211178,37.1107647 246.002845,46.5409118 C245.791178,56.1655294 257.461178,61.8487647 257.957845,62.0834706 L259.641178,58.5209706 C259.544511,58.4723529 249.767845,53.6910588 249.924511,46.6280882 C250.056178,40.7285882 260.999511,34.5021765 265.207845,32.5993824" id="Fill-670-Copy" fill="#7C5842"></path>
                <path d="M266.606667,29 L265,32.5993824 C269.206667,34.5021765 280.151667,40.7285882 280.281667,46.6280882 C280.438333,53.6910588 270.665,58.4723529 270.565,58.5209706 L272.248333,62.0834706 C272.746667,61.8487647 284.418333,56.1655294 284.203333,46.5409118 C283.995,37.1107647 268.385,29.8013529 266.606667,29" id="Fill-671-Copy" fill="#7C5842"></path>
                <path d="M263.303045,109 C263.303045,109 258.633045,112.756971 257.139711,114.824059 C255.643045,116.891147 266.664711,115.201265 266.664711,115.201265 L266.293045,109 L263.303045,109" id="Fill-672-Copy" fill="#D3DC4E"></path>
                <path d="M272.185,108 L269.361667,108 L269,114.199588 C269,114.199588 279.605,115.891147 278.158333,113.822382 C276.71,111.756971 272.185,108 272.185,108" id="Fill-673-Copy" fill="#D3DC4E"></path>
                <path d="M271.674853,56 L260.558187,56 C252.989853,59.6614118 259.848187,90.3877647 259.848187,90.3877647 L273.56652,90.3877647 C281.60652,57.1265882 271.674853,56 271.674853,56" id="Fill-674-Copy" fill="#5878A4"></path>
                <polyline id="Fill-675-Copy" fill="#848484" points="266.21 40.2012647 258.363333 34 255 34 255.56 39.0713235 261.066667 56.8301765 273.495 56.8301765 275.735 39.6346176 276.016667 34 272.091667 34 266.21 40.2012647"></polyline>
                <path d="M349.59,11.1304903 C346.581667,10.4850491 342.958333,12.287255 341.805,15.3585491 C341.253333,16.8288138 338.466667,20.8506668 337,23.8163432 L359.073333,23.8163432 C358.855,21.6486668 358.303333,19.5782256 357.495,18.101255 C355.825,15.0400197 353.065,11.8781962 349.59,11.1304903" id="Fill-676-Copy" fill="#513423"></path>
                <path d="M165.206222,40.6108636 L163.601222,37 C161.821222,37.8055909 146.209556,45.1366364 146.002889,54.5968636 C145.789556,64.2505 157.461222,69.9501818 157.957889,70.1906818 L159.642889,66.6151364 C159.542889,66.5680455 149.769556,61.7715 149.922889,54.6843182 C150.056222,48.7643182 160.999556,42.5197273 165.206222,40.6108636" id="Fill-150-Copy" fill="#7C5842"></path>
                <path d="M169.606667,37 L168,40.6108636 C172.206667,42.5197273 183.151667,48.7643182 183.281667,54.6843182 C183.438333,61.7715 173.663333,66.5680455 173.565,66.6151364 L175.25,70.1906818 C175.746667,69.9501818 187.418333,64.2505 187.205,54.5968636 C186.996667,45.1366364 171.386667,37.8055909 169.606667,37" id="Fill-151-Copy" fill="#7C5842"></path>
                <path d="M167.06,13 C162.056667,13 158,18.3986364 158,25.0552727 C158,31.7119091 162.056667,37.1088636 167.06,37.1088636 C172.065,37.1088636 176.121667,31.7119091 176.121667,25.0552727 C176.121667,18.3986364 172.065,13 167.06,13" id="Fill-152-Copy" fill="#7C5842"></path>
                <path d="M166.549889,36.0004361 C153.341555,35.8642088 156.278222,67.6909361 156.278222,67.6909361 L178.781555,67.6909361 C178.781555,67.6909361 179.759889,36.1383452 166.549889,36.0004361" id="Fill-153-Copy" fill="#7C5842"></path>
                <polyline id="Fill-154-Copy" fill="#8FDDDD" points="162.885 109.662 168.115 109.662 166.995 76.2947273 169.795 76.2947273 171.103333 109.848682 175.775 110.227091 179.503333 68 157 68 162.885 109.662"></polyline>
                <path d="M162.284166,109 C162.284166,109 157.6125,112.768955 156.1175,114.842636 C154.6225,116.916318 167.8875,115.221045 167.8875,115.221045 L167.514166,109 L162.284166,109" id="Fill-155-Copy" fill="#5878A4"></path>
                <path d="M175.428333,109 L170.361667,109 L170,115.221045 C170,115.221045 182.846667,116.918 181.398333,114.840955 C179.95,112.768955 175.428333,109 175.428333,109" id="Fill-156-Copy" fill="#5878A4"></path>
                <path d="M176.075213,12.7541818 C176.363546,11.5449545 177.63688,10.6165909 177.903546,9.40568182 C176.555213,9.92536364 175.34688,11.3767727 174.028546,11.6223182 C174.373546,9.89509091 176.218546,8.49918182 176.403546,6.77531818 C174.163546,6.39018182 172.153546,8.51936364 170.255213,9.34681818 C167.968546,10.3424545 168.495213,9.70504545 168.03188,7.7575 C167.553546,8.39154545 166.86188,11.291 165.770213,10.8671818 C165.003546,10.5695 165.248546,6.73327273 164.89688,6 C163.955213,7.79618182 164.228546,10.7292727 162.603546,12.0511818 C161.690213,11.1245 161.76688,9.24759091 160.58188,8.64718182 C160.185213,10.4046818 160.533546,12.3808182 159.948546,14.0811364 L159.943546,14.0845 C158.74188,13.3478636 158.42688,11.587 157.408546,10.5695 C157.33688,11.7871364 157.42688,13.0569091 157.340213,14.2762273 C156.475213,13.3680455 155.368546,11.8443182 154.045213,11.6727727 C153.683546,14.4259091 155.590213,16.8763182 156.258546,19.4242727 C156.335213,19.7169091 156.398546,20.0129091 156.460213,20.3089091 C156.440213,20.7495455 156.445213,21.1985909 156.470213,21.6476364 L156.69188,21.6409091 C156.990213,23.6775909 157.100213,25.7647273 157.660213,27.8115 C157.873546,28.5935455 158.42688,31.3735909 157.96188,25.6268182 C157.82688,23.9904091 157.870213,22.6617727 158.135213,21.5921364 C158.135213,21.5921364 174.33188,20.5191364 174.338546,20.2416364 C176.30188,23.2251818 175.450213,28.0974091 175.73188,27.5306364 C175.99188,27.0059091 177.20688,21.2675455 175.14188,17.0445 C176.00688,15.2903636 177.87188,13.5782727 178.080213,11.8560909 C177.46688,12.2614091 176.79688,12.6768182 176.075213,12.7541818" id="Fill-157-Copy" fill="#513423"></path>
                <path d="M168.088333,39.7154545 C165.785,39.7154545 163.606667,39.0881364 161.711667,38 C158.861667,39.4581364 153.641667,42.4450455 150,46.3704091 C151.253333,46.9657727 152.51,47.5493636 153.753333,48.1699545 C155.235,46.7639545 156.428333,46.5873636 158.161667,45.4470909 C155.338333,55.1949091 157.02,67.7311818 157.02,67.7311818 L179.523333,67.7311818 C179.523333,67.7311818 180.661667,55.9130455 177.476667,46.5705455 C178.54,47.3391364 178.84,47.0246364 179.78,47.8857273 L179.815,47.8655455 C181.016667,47.1978636 182.228333,46.5688636 183.448333,45.9533182 C180.291667,42.7057273 176.116667,40.1409545 173.278333,38.6054545 C171.678333,39.3168636 169.923333,39.7154545 168.088333,39.7154545" id="Fill-158-Copy" fill="#114E2E"></path>
                <path d="M215.228309,33.5914795 L213.629976,30 C211.848309,30.7971781 196.226643,38.0570137 196.003309,47.4576986 C195.774976,57.0522466 207.436643,62.7344384 207.934976,62.9734247 L209.624976,59.423726 C209.526643,59.3752603 199.758309,54.593863 199.924976,47.5529589 C200.064976,41.6702192 211.018309,35.4783014 215.228309,33.5914795" id="Fill-817-Copy" fill="#C09B7C"></path>
                <path d="M246.873333,30.8941096 C244.705,30.8907671 242.946667,32.6505753 242.943333,34.8231781 C242.943333,35.5351233 243.133333,36.2019452 243.463333,36.7785205 C241.738333,39.688137 238.971667,42.9838082 235.141667,43.3949315 C229.305,44.0216438 221.758333,33.9374247 219.341667,30 L216,32.0572877 C217.02,33.7235068 226.233333,48.3083562 235.558333,47.3056164 C241.008333,46.7223562 244.68,42.4239452 246.856667,38.7606027 L246.861667,38.7606027 C249.026667,38.7639452 250.785,37.0058082 250.788333,34.8332055 C250.791667,32.662274 249.04,30.8974521 246.873333,30.8941096" id="Fill-818-Copy" fill="#C09B7C"></path>
                <path d="M222.760498,51.9473075 C226.420498,40.9957185 224.417165,30.0976089 216.160498,30.0006774 C207.428832,29.8953897 205.402165,42.0853623 211.550498,51.9305952 C214.090498,55.9933623 208.080498,61.4783486 208.080498,61.4783486 L226.098832,61.5067596 C226.098832,61.5067596 221.003832,57.2050061 222.760498,51.9473075" id="Fill-819-Copy" fill="#D3DC4E"></path>
                <polyline id="Fill-820-Copy" fill="#C09B7C" points="213.81 109.590027 216.8 109.59337 215.74 70.2542192 218.543333 70.2592329 219.786667 109.785562 222.215 110.164932 226.018333 62.028411 208 62 213.81 109.590027"></polyline>
                <path d="M214.313304,109 C214.313304,109 209.636638,112.738548 208.139971,114.797507 C206.641638,116.853123 217.666638,115.185233 217.666638,115.185233 L217.303304,109.003342 L214.313304,109" id="Fill-821-Copy" fill="#848484"></path>
                <path d="M222.196667,109.003342 L219.373333,109 L219,115.18189 C219,115.18189 229.605,116.883205 228.158333,114.820904 C226.715,112.756932 222.196667,109.003342 222.196667,109.003342" id="Fill-822-Copy" fill="#848484"></path>
                <path d="M222.692566,57.0167123 L211.5759,57 C204.002566,60.6416164 210.812566,91.2803288 210.812566,91.2803288 L224.5309,91.303726 C232.624233,58.1598356 222.692566,57.0167123 222.692566,57.0167123" id="Fill-823-Copy" fill="#8ECE60"></path>
                <path d="M215.080018,7.00000625 C210.075018,6.99332132 206.011685,12.3496227 206.000018,18.9660336 C205.990018,25.5791021 210.038352,30.9487734 215.043352,30.9571295 C220.045018,30.9654857 224.110018,25.6091843 224.120018,18.9944446 C224.131685,12.3797049 220.081685,7.00836241 215.080018,7.00000625" id="Fill-824-Copy" fill="#C09B7C"></path>
                <path d="M299.746439,2 C299.746439,2 292.303105,2.89410959 295.226439,10.5633973 C287.253105,14.1314795 291.024772,25.2067397 291.024772,25.2067397 C291.024772,25.2067397 291.506439,16.5998904 300.099772,16.6132603 C308.691439,16.6249589 309.051439,26.3699178 309.051439,26.3699178 C309.051439,26.3699178 312.469772,14.910274 306.328105,10.8675616 C307.216439,7.12232877 307.084772,2.01169863 299.746439,2 Z" id="Fill-825-Copy" fill="#1E140F"></path>
                <path d="M19.3149523,34.6010588 L17.7005111,31 C13.8110994,31.4861765 0.0942170084,36.1819706 0.000334655507,48.5409118 C-0.0717535798,58.1688824 11.5260699,63.8470882 12.0239817,64.0868235 L13.7188935,60.5226471 C13.6216582,60.4757059 3.78748171,55.6944118 3.94506995,48.6314412 C4.07583466,42.7285882 15.085217,36.5021765 19.3149523,34.6010588" id="Fill-868-Copy" fill="#7C5842"></path>
                <path d="M43.4143824,25.3530588 C35.8568529,32.3607059 23.6487941,30.8049412 23.5264118,30.7881765 L23,36.9793824 C23.3034412,37.0246471 27.2766765,37.541 32.2775882,36.7731765 C36.6749706,36.0958824 42.4269412,33.2978529 46.6063824,29.4319118 C50.4337647,25.8928824 52.2208824,19.9665588 53.0859412,14 L49.0003824,14.6286765 C48.1437059,19.0981471 46.2811471,22.6941765 43.4143824,25.3530588" id="Fill-869-Copy" fill="#7C5842"></path>
                <path d="M52.8777271,10.0879359 C50.7620213,9.6101418 48.6312271,11.1273477 48.1131977,13.4744065 C47.5968448,15.8214653 48.8961095,18.1115241 51.0101389,18.5876418 C53.1224918,19.0637594 55.2566389,17.54823 55.7713154,15.1994947 C56.2876683,12.8524359 54.993433,10.5640536 52.8777271,10.0879359" id="Fill-870-Copy" fill="#7C5842"></path>
                <polyline id="Fill-871-Copy" fill="#5878A4" points="19.6095 108.730794 23.1803824 108.730794 22.0537941 69.2683529 24.8702647 69.2683529 26.1879706 108.916882 29.7571765 109.294088 34.6357059 61 12 61 19.6095 108.730794"></polyline>
                <path d="M19.0093653,109 C19.0093653,109 12.6203359,112.756971 11.1182183,114.822382 C9.61442417,116.891147 22.9541006,115.199588 22.9541006,115.199588 L22.5802477,109 L19.0093653,109" id="Fill-872-Copy" fill="#8FDDDD"></path>
                <path d="M29.332,109 L25.3637941,109 L25,115.201265 C25,115.201265 37.9222353,116.892824 36.4670588,114.825735 C35.0085294,112.756971 29.332,109 29.332,109" id="Fill-873-Copy" fill="#8FDDDD"></path>
                <path d="M45.1389412,31.0252059 C43.9838529,29.6840294 42.8270882,28.3445294 41.6753529,27 C36.2335294,30.4166471 29.6064412,30.6865588 26.3725294,30.5775882 C25.1956471,29.8231765 23.8527941,29.3856176 22.3205,29.3688529 C20.8334706,29.3554412 19.5543235,29.7393529 18.4495294,30.4317353 C15.0680882,30.9128824 5.28755882,34.2557647 2,42.3531176 C3.55408824,42.5760882 5.09141176,43.0723235 6.53820588,43.8552353 C8.23814706,41.5567941 10.9925882,39.3857647 13.6984118,37.6204412 C10.6857941,46.9818529 11.9867353,60.9602647 11.9867353,60.9602647 L34.6224412,60.9602647 C34.6224412,60.9602647 35.0885,46.0162059 31.0264118,36.6849706 C31.7104118,36.6229412 32.4212353,36.5391176 33.1588824,36.4251176 C36.7800588,35.8668529 41.3182647,33.8701765 45.1389412,31.0252059" id="Fill-874-Copy" fill="#8ECE60"></path>
                <path d="M20.1132941,7 C15.0805294,7 11,12.3797941 11,19.0152647 C11,25.6524118 15.0805294,31.0305294 20.1132941,31.0305294 C25.1477353,31.0305294 29.2265882,25.6524118 29.2265882,19.0152647 C29.2265882,12.3797941 25.1477353,7 20.1132941,7" id="Fill-875-Copy" fill="#7C5842"></path>
                <path d="M16.224791,4.47537781 C12.9959086,5.47287781 10.3403792,7.59864251 10.0319086,11.0270249 C9.86090861,12.929819 10.3839674,17.7899072 11.4384674,19.6323484 C10.8265557,7.88699545 27.0397027,10.592819 29.1989968,18.9617602 C29.2040263,13.7429072 28.9240557,10.9079955 25.1804968,7.15940722 C22.4310851,4.40328957 20.0991145,3.27837781 16.224791,4.47537781" id="Fill-877-Copy" fill="#D3AA8C"></path>
                <path d="M120.360775,109 C120.360775,109 115.6324,112.744 114.118712,114.804871 C112.606712,116.867414 126.037525,115.180943 126.037525,115.180943 L125.657837,109 L120.360775,109" id="Fill-970-Copy" fill="#114E2E"></path>
                <path d="M150.497875,105 L145.366188,105 L145,111.182614 C145,111.182614 158.008938,112.869086 156.5425,110.808214 C155.079438,108.745671 150.497875,105 150.497875,105" id="Fill-971-Copy" fill="#114E2E"></path>
                <path d="M127.625062,31 L126,34.5902286 C130.257562,36.4856286 141.339375,42.6933143 141.471,48.5767429 C141.629625,55.6184714 131.734125,60.3853857 131.632875,60.4321857 L133.338937,63.9856429 C133.8435,63.7483 145.659375,58.0838286 145.441687,48.4864857 C145.23075,39.0863714 129.427312,31.8006143 127.625062,31" id="Fill-974-Copy" fill="#C09B7C"></path>
                <path d="M124.17325,7 C119.107375,7 115,12.3652857 115,18.9808 C115,25.5963143 119.107375,30.9599286 124.17325,30.9599286 C129.2425,30.9599286 133.344812,25.5963143 133.344812,18.9808 C133.344812,12.3652857 129.2425,7 124.17325,7" id="Fill-975-Copy" fill="#C09B7C"></path>
                <path d="M124.6834,30.0004334 C111.308275,29.8650476 114.28165,61.4968334 114.28165,61.4968334 L137.066275,61.4968334 C137.066275,61.4968334 138.058525,30.1358191 124.6834,30.0004334" id="Fill-976-Copy" fill="#C09B7C"></path>
                <polyline id="Fill-977-Copy" fill="#848484" points="136.784625 61 114 61 119.958563 108.587243 125.255625 108.587243 124.121625 69.2434857 129.228 69.2434857 138.996938 85.7221 145.304812 105.4015 150.034875 105.7759 146.646375 84.2278429 136.784625 61"></polyline>
                <path d="M122.444658,34.5902286 L120.819595,31 C119.017345,31.8006143 103.213908,39.0863714 103.00297,48.4864857 C102.785283,58.0838286 114.604533,63.7483 115.10572,63.9856429 L116.811783,60.4321857 C116.710533,60.3853857 106.813345,55.6184714 106.970283,48.5767429 C107.10697,42.6933143 118.187095,36.4856286 122.444658,34.5902286" id="Fill-978-Copy" fill="#C09B7C"></path>
                <path d="M120.360775,109 C120.360775,109 115.6324,112.744 114.118712,114.804871 C112.606712,116.867414 126.037525,115.180943 126.037525,115.180943 L125.657837,109 L120.360775,109" id="Fill-979-Copy" fill="#114E2E"></path>
                <path d="M150.497875,105 L145.366188,105 L145,111.182614 C145,111.182614 158.008938,112.869086 156.5425,110.808214 C155.079438,108.745671 150.497875,105 150.497875,105" id="Fill-980-Copy" fill="#114E2E"></path>
                <path d="M132.833313,34 C130.4185,36.1310714 127.261188,37.3328286 124.011063,37.3328286 C120.798063,37.3328286 117.669438,36.1544714 115.263062,34.0651857 C110.31025,37.0102429 103.767813,41.9326 103,47.7558571 C104.344938,47.3029 105.755688,47.0722429 107.2255,47.0655571 C108.346,43.8982 112.11925,40.7676143 115.808125,38.3875 C112.775688,47.7207571 114.080125,61.6638143 114.080125,61.6638143 L136.86475,61.6638143 C136.86475,61.6638143 137.273125,48.7854571 134.046625,39.4973286 C136.812438,41.4579143 139.396,43.7878857 140.602563,46.1780286 C142.256313,46.519 143.835813,47.1691857 145.246563,48.0934857 C144.686313,42.0796857 137.899188,36.9935286 132.833313,34" id="Fill-981-Copy" fill="#8ECE60"></path>
                <path d="M437.292148,4.7268 C435.871273,3.02194286 433.85471,1.98231429 432.67346,0 C430.677148,0.7605 429.408148,2.64085714 427.607585,3.64371429 C426.451648,4.28888571 425.162398,4.04318571 423.99296,5.83495714 C423.976085,5.2416 423.653773,4.77192857 423.58796,4.19194286 C418.675648,7.69191429 419.958148,14.8138714 420.815398,19.6275857 L420.815398,19.9100571 C424.085773,18.2469857 423.650398,13.1391 428.75846,13.7257714 C429.997085,13.8661714 430.943773,15.0060857 431.880335,15.1515 C432.509773,15.2517857 434.004898,14.5046571 434.134835,14.5514571 C437.126773,15.5910857 438.60671,20.6705571 438.405898,23.6022429 C440.390398,20.2811143 440.317835,16.7794714 439.809898,12.5323714 C439.460585,9.61572857 439.273273,7.10858571 437.292148,4.7268" id="Fill-982-Copy" fill="#B8590B"></path>
                <path d="M124.663836,3.13057531 C121.660502,2.48513414 118.033836,4.28566355 116.880502,7.35695767 C115.767169,10.3209577 111.493836,17.7862812 121.338836,11.9136047 C125.627169,15.9253988 131.622169,18.369693 132.573836,24.5307224 C135.052169,21.0621047 134.575502,13.7677812 132.570502,10.0996635 C130.902169,7.03842826 128.140502,3.87660473 124.663836,3.13057531" id="Fill-283-Copy" fill="#E7CEAE"></path>
                <path d="M224.24901,4.70297147 C222.993596,3.24819874 221.153562,4.79547147 221.075838,1.6353351 C220.383079,1.88424419 219.323665,1.64710783 218.619079,1.82538056 C218.164562,-1.85443762 215.706113,1.40997147 214.229355,1.38978965 C213.249355,1.3763351 213.942113,-0.411437624 212.240631,0.0880623758 C211.672907,0.254562376 210.643907,2.56201692 210.104907,2.9673351 C209.883562,2.34842601 209.087734,1.94310783 208.895113,1.62019874 C208.298665,2.37701692 207.803596,3.21456238 207.418355,4.10592601 C204.750389,0.723789648 205.262355,6.40497147 205.172803,7.99428965 C202.54032,6.16110783 202.906976,11.912926 203.212803,13.466926 C203.655493,15.723926 206.352182,17.758926 206.06832,19.9705169 L205.500596,19.6879715 C205.671251,20.0125624 206.323458,20.5187896 206.416389,21.3496078 C207.193631,20.1218806 208.37132,19.0186078 208.56732,17.4175169 C208.754872,15.9173351 207.477493,14.6761533 208.682217,12.8866987 C211.206562,9.13456238 215.197527,14.6256987 217.076424,10.7406987 C217.765803,11.5950624 218.573458,12.4443806 219.663286,12.5822896 C219.615976,12.2005169 219.783251,11.6741078 219.747769,11.2973806 C223.720148,13.7915169 223.419389,18.0128806 223.738734,22.4242896 C226.034976,19.9553806 225.208734,14.6458806 225.100596,11.4235169 C225.046527,9.75178965 225.392907,6.02992601 224.24901,4.70297147" id="Fill-307-Copy" fill="#3B3833"></path>
                <path d="M265.663836,4.13057531 C262.660502,3.48513414 259.033836,5.28566355 257.880502,8.35695767 C256.767169,11.3209577 252.493836,18.7862812 262.338836,12.9136047 C266.627169,16.9253988 272.622169,19.369693 273.573836,25.5307224 C276.052169,22.0621047 275.575502,14.7677812 273.570502,11.0996635 C271.902169,8.03842826 269.140502,4.87660473 265.663836,4.13057531" id="Fill-283-Copy" fill="#3B3833"></path>
            </g>
        </g>
    </g>
</svg>