<?xml version="1.0" encoding="UTF-8"?>
<svg width="548px" height="303px" viewBox="0 0 548 303" version="1.1" xmlns="http://www.w3.org/2000/svg" xmlns:xlink="http://www.w3.org/1999/xlink">
    <!-- Generator: sketchtool 42 (36781) - http://www.bohemiancoding.com/sketch -->
    <title>8E04AEAD-4190-4BA4-B5DC-77E6164661B5</title>
    <desc>Created with sketchtool.</desc>
    <defs></defs>
    <g id="Page-1" stroke="none" stroke-width="1" fill="none" fill-rule="evenodd">
        <g id="Parite-Home" transform="translate(-430.000000, -197.000000)">
            <g id="Group-37" transform="translate(430.000000, 197.000000)">
                <g id="Group-5" transform="translate(70.000000, 0.000000)">
                    <g id="Group-5-Copy">
                        <g id="Group-3" transform="translate(241.889764, 0.000000)">
                            <polygon id="Fill-1" fill="#FFFFFF" points="0 0 0 35.4929577 52.4976378 35.4929577 52.4976378 0"></polygon>
                            <polygon id="Fill-1" fill="#3B5999" points="0 0 0 35.4929577 18.8976378 35.4929577 18.8976378 0"></polygon>
                            <polygon id="Fill-1-Copy" fill="#E54A09" points="37.7952756 0 37.7952756 35.4929577 56.6929134 35.4929577 56.6929134 0"></polygon>
                        </g>
                        <polygon id="Fill-2" fill="#B2B8BB" points="0 262.242254 0 274.242254 477.701407 274.242254 477.701407 262.242254"></polygon>
                        <polygon id="Fill-3" fill="#794D3D" points="234.330709 0 234.330709 53.2224 243.189921 53.2224 243.189921 0"></polygon>
                        <polygon id="Fill-4" fill="#E3E3E3" style="mix-blend-mode: multiply;" points="22.6771654 249.870423 22.6771654 261.870423 461.102362 261.870423 461.102362 249.870423"></polygon>
                        <polygon id="Fill-7" fill="#BBBBBB" points="240.587315 49.2169014 18.8976378 114.59978 18.8976378 124.655054 462.270236 124.655054 462.270236 114.59978"></polygon>
                        <polygon id="Fill-7" fill="#E4E4E4" fill-rule="nonzero" points="419.422191 112.81522 68.0314961 112.81522 243.730106 60.5746479"></polygon>
                        <path d="M54.6026884,134.214893 L48.5974562,134.214893 C51.5047511,167.949966 51.4570905,205.898193 48.7821409,239.579558 L54.6026884,239.579558 L54.6026884,248.90698 L30.2362205,248.90698 L30.2362205,239.579558 L34.1682177,239.579558 C31.5409287,205.665455 31.5409287,168.134963 34.400563,134.214893 L30.2362205,134.214893 L30.2362205,124.935211 L54.6026884,124.935211 L54.6026884,134.214893 Z M229.070173,134.214893 C232.025128,167.991739 231.929807,205.802711 229.302518,239.579558 L234.306878,239.579558 L234.306878,248.90698 L209.94041,248.90698 L209.94041,239.579558 L214.688595,239.579558 C212.055348,205.75497 211.965985,168.03948 214.87328,134.214893 L209.964241,134.214893 L209.964241,124.935211 L234.330709,124.935211 L234.330709,134.214893 L229.094003,134.214893 L229.070173,134.214893 Z M192.931544,134.214893 C195.791178,168.182704 195.743517,205.665455 193.116228,239.579558 L196.863541,239.579558 L196.863541,248.90698 L172.497073,248.90698 L172.497073,239.579558 L178.502305,239.579558 C175.869058,205.75497 175.779695,168.03948 178.68699,134.214893 L172.520903,134.214893 L172.520903,124.935211 L196.887371,124.935211 L196.887371,134.214893 L192.949416,134.214893 L192.931544,134.214893 Z M157.203987,134.214893 C160.1649,168.182704 160.021918,205.665455 157.394629,239.579558 L161.278966,239.579558 L161.278966,248.90698 L136.912498,248.90698 L136.912498,239.579558 L142.780706,239.579558 C140.147459,205.75497 140.058096,168.03948 143.013051,134.214893 L136.936328,134.214893 L136.936328,124.935211 L161.302796,124.935211 L161.302796,134.214893 L157.227817,134.214893 L157.203987,134.214893 Z M121.601539,134.214893 C124.461173,168.224477 124.41947,205.569973 121.786223,239.579558 L125.718221,239.579558 L125.718221,248.90698 L101.351753,248.90698 L101.351753,239.579558 L107.1723,239.579558 C104.545011,205.665455 104.497351,168.134963 107.356985,134.214893 L101.351753,134.214893 L101.351753,124.935211 L125.718221,124.935211 L125.718221,134.214893 L121.601539,134.214893 Z M84.9684308,134.214893 C87.9293439,168.03948 87.8816834,205.802711 85.2067337,239.579558 L90.1634333,239.579558 L90.1634333,248.90698 L65.7969654,248.90698 L65.7969654,239.579558 L70.586853,239.579558 C67.9595639,205.802711 67.8642428,167.991739 70.7774953,134.214893 L65.8207957,134.214893 L65.8207957,124.935211 L90.181306,124.935211 L90.181306,134.214893 L84.9922611,134.214893 L84.9684308,134.214893 Z M270.035759,134.214893 L264.030527,134.214893 C266.937822,167.949966 266.890161,205.898193 264.215212,239.579558 L270.035759,239.579558 L270.035759,248.90698 L245.669291,248.90698 L245.669291,239.579558 L249.601289,239.579558 C246.974,205.665455 246.974,168.134963 249.833634,134.214893 L245.669291,134.214893 L245.669291,124.935211 L270.035759,124.935211 L270.035759,134.214893 Z M444.503244,134.214893 C447.458199,167.991739 447.362878,205.802711 444.735589,239.579558 L449.739949,239.579558 L449.739949,248.90698 L425.373481,248.90698 L425.373481,239.579558 L430.121666,239.579558 C427.488419,205.75497 427.399056,168.03948 430.306351,134.214893 L425.397312,134.214893 L425.397312,124.935211 L449.76378,124.935211 L449.76378,134.214893 L444.527074,134.214893 L444.503244,134.214893 Z M408.364614,134.214893 C411.224249,168.182704 411.176588,205.665455 408.549299,239.579558 L412.296612,239.579558 L412.296612,248.90698 L387.930144,248.90698 L387.930144,239.579558 L393.935376,239.579558 C391.302129,205.75497 391.212766,168.03948 394.120061,134.214893 L387.953974,134.214893 L387.953974,124.935211 L412.320442,124.935211 L412.320442,134.214893 L408.382487,134.214893 L408.364614,134.214893 Z M372.637057,134.214893 C375.597971,168.182704 375.454989,205.665455 372.8277,239.579558 L376.712036,239.579558 L376.712036,248.90698 L352.345569,248.90698 L352.345569,239.579558 L358.213777,239.579558 C355.58053,205.75497 355.491166,168.03948 358.446122,134.214893 L352.369399,134.214893 L352.369399,124.935211 L376.735867,124.935211 L376.735867,134.214893 L372.660888,134.214893 L372.637057,134.214893 Z M337.03461,134.214893 C339.894244,168.224477 339.852541,205.569973 337.219294,239.579558 L341.151292,239.579558 L341.151292,248.90698 L316.784824,248.90698 L316.784824,239.579558 L322.605371,239.579558 C319.978082,205.665455 319.930421,168.134963 322.790056,134.214893 L316.784824,134.214893 L316.784824,124.935211 L341.151292,124.935211 L341.151292,134.214893 L337.03461,134.214893 Z M300.401502,134.214893 C303.362415,168.03948 303.314754,205.802711 300.639805,239.579558 L305.596504,239.579558 L305.596504,248.90698 L281.230036,248.90698 L281.230036,239.579558 L286.019924,239.579558 C283.392635,205.802711 283.297314,167.991739 286.210566,134.214893 L281.253867,134.214893 L281.253867,124.935211 L305.614377,124.935211 L305.614377,134.214893 L300.425332,134.214893 L300.401502,134.214893 Z" id="Combined-Shape" fill="#E4E4E4"></path>
                    </g>
                </g>
                <g id="Group-60" transform="translate(0.000000, 182.000000)">
                    <g id="Group-59" transform="translate(51.000000, 10.000000)">
                        <path d="M19.2053327,29.5993824 L17.6003327,26 C13.733666,26.4845 0.0953326984,31.1819706 0.000332698358,43.5409118 C-0.0713339683,53.1655294 11.458666,58.8470882 11.9569994,59.0851471 L13.6419994,55.5192941 C13.5419994,55.4740294 3.76699937,50.6910588 3.92366603,43.6280882 C4.0553327,37.7269118 14.998666,31.5005 19.2053327,29.5993824" id="Fill-14-Copy" fill="#C09B7C"></path>
                        <path d="M43.2966667,20.3513824 C35.7816667,27.3623824 23.6466667,25.8049412 23.525,25.7881765 L23,31.9827353 C23.3033333,32.0229706 27.2533333,32.541 32.2216667,31.7731765 C36.595,31.0975588 42.3116667,28.2978529 46.4666667,24.4319118 C50.2733333,20.8928824 52.05,14.9665588 52.9116667,9 L48.8483333,9.62867647 C47.9966667,14.0998235 46.145,17.6941765 43.2966667,20.3513824" id="Fill-15-Copy" fill="#C09B7C"></path>
                        <path d="M51.8476403,5.08745698 C49.744307,4.61133933 47.6226403,6.12686874 47.1126403,8.47392757 C46.599307,10.8226629 47.889307,13.1110452 49.989307,13.5888393 C52.0926403,14.0666334 54.214307,12.5494276 54.7259736,10.2023687 C55.239307,7.85530992 53.949307,5.5652511 51.8476403,5.08745698" id="Fill-16-Copy" fill="#C09B7C"></path>
                        <polyline id="Fill-17-Copy" fill="#5878A4" points="18.565 104.729118 22.115 104.729118 20.9933333 65.2683529 23.795 65.2683529 25.1016667 104.916882 28.6516667 105.292412 33.5 57 11 57 18.565 104.729118"></polyline>
                        <path d="M18.9641799,104 C18.9641799,104 12.6108466,107.758647 11.1175132,109.824059 C9.62251323,111.892824 22.8858466,110.202941 22.8858466,110.202941 L22.5141799,104 L18.9641799,104" id="Fill-18-Copy" fill="#848484"></path>
                        <path d="M29.3066667,104 L25.3616667,104 L25,110.201265 C25,110.201265 37.8466667,111.892824 36.3983333,109.825735 C34.9516667,107.758647 29.3066667,104 29.3066667,104" id="Fill-19-Copy" fill="#848484"></path>
                        <path d="M43.89,27.0235294 C42.74,25.6823529 41.59,24.3445294 40.445,23 C35.035,26.4183235 28.445,26.6865588 25.2333333,26.5759118 C24.06,25.8231765 22.7283333,25.3856176 21.2033333,25.3705294 C19.7283333,25.3554412 18.455,25.7410294 17.355,26.4317353 C13.9916667,26.9128824 4.26833333,30.2574412 1,38.3531176 C2.54666667,38.5760882 4.075,39.0706471 5.51333333,39.8535588 C7.205,37.5567941 9.94166667,35.3857647 12.6333333,33.6204412 C9.63833333,42.9801765 10.9316667,56.9602647 10.9316667,56.9602647 L33.4333333,56.9602647 C33.4333333,56.9602647 33.8983333,42.0162059 29.86,32.6832941 C30.5383333,32.6212647 31.2466667,32.5391176 31.9766667,32.4251176 C35.5783333,31.8685294 40.0883333,29.8701765 43.89,27.0235294" id="Fill-20-Copy" fill="#8FDDDD"></path>
                        <path d="M20.06,2 C15.0566667,2 11,7.37979412 11,14.0169412 C11,20.6524118 15.0566667,26.0322059 20.06,26.0322059 C25.0633333,26.0322059 29.12,20.6524118 29.12,14.0169412 C29.12,7.37979412 25.0633333,2 20.06,2" id="Fill-21-Copy" fill="#C09B7C"></path>
                        <path d="M16.1901238,0.475112706 C12.9751238,1.47261271 10.3367905,3.59837741 10.0317905,7.02843624 C9.86179051,8.92955388 10.3801238,13.7879656 11.4301238,15.6320833 C10.8184572,3.88673035 26.9384572,6.59255388 29.0834572,14.9614951 C29.0917905,9.74264212 28.8117905,6.90773035 25.0934572,3.15914212 C22.3584572,0.404700941 20.0401238,-0.721887294 16.1901238,0.475112706" id="Fill-23-Copy" fill="#3B3833"></path>
                    </g>
                    <g id="Group-54" transform="translate(411.000000, 9.000000)">
                        <path d="M26.1416667,4.01742471 C23.72,1.57816001 19.2783333,-0.961692933 16.7933333,0.364395302 C11.0366667,0.466660008 7.35166667,7.22116001 6.52833333,12.4500718 C5.99833333,15.8097188 6.02833333,19.21966 6.02833333,22.6765424 C6.02833333,25.4343365 6.88,29.5919835 5,31.8652777 C10.8883333,32.6783659 15.2616667,35.7932482 21.5033333,35.5702777 C26.315,35.4009541 29.5033333,32.3648659 33.9516667,31.6322482 C30.3166667,28.3949835 31.1416667,18.9816012 30.75,14.43166 C30.3833333,10.1952188 29.1333333,7.02836589 26.1416667,4.01742471" id="Fill-273-Copy" fill="#E7CEAE"></path>
                        <path d="M19.0616667,3 C14.0566667,3 10,8.37979412 10,15.0152647 C10,21.6524118 14.0566667,27.0305294 19.0616667,27.0305294 C24.065,27.0305294 28.12,21.6524118 28.12,15.0152647 C28.12,8.37979412 24.065,3 19.0616667,3" id="Fill-274-Copy" fill="#C09B7C"></path>
                        <path d="M25.7793209,48.0058526 C29.4209876,37.0149114 27.3993209,26.0843232 19.1443209,26.0004996 C10.4109876,25.9099702 8.40598758,38.1398232 14.5693209,48.0058526 C17.1143209,52.0779996 11.1143209,57.5902349 11.1143209,57.5902349 L29.1326542,57.5902349 C29.1326542,57.5902349 24.0309876,53.2817055 25.7793209,48.0058526" id="Fill-275-Copy" fill="#C09B7C"></path>
                        <polyline id="Fill-276-Copy" fill="#C09B7C" points="16.885 105.729118 19.8733333 105.729118 18.7516667 66.2683529 21.555 66.2683529 22.8616667 105.916882 25.29 106.292412 29.0183333 58 11 58 16.885 105.729118"></polyline>
                        <path d="M19.2078893,29.6010588 L17.6012226,26 C15.8228893,26.8013529 0.209555934,34.1107647 0.00288926703,43.5409118 C-0.210444066,53.1638529 11.4595559,58.8470882 11.9562226,59.0851471 L13.6412226,55.5192941 C13.5428893,55.4740294 3.76788927,50.6927353 3.92455593,43.6280882 C4.05455593,37.7269118 14.9995559,31.5005 19.2078893,29.6010588" id="Fill-277-Copy" fill="#C09B7C"></path>
                        <path d="M20.605,26 L19,29.6010588 C23.205,31.5005 34.15,37.7269118 34.2816667,43.6280882 C34.4383333,50.6927353 24.6633333,55.4740294 24.565,55.5192941 L26.2483333,59.0851471 C26.7433333,58.8470882 38.4166667,53.1638529 38.2016667,43.5409118 C37.9933333,34.1107647 22.385,26.8013529 20.605,26" id="Fill-278-Copy" fill="#C09B7C"></path>
                        <path d="M17.3046727,105 C17.3046727,105 12.6330061,108.758647 11.1396727,110.825735 C9.64300606,112.892824 20.6680061,111.201265 20.6680061,111.201265 L20.2930061,105 L17.3046727,105" id="Fill-279-Copy" fill="#5878A4"></path>
                        <path d="M25.1866667,105 L22.3633333,105 L22,111.201265 C22,111.201265 32.605,112.892824 31.1566667,110.824059 C29.71,108.758647 25.1866667,105 25.1866667,105" id="Fill-280-Copy" fill="#5878A4"></path>
                        <path d="M25.6734428,53 L14.5584428,53 C6.98844277,56.6630882 13.8501094,87.3877647 13.8501094,87.3877647 L27.5651094,87.3877647 C35.6067761,54.1265882 25.6734428,53 25.6734428,53" id="Fill-281-Copy" fill="#8FDDDD"></path>
                        <polyline id="Fill-282-Copy" fill="#8FDDDD" points="8.56 36.073 14.0666667 53.2685588 26.4933333 53.2685588 28.735 36.6379706 29.015 31 8 31 8.56 36.073"></polyline>
                        <path d="M19.6638358,2.13057531 C16.6605024,1.48513414 13.0338358,3.28566355 11.8805024,6.35695767 C10.7671691,9.32095767 6.49383578,16.7862812 16.3388358,10.9136047 C20.6271691,14.9253988 26.6221691,17.369693 27.5738358,23.5307224 C30.0521691,20.0621047 29.5755024,12.7677812 27.5705024,9.09966355 C25.9021691,6.03842826 23.1405024,2.87660473 19.6638358,2.13057531" id="Fill-283-Copy" fill="#E7CEAE"></path>
                    </g>
                    <g id="Group-50" transform="translate(328.000000, 12.000000)">
                        <path d="M19.4711356,32.6108636 L17.842308,29 C16.0394459,29.8039091 0.214135602,37.1366364 0.00292870587,46.5968636 C-0.213347156,56.2505 11.619308,61.9518636 12.1228253,62.189 L13.829377,58.6151364 C13.7296873,58.5663636 3.81985974,53.7698182 3.97868733,46.6843182 C4.11048043,40.766 15.2064459,34.5180455 19.4711356,32.6108636" id="Fill-300-Copy" fill="#7C5842"></path>
                        <path d="M24.6254483,29 L23,32.6108636 C27.263,34.5180455 38.3589655,40.766 38.4907586,46.6843182 C38.6478966,53.7698182 28.7397586,58.5663636 28.640069,58.6151364 L30.3483103,62.189 C30.8518276,61.9518636 42.6827931,56.2505 42.4665172,46.5968636 C42.257,37.1366364 26.43,29.8039091 24.6254483,29" id="Fill-301-Copy" fill="#7C5842"></path>
                        <path d="M21.1849655,6 C16.1126207,6 12,11.3969545 12,18.0552727 C12,24.7119091 16.1126207,30.1088636 21.1849655,30.1088636 C26.259,30.1088636 30.369931,24.7119091 30.369931,18.0552727 C30.369931,11.3969545 26.259,6 21.1849655,6" id="Fill-302-Copy" fill="#7C5842"></path>
                        <path d="M21.6967124,28.0004361 C8.30619514,27.8642088 11.2816779,59.6909361 11.2816779,59.6909361 L34.095402,59.6909361 C34.095402,59.6909361 35.0872296,28.1383452 21.6967124,28.0004361" id="Fill-303-Copy" fill="#7C5842"></path>
                        <polyline id="Fill-304-Copy" fill="#5878A4" points="11 59 16.9661724 101.792182 22.27 101.792182 21.1328621 67.8598182 24.5425862 67.8598182 36.6624828 101.982227 41.3985862 102.360636 33.8137241 59 11 59"></polyline>
                        <path d="M17.3689124,102 C17.3689124,102 12.632809,105.770636 11.118878,107.844318 C9.60494693,109.919682 23.0512228,108.221045 23.0512228,108.221045 L22.67274,102 L17.3689124,102" id="Fill-305-Copy" fill="#848484"></path>
                        <path d="M41.5015172,102 L36.3649655,102 L36,108.222727 C36,108.222727 49.0238621,109.918 47.5555517,107.844318 C46.0872414,105.772318 41.5015172,102 41.5015172,102" id="Fill-306-Copy" fill="#848484"></path>
                        <path d="M30.24901,4.70297147 C28.9935962,3.24819874 27.1535618,4.79547147 27.0758376,1.6353351 C26.383079,1.88424419 25.3236652,1.64710783 24.619079,1.82538056 C24.1645618,-1.85443762 21.7061135,1.40997147 20.2293549,1.38978965 C19.2493549,1.3763351 19.9421135,-0.411437624 18.2406307,0.0880623758 C17.6729066,0.254562376 16.6439066,2.56201692 16.1049066,2.9673351 C15.8835618,2.34842601 15.0877342,1.94310783 14.8951135,1.62019874 C14.2986652,2.37701692 13.8035962,3.21456238 13.4183549,4.10592601 C10.7503893,0.723789648 11.2623549,6.40497147 11.1728031,7.99428965 C8.54032038,6.16110783 8.90697555,11.912926 9.21280314,13.466926 C9.65549279,15.723926 12.3521825,17.758926 12.0683204,19.9705169 L11.5005962,19.6879715 C11.6712514,20.0125624 12.3234583,20.5187896 12.4163893,21.3496078 C13.1936307,20.1218806 14.3713204,19.0186078 14.5673204,17.4175169 C14.7548721,15.9173351 13.4774928,14.6761533 14.6822169,12.8866987 C17.2065618,9.13456238 21.1975273,14.6256987 23.0764238,10.7406987 C23.7658031,11.5950624 24.5734583,12.4443806 25.6632859,12.5822896 C25.6159756,12.2005169 25.7832514,11.6741078 25.7477687,11.2973806 C29.720148,13.7915169 29.4193893,18.0128806 29.7387342,22.4242896 C32.0349756,19.9553806 31.2087342,14.6458806 31.1005962,11.4235169 C31.0465273,9.75178965 31.3929066,6.02992601 30.24901,4.70297147" id="Fill-307-Copy" fill="#3B3833"></path>
                        <path d="M28.572069,31 C28.2763793,31.2018182 27.973931,31.3969091 27.6647241,31.5735 L27.3774828,31.7517727 C24.5878621,33.2452273 23.6365862,33.3141818 20.4921379,33.6085 C18.0945172,33.6000909 15.8607931,32.9996818 13.7875862,31.8022273 C13.5797586,31.6424545 13.3736207,31.481 13.1657931,31.3245909 C8.08837931,34.2341364 0.697827586,39.4965455 0,45.7798182 C0.665724138,45.6755455 1.34496552,45.6234091 2.02589655,45.6234091 C2.69837931,45.6234091 3.36241379,45.6755455 4.02137931,45.7747727 C4.69386207,42.2984545 8.82168966,38.7901818 12.8413793,36.1816818 C9.80844828,45.5695909 11.1162414,59.5959545 11.1162414,59.5959545 L33.9299655,59.5959545 C33.9299655,59.5959545 34.3388621,46.6409091 31.1065517,37.2967273 C34.4047586,39.6445455 37.4461379,42.5204545 38.2047931,45.3997273 C39.646069,45.5342727 41.0484828,45.9059545 42.3613448,46.4861818 C42.1619655,39.6495909 33.8285862,33.9347727 28.572069,31" id="Fill-308-Copy" fill="#D3DC4E"></path>
                    </g>
                    <g id="Group-51" transform="translate(279.000000, 17.000000)">
                        <path d="M19.5000102,27.6157778 L17.8703179,24 C16.0663179,24.8059365 0.214471766,32.140127 0.00293330478,41.6060952 C-0.21368208,51.2621905 11.6375487,56.9676825 12.1401641,57.2049206 L13.8510872,53.6278413 C13.7529333,53.5807302 3.82754869,48.7838095 3.9849333,41.6935873 C4.1169333,35.7710476 15.2303179,29.5220952 19.5000102,27.6157778" id="Fill-434-Copy" fill="#C09B7C"></path>
                        <path d="M24.6330769,24 L23,27.6157778 C27.2747692,29.5220952 38.3864615,35.7710476 38.5184615,41.6935873 C38.6775385,48.7838095 28.7521538,53.5807302 28.6523077,53.6278413 L30.3632308,57.2049206 C30.8675385,56.9676825 42.7170769,51.2621905 42.5021538,41.6060952 C42.2906154,32.140127 26.4387692,24.8059365 24.6330769,24" id="Fill-435-Copy" fill="#C09B7C"></path>
                        <path d="M21.2010769,1 C16.1207692,1 12,6.40095238 12,13.0604444 C12,19.721619 16.1207692,25.1208889 21.2010769,25.1208889 C26.2796923,25.1208889 30.3987692,19.721619 30.3987692,13.0604444 C30.3987692,6.40095238 26.2796923,1 21.2010769,1" id="Fill-436-Copy" fill="#C09B7C"></path>
                        <path d="M21.7138375,23.0004363 C8.30060676,22.8641505 11.2824529,54.7045315 11.2824529,54.7045315 L34.1319914,54.7045315 C34.1319914,54.7045315 35.1270683,23.136722 21.7138375,23.0004363" id="Fill-437-Copy" fill="#C09B7C"></path>
                        <polyline id="Fill-438-Copy" fill="#114E2E" points="16.9738462 96.6781905 22.286 96.6781905 21.1470769 63.2966032 23.9935385 63.2966032 25.322 96.8683175 30.0621538 97.2452063 33.8495385 55 11 55 16.9738462 96.6781905"></polyline>
                        <path d="M17.3774889,97 C17.3774889,97 12.6356428,100.770571 11.1193351,102.848508 C9.60133506,104.921397 23.0670274,103.223714 23.0670274,103.223714 L22.6896428,97 L17.3774889,97" id="Fill-439-Copy" fill="#8FDDDD"></path>
                        <path d="M30.5101538,97 L25.3672308,97 L25,103.223714 C25,103.223714 38.0443077,104.921397 36.5753846,102.846825 C35.1030769,100.772254 30.5101538,97 30.5101538,97" id="Fill-440-Copy" fill="#8FDDDD"></path>
                        <path d="M21.1935828,0.00914727205 C8.39127514,0.433147272 10.6640444,9.62317902 12.229429,15.284925 C12.4477367,16.0639409 13.0095828,18.8468616 12.5357367,13.0959409 C12.0872751,7.64619489 13.5443521,5.52282981 19.2000444,5.52282981 C20.9718905,5.52282981 23.5763521,5.36803616 25.3245059,5.51609965 C32.0040444,6.08816315 30.1848136,15.789687 30.5808136,15.0005758 C31.0089674,14.1525758 33.9958905,-0.416535268 21.1935828,0.00914727205" id="Fill-441-Copy" fill="#1E140F"></path>
                        <path d="M22.3632308,26.7195556 C20.0278462,26.7195556 17.816,26.0902857 15.8884615,25 C12.9963077,26.4587619 7.696,29.4486349 4,33.3756825 C5.27092308,33.969619 6.54861538,34.5568254 7.80938462,35.1743175 C9.31384615,33.7710794 10.5238462,33.5927302 12.2855385,32.4519683 C9.41707692,42.2039683 11.1263077,54.745619 11.1263077,54.745619 L33.9758462,54.745619 C33.9758462,54.7473016 35.13,42.9224127 31.896,33.5759048 C32.9773846,34.3465079 33.282,34.0268254 34.2364615,34.8916508 L34.2736923,34.8714603 C35.4904615,34.2051746 36.7241538,33.5742222 37.9612308,32.9600952 C34.756,29.7094286 30.5150769,27.141873 27.6347692,25.6040317 C26.0118462,26.3174286 24.2281538,26.7195556 22.3632308,26.7195556" id="Fill-442-Copy" fill="#8FDDDD"></path>
                        <path d="M11.9409231,36 C11.2335385,39.5552063 11.0101538,43.2601587 11,46.4670794 L34.4486154,46.4670794 C34.2726154,43.2366032 33.8292308,39.5165079 32.8443077,36 L11.9409231,36" id="Fill-443-Copy" fill="#5878A4"></path>
                    </g>
                    <g id="Group-49" transform="translate(367.000000, 18.000000)">
                        <path d="M19.5033495,27.6107302 L17.8736572,24 C16.0679648,24.804254 0.216118694,32.140127 0.00288792454,41.6044127 C-0.212035152,51.2621905 11.6391956,56.9676825 12.1435033,57.2032381 L13.8544264,53.6261587 C13.7545802,53.5790476 3.82919562,48.7804444 3.98658023,41.6919048 C4.12027254,35.7676825 15.2319648,29.5204127 19.5033495,27.6107302" id="Fill-538-Copy" fill="#C09B7C"></path>
                        <path d="M24.6296923,24 L23,27.6107302 C27.2696923,29.5204127 38.3847692,35.7676825 38.5167692,41.6919048 C38.6758462,48.7804444 28.7504615,53.5790476 28.6489231,53.6261587 L30.3598462,57.2032381 C30.8641538,56.9676825 42.7153846,51.2621905 42.4987692,41.6044127 C42.2872308,32.140127 26.4370769,24.804254 24.6296923,24" id="Fill-539-Copy" fill="#C09B7C"></path>
                        <path d="M22.2010769,0 C17.1207692,0 13,5.39926984 13,12.0587619 C13,18.718254 17.1207692,24.1175238 22.2010769,24.1175238 C27.2813846,24.1175238 31.4004615,18.718254 31.4004615,12.0587619 C31.4004615,5.39926984 27.2813846,0 22.2010769,0" id="Fill-540-Copy" fill="#C09B7C"></path>
                        <path d="M21.7138375,23.0004256 C8.30060676,22.8658224 11.2824529,54.7062033 11.2824529,54.7062033 L34.1319914,54.7062033 C34.1319914,54.7062033 35.125376,23.1383938 21.7138375,23.0004256" id="Fill-541-Copy" fill="#C09B7C"></path>
                        <polyline id="Fill-542-Copy" fill="#848484" points="17.9755385 96.6781905 23.286 96.6781905 22.1487692 63.2966032 24.9935385 63.2966032 26.322 96.8666349 31.0638462 97.2435238 34.8495385 55 12 55 17.9755385 96.6781905"></polyline>
                        <path d="M17.3789246,96 C17.3789246,96 12.6370785,99.772254 11.1190785,101.846825 C9.6027708,103.919714 23.0684631,102.223714 23.0684631,102.223714 L22.6893862,96 L17.3789246,96" id="Fill-543-Copy" fill="#114E2E"></path>
                        <path d="M30.5118462,96 L25.3672308,96 L25,102.223714 C25,102.223714 38.0443077,103.921397 36.5736923,101.846825 C35.1047692,99.7705714 30.5118462,96 30.5118462,96" id="Fill-544-Copy" fill="#114E2E"></path>
                        <path d="M22.1907976,0.00907682393 C9.39187451,0.433076824 11.6646437,9.62479111 13.2283361,15.2865371 C13.4466437,16.065553 14.0084899,18.8484736 13.5363361,13.0992356 C13.0878745,7.64780698 14.5415668,5.52612444 20.1989514,5.52612444 C21.9724899,5.52612444 24.5752591,5.36796571 26.323413,5.51939428 C33.0029514,6.09145778 31.1837207,15.7929816 31.581413,15.0021879 C32.0095668,14.1525054 34.9947976,-0.414923176 22.1907976,0.00907682393" id="Fill-545-Copy" fill="#513423"></path>
                        <path d="M23.3649231,26.7161905 C21.0261538,26.7161905 18.816,26.0886032 16.8901538,25 C13.998,26.4587619 8.69769231,29.4469524 5,33.374 C6.27261538,33.969619 7.54861538,34.5568254 8.81107692,35.176 C10.3138462,33.7693968 11.5255385,33.5910476 13.2872308,32.4519683 C10.4187692,42.2039683 12.1263077,54.745619 12.1263077,54.745619 L34.9758462,54.745619 C34.9758462,54.745619 36.1316923,42.9207302 32.8976923,33.5742222 C33.9790769,34.3448254 34.2836923,34.0285079 35.2364615,34.8916508 L35.272,34.8697778 C36.4921538,34.2034921 37.7241538,33.5742222 38.9612308,32.9600952 C35.7576923,29.7111111 31.5184615,27.141873 28.6347692,25.6057143 C27.0135385,26.3174286 25.2281538,26.7161905 23.3649231,26.7161905" id="Fill-546-Copy" fill="#5878A4"></path>
                        <path d="M28.1774235,3 L13.7606542,5.07288889 C13.2648081,6.53838095 12.9077312,8.25961905 13.0211158,9.94720635 C14.9909619,10.9617778 16.8575773,8.18222222 17.3212696,6.63765079 C17.4329619,7.9735873 16.6545004,10.6925714 18.7394235,10.5546032 C20.4503465,10.4435556 20.8345004,7.91638095 20.9681927,6.64101587 C21.0663465,8.01733333 21.5012696,10.2786667 23.3915773,10.1793968 C24.7369619,10.1087302 25.4748081,8.61295238 25.3225004,7.38974603 C25.6372696,9.56190476 28.8069619,10.2719365 28.9254235,7.77168254 C29.6835773,10.2567937 31.1406542,7.43349206 30.8377312,5.96463492 C30.4975773,4.32752381 29.3772696,3.80593651 28.1774235,3" id="Fill-547-Copy" fill="#513423"></path>
                    </g>
                    <g id="Group-52" transform="translate(246.000000, 8.000000)">
                        <path d="M31.7716667,14.4331779 C31.4066667,10.1950603 30.1566667,7.02820734 27.165,4.01894263 C24.7416667,1.57967792 20.3,-0.961851489 17.815,0.364236747 C12.06,0.466501453 8.37333333,7.22100145 7.55,12.4499132 C7.02166667,15.8078838 7.05166667,19.2195015 7.05166667,22.6763838 C7.05166667,25.4341779 6.88,43.1159132 5,45.3875309 C10.8883333,46.2022956 15.2633333,49.3155015 21.5033333,49.0925309 C26.315,48.9232073 29.5033333,45.8854426 33.9516667,45.1545015 C30.3166667,41.9172367 32.165,18.9814426 31.7716667,14.4331779" id="Fill-666-Copy" fill="#513423"></path>
                        <path d="M19.06,4 C14.0566667,4 10,9.38147059 10,16.0169412 C10,22.6524118 14.0566667,28.0322059 19.06,28.0322059 C24.0633333,28.0322059 28.1216667,22.6524118 28.1216667,16.0169412 C28.1216667,9.38147059 24.0633333,4 19.06,4" id="Fill-667-Copy" fill="#7C5842"></path>
                        <path d="M25.7787565,48.0074928 C29.4220898,37.0148752 27.4004231,26.0859634 19.1454231,26.0004634 C10.4120898,25.9132869 8.40542314,38.1431399 14.5687565,48.0074928 C17.1154231,52.0796399 11.1137565,57.5918752 11.1137565,57.5918752 L29.1337565,57.5918752 C29.1337565,57.5918752 24.0304231,53.2833458 25.7787565,48.0074928" id="Fill-668-Copy" fill="#7C5842"></path>
                        <polyline id="Fill-669-Copy" fill="#7C5842" points="16.885 105.730794 19.875 105.730794 18.7533333 66.2683529 21.5566667 66.2683529 22.8633333 105.916882 25.2916667 106.294088 29.02 58 11 58 16.885 105.730794"></polyline>
                        <path d="M19.2078446,29.5993824 L17.6011779,26 C15.8228446,26.8013529 0.211177903,34.1107647 0.00284456934,43.5409118 C-0.208822097,53.1655294 11.4611779,58.8487647 11.9578446,59.0834706 L13.6411779,55.5209706 C13.5445112,55.4723529 3.76784457,50.6910588 3.92451124,43.6280882 C4.0561779,37.7285882 14.9995112,31.5021765 19.2078446,29.5993824" id="Fill-670-Copy" fill="#7C5842"></path>
                        <path d="M20.6066667,26 L19,29.5993824 C23.2066667,31.5021765 34.1516667,37.7285882 34.2816667,43.6280882 C34.4383333,50.6910588 24.665,55.4723529 24.565,55.5209706 L26.2483333,59.0834706 C26.7466667,58.8487647 38.4183333,53.1655294 38.2033333,43.5409118 C37.995,34.1107647 22.385,26.8013529 20.6066667,26" id="Fill-671-Copy" fill="#7C5842"></path>
                        <path d="M17.3030448,106 C17.3030448,106 12.6330448,109.756971 11.1397114,111.824059 C9.64304476,113.891147 20.6647114,112.201265 20.6647114,112.201265 L20.2930448,106 L17.3030448,106" id="Fill-672-Copy" fill="#D3DC4E"></path>
                        <path d="M26.185,105 L23.3616667,105 L23,111.199588 C23,111.199588 33.605,112.891147 32.1583333,110.822382 C30.71,108.756971 26.185,105 26.185,105" id="Fill-673-Copy" fill="#D3DC4E"></path>
                        <path d="M25.6748533,53 L14.5581867,53 C6.98985334,56.6614118 13.8481867,87.3877647 13.8481867,87.3877647 L27.56652,87.3877647 C35.60652,54.1265882 25.6748533,53 25.6748533,53" id="Fill-674-Copy" fill="#5878A4"></path>
                        <polyline id="Fill-675-Copy" fill="#848484" points="20.21 37.2012647 12.3633333 31 9 31 9.56 36.0713235 15.0666667 53.8301765 27.495 53.8301765 29.735 36.6346176 30.0166667 31 26.0916667 31 20.21 37.2012647"></polyline>
                        <path d="M19.59,2.13049029 C16.5816667,1.48504911 12.9583333,3.287255 11.805,6.35854911 C11.2533333,7.82881382 8.46666667,11.8506668 7,14.8163432 L29.0733333,14.8163432 C28.855,12.6486668 28.3033333,10.5782256 27.495,9.101255 C25.825,6.0400197 23.065,2.87819617 19.59,2.13049029" id="Fill-676-Copy" fill="#513423"></path>
                    </g>
                    <g id="Group-57" transform="translate(146.000000, 11.000000)">
                        <path d="M19.2062222,34.6108636 L17.6012222,31 C15.8212222,31.8055909 0.209555526,39.1366364 0.00288885953,48.5968636 C-0.210444474,58.2505 11.4612222,63.9501818 11.9578889,64.1906818 L13.6428889,60.6151364 C13.5428889,60.5680455 3.76955553,55.7715 3.92288886,48.6843182 C4.05622219,42.7643182 14.9995555,36.5197273 19.2062222,34.6108636" id="Fill-150-Copy" fill="#7C5842"></path>
                        <path d="M23.6066667,31 L22,34.6108636 C26.2066667,36.5197273 37.1516667,42.7643182 37.2816667,48.6843182 C37.4383333,55.7715 27.6633333,60.5680455 27.565,60.6151364 L29.25,64.1906818 C29.7466667,63.9501818 41.4183333,58.2505 41.205,48.5968636 C40.9966667,39.1366364 25.3866667,31.8055909 23.6066667,31" id="Fill-151-Copy" fill="#7C5842"></path>
                        <path d="M21.06,7 C16.0566667,7 12,12.3986364 12,19.0552727 C12,25.7119091 16.0566667,31.1088636 21.06,31.1088636 C26.065,31.1088636 30.1216667,25.7119091 30.1216667,19.0552727 C30.1216667,12.3986364 26.065,7 21.06,7" id="Fill-152-Copy" fill="#7C5842"></path>
                        <path d="M20.5498886,30.0004361 C7.34155525,29.8642088 10.2782219,61.6909361 10.2782219,61.6909361 L32.7815553,61.6909361 C32.7815553,61.6909361 33.7598886,30.1383452 20.5498886,30.0004361" id="Fill-153-Copy" fill="#7C5842"></path>
                        <polyline id="Fill-154-Copy" fill="#8FDDDD" points="16.885 103.662 22.115 103.662 20.995 70.2947273 23.795 70.2947273 25.1033333 103.848682 29.775 104.227091 33.5033333 62 11 62 16.885 103.662"></polyline>
                        <path d="M16.2841662,103 C16.2841662,103 11.6124995,106.768955 10.1174995,108.842636 C8.6224995,110.916318 21.8874995,109.221045 21.8874995,109.221045 L21.5141662,103 L16.2841662,103" id="Fill-155-Copy" fill="#5878A4"></path>
                        <path d="M29.4283333,103 L24.3616667,103 L24,109.221045 C24,109.221045 36.8466667,110.918 35.3983333,108.840955 C33.95,106.768955 29.4283333,103 29.4283333,103" id="Fill-156-Copy" fill="#5878A4"></path>
                        <path d="M30.0752131,6.75418182 C30.3635465,5.54495455 31.6368798,4.61659091 31.9035465,3.40568182 C30.5552131,3.92536364 29.3468798,5.37677273 28.0285465,5.62231818 C28.3735465,3.89509091 30.2185465,2.49918182 30.4035465,0.775318182 C28.1635465,0.390181818 26.1535465,2.51936364 24.2552131,3.34681818 C21.9685465,4.34245455 22.4952131,3.70504545 22.0318798,1.7575 C21.5535465,2.39154545 20.8618798,5.291 19.7702131,4.86718182 C19.0035465,4.5695 19.2485465,0.733272727 18.8968798,0 C17.9552131,1.79618182 18.2285465,4.72927273 16.6035465,6.05118182 C15.6902131,5.1245 15.7668798,3.24759091 14.5818798,2.64718182 C14.1852131,4.40468182 14.5335465,6.38081818 13.9485465,8.08113636 L13.9435465,8.0845 C12.7418798,7.34786364 12.4268798,5.587 11.4085465,4.5695 C11.3368798,5.78713636 11.4268798,7.05690909 11.3402131,8.27622727 C10.4752131,7.36804545 9.36854647,5.84431818 8.04521314,5.67277273 C7.68354647,8.42590909 9.59021314,10.8763182 10.2585465,13.4242727 C10.3352131,13.7169091 10.3985465,14.0129091 10.4602131,14.3089091 C10.4402131,14.7495455 10.4452131,15.1985909 10.4702131,15.6476364 L10.6918798,15.6409091 C10.9902131,17.6775909 11.1002131,19.7647273 11.6602131,21.8115 C11.8735465,22.5935455 12.4268798,25.3735909 11.9618798,19.6268182 C11.8268798,17.9904091 11.8702131,16.6617727 12.1352131,15.5921364 C12.1352131,15.5921364 28.3318798,14.5191364 28.3385465,14.2416364 C30.3018798,17.2251818 29.4502131,22.0974091 29.7318798,21.5306364 C29.9918798,21.0059091 31.2068798,15.2675455 29.1418798,11.0445 C30.0068798,9.29036364 31.8718798,7.57827273 32.0802131,5.85609091 C31.4668798,6.26140909 30.7968798,6.67681818 30.0752131,6.75418182" id="Fill-157-Copy" fill="#513423"></path>
                        <path d="M22.0883333,33.7154545 C19.785,33.7154545 17.6066667,33.0881364 15.7116667,32 C12.8616667,33.4581364 7.64166667,36.4450455 4,40.3704091 C5.25333333,40.9657727 6.51,41.5493636 7.75333333,42.1699545 C9.235,40.7639545 10.4283333,40.5873636 12.1616667,39.4470909 C9.33833333,49.1949091 11.02,61.7311818 11.02,61.7311818 L33.5233333,61.7311818 C33.5233333,61.7311818 34.6616667,49.9130455 31.4766667,40.5705455 C32.54,41.3391364 32.84,41.0246364 33.78,41.8857273 L33.815,41.8655455 C35.0166667,41.1978636 36.2283333,40.5688636 37.4483333,39.9533182 C34.2916667,36.7057273 30.1166667,34.1409545 27.2783333,32.6054545 C25.6783333,33.3168636 23.9233333,33.7154545 22.0883333,33.7154545" id="Fill-158-Copy" fill="#114E2E"></path>
                    </g>
                    <g id="Group-56" transform="translate(196.000000, 0.000000)">
                        <path d="M19.2283094,38.5914795 L17.629976,35 C15.8483094,35.7971781 0.226642685,43.0570137 0.00330935158,52.4576986 C-0.225023982,62.0522466 11.4366427,67.7344384 11.934976,67.9734247 L13.624976,64.423726 C13.5266427,64.3752603 3.75830935,59.593863 3.92497602,52.5529589 C4.06497602,46.6702192 15.0183094,40.4783014 19.2283094,38.5914795" id="Fill-817-Copy" fill="#C09B7C"></path>
                        <path d="M50.8733333,35.8941096 C48.705,35.8907671 46.9466667,37.6505753 46.9433333,39.8231781 C46.9433333,40.5351233 47.1333333,41.2019452 47.4633333,41.7785205 C45.7383333,44.688137 42.9716667,47.9838082 39.1416667,48.3949315 C33.305,49.0216438 25.7583333,38.9374247 23.3416667,35 L20,37.0572877 C21.02,38.7235068 30.2333333,53.3083562 39.5583333,52.3056164 C45.0083333,51.7223562 48.68,47.4239452 50.8566667,43.7606027 L50.8616667,43.7606027 C53.0266667,43.7639452 54.785,42.0058082 54.7883333,39.8332055 C54.7916667,37.662274 53.04,35.8974521 50.8733333,35.8941096" id="Fill-818-Copy" fill="#C09B7C"></path>
                        <path d="M26.7604985,56.9473075 C30.4204985,45.9957185 28.4171652,35.0976089 20.1604985,35.0006774 C11.4288318,34.8953897 9.40216517,47.0853623 15.5504985,56.9305952 C18.0904985,60.9933623 12.0804985,66.4783486 12.0804985,66.4783486 L30.0988318,66.5067596 C30.0988318,66.5067596 25.0038318,62.2050061 26.7604985,56.9473075" id="Fill-819-Copy" fill="#D3DC4E"></path>
                        <polyline id="Fill-820-Copy" fill="#C09B7C" points="17.81 114.590027 20.8 114.59337 19.74 75.2542192 22.5433333 75.2592329 23.7866667 114.785562 26.215 115.164932 30.0183333 67.028411 12 67 17.81 114.590027"></polyline>
                        <path d="M18.3133042,114 C18.3133042,114 13.6366376,117.738548 12.1399709,119.797507 C10.6416376,121.853123 21.6666376,120.185233 21.6666376,120.185233 L21.3033042,114.003342 L18.3133042,114" id="Fill-821-Copy" fill="#848484"></path>
                        <path d="M26.1966667,114.003342 L23.3733333,114 L23,120.18189 C23,120.18189 33.605,121.883205 32.1583333,119.820904 C30.715,117.756932 26.1966667,114.003342 26.1966667,114.003342" id="Fill-822-Copy" fill="#848484"></path>
                        <path d="M26.6925664,62.0167123 L15.5758998,62 C8.00256643,65.6416164 14.8125664,96.2803288 14.8125664,96.2803288 L28.5308998,96.303726 C36.6242331,63.1598356 26.6925664,62.0167123 26.6925664,62.0167123" id="Fill-823-Copy" fill="#8ECE60"></path>
                        <path d="M19.0800185,12.0000063 C14.0750185,11.9933213 10.0116852,17.3496227 10.0000185,23.9660336 C9.99001849,30.5791021 14.0383518,35.9487734 19.0433518,35.9571295 C24.0450185,35.9654857 28.1100185,30.6091843 28.1200185,23.9944446 C28.1316852,17.3797049 24.0816852,12.0083624 19.0800185,12.0000063" id="Fill-824-Copy" fill="#C09B7C"></path>
                        <path d="M19.613047,0 C19.613047,0 12.1697137,0.894109589 15.093047,8.56339726 C7.11971365,12.1314795 10.8913803,23.2067397 10.8913803,23.2067397 C10.8913803,23.2067397 11.373047,14.5998904 19.9663803,14.6132603 C28.558047,14.6249589 28.918047,24.3699178 28.918047,24.3699178 C28.918047,24.3699178 32.3363803,12.910274 26.1947137,8.86756164 C27.083047,5.12232877 26.9513803,0.0116986301 19.613047,0 Z" id="Fill-825-Copy" fill="#1E140F"></path>
                    </g>
                    <g id="Group-55" transform="translate(0.000000, 9.000000)">
                        <path d="M19.3149523,30.6010588 L17.7005111,27 C13.8110994,27.4861765 0.0942170084,32.1819706 0.000334655507,44.5409118 C-0.0717535798,54.1688824 11.5260699,59.8470882 12.0239817,60.0868235 L13.7188935,56.5226471 C13.6216582,56.4757059 3.78748171,51.6944118 3.94506995,44.6314412 C4.07583466,38.7285882 15.085217,32.5021765 19.3149523,30.6010588" id="Fill-868-Copy" fill="#7C5842"></path>
                        <path d="M43.4143824,21.3530588 C35.8568529,28.3607059 23.6487941,26.8049412 23.5264118,26.7881765 L23,32.9793824 C23.3034412,33.0246471 27.2766765,33.541 32.2775882,32.7731765 C36.6749706,32.0958824 42.4269412,29.2978529 46.6063824,25.4319118 C50.4337647,21.8928824 52.2208824,15.9665588 53.0859412,10 L49.0003824,10.6286765 C48.1437059,15.0981471 46.2811471,18.6941765 43.4143824,21.3530588" id="Fill-869-Copy" fill="#7C5842"></path>
                        <path d="M52.8777271,6.08793591 C50.7620213,5.6101418 48.6312271,7.12734768 48.1131977,9.4744065 C47.5968448,11.8214653 48.8961095,14.1115241 51.0101389,14.5876418 C53.1224918,15.0637594 55.2566389,13.54823 55.7713154,11.1994947 C56.2876683,8.85243591 54.993433,6.56405356 52.8777271,6.08793591" id="Fill-870-Copy" fill="#7C5842"></path>
                        <polyline id="Fill-871-Copy" fill="#5878A4" points="19.6095 104.730794 23.1803824 104.730794 22.0537941 65.2683529 24.8702647 65.2683529 26.1879706 104.916882 29.7571765 105.294088 34.6357059 57 12 57 19.6095 104.730794"></polyline>
                        <path d="M19.0093653,105 C19.0093653,105 12.6203359,108.756971 11.1182183,110.822382 C9.61442417,112.891147 22.9541006,111.199588 22.9541006,111.199588 L22.5802477,105 L19.0093653,105" id="Fill-872-Copy" fill="#8FDDDD"></path>
                        <path d="M29.332,105 L25.3637941,105 L25,111.201265 C25,111.201265 37.9222353,112.892824 36.4670588,110.825735 C35.0085294,108.756971 29.332,105 29.332,105" id="Fill-873-Copy" fill="#8FDDDD"></path>
                        <path d="M45.1389412,27.0252059 C43.9838529,25.6840294 42.8270882,24.3445294 41.6753529,23 C36.2335294,26.4166471 29.6064412,26.6865588 26.3725294,26.5775882 C25.1956471,25.8231765 23.8527941,25.3856176 22.3205,25.3688529 C20.8334706,25.3554412 19.5543235,25.7393529 18.4495294,26.4317353 C15.0680882,26.9128824 5.28755882,30.2557647 2,38.3531176 C3.55408824,38.5760882 5.09141176,39.0723235 6.53820588,39.8552353 C8.23814706,37.5567941 10.9925882,35.3857647 13.6984118,33.6204412 C10.6857941,42.9818529 11.9867353,56.9602647 11.9867353,56.9602647 L34.6224412,56.9602647 C34.6224412,56.9602647 35.0885,42.0162059 31.0264118,32.6849706 C31.7104118,32.6229412 32.4212353,32.5391176 33.1588824,32.4251176 C36.7800588,31.8668529 41.3182647,29.8701765 45.1389412,27.0252059" id="Fill-874-Copy" fill="#8ECE60"></path>
                        <path d="M20.1132941,3 C15.0805294,3 11,8.37979412 11,15.0152647 C11,21.6524118 15.0805294,27.0305294 20.1132941,27.0305294 C25.1477353,27.0305294 29.2265882,21.6524118 29.2265882,15.0152647 C29.2265882,8.37979412 25.1477353,3 20.1132941,3" id="Fill-875-Copy" fill="#7C5842"></path>
                        <path d="M16.224791,0.475377806 C12.9959086,1.47287781 10.3403792,3.59864251 10.0319086,7.02702486 C9.86090861,8.92981898 10.3839674,13.7899072 11.4384674,15.6323484 C10.8265557,3.88699545 27.0397027,6.59281898 29.1989968,14.9617602 C29.2040263,9.74290722 28.9240557,6.90799545 25.1804968,3.15940722 C22.4310851,0.403289571 20.0991145,-0.721622194 16.224791,0.475377806" id="Fill-877-Copy" fill="#D3AA8C"></path>
                    </g>
                    <g id="Group-58" transform="translate(103.000000, 5.000000)">
                        <path d="M17.360775,109 C17.360775,109 12.6324,112.744 11.1187125,114.804871 C9.60671246,116.867414 23.037525,115.180943 23.037525,115.180943 L22.6578375,109 L17.360775,109" id="Fill-970-Copy" fill="#114E2E"></path>
                        <path d="M47.497875,105 L42.3661875,105 L42,111.182614 C42,111.182614 55.0089375,112.869086 53.5425,110.808214 C52.0794375,108.745671 47.497875,105 47.497875,105" id="Fill-971-Copy" fill="#114E2E"></path>
                        <path d="M24.6250625,31 L23,34.5902286 C27.2575625,36.4856286 38.339375,42.6933143 38.471,48.5767429 C38.629625,55.6184714 28.734125,60.3853857 28.632875,60.4321857 L30.3389375,63.9856429 C30.8435,63.7483 42.659375,58.0838286 42.4416875,48.4864857 C42.23075,39.0863714 26.4273125,31.8006143 24.6250625,31" id="Fill-974-Copy" fill="#C09B7C"></path>
                        <path d="M21.17325,7 C16.107375,7 12,12.3652857 12,18.9808 C12,25.5963143 16.107375,30.9599286 21.17325,30.9599286 C26.2425,30.9599286 30.3448125,25.5963143 30.3448125,18.9808 C30.3448125,12.3652857 26.2425,7 21.17325,7" id="Fill-975-Copy" fill="#C09B7C"></path>
                        <path d="M21.6834005,30.0004334 C8.30827549,29.8650476 11.2816505,61.4968334 11.2816505,61.4968334 L34.0662755,61.4968334 C34.0662755,61.4968334 35.0585255,30.1358191 21.6834005,30.0004334" id="Fill-976-Copy" fill="#C09B7C"></path>
                        <polyline id="Fill-977-Copy" fill="#848484" points="33.784625 61 11 61 16.9585625 108.587243 22.255625 108.587243 21.121625 69.2434857 26.228 69.2434857 35.9969375 85.7221 42.3048125 105.4015 47.034875 105.7759 43.646375 84.2278429 33.784625 61"></polyline>
                        <path d="M19.4446577,34.5902286 L17.8195952,31 C16.0173452,31.8006143 0.213907651,39.0863714 0.00297015115,48.4864857 C-0.214717349,58.0838286 11.6045327,63.7483 12.1057202,63.9856429 L13.8117827,60.4321857 C13.7105327,60.3853857 3.81334515,55.6184714 3.97028265,48.5767429 C4.10697015,42.6933143 15.1870952,36.4856286 19.4446577,34.5902286" id="Fill-978-Copy" fill="#C09B7C"></path>
                        <path d="M17.360775,109 C17.360775,109 12.6324,112.744 11.1187125,114.804871 C9.60671246,116.867414 23.037525,115.180943 23.037525,115.180943 L22.6578375,109 L17.360775,109" id="Fill-979-Copy" fill="#114E2E"></path>
                        <path d="M47.497875,105 L42.3661875,105 L42,111.182614 C42,111.182614 55.0089375,112.869086 53.5425,110.808214 C52.0794375,108.745671 47.497875,105 47.497875,105" id="Fill-980-Copy" fill="#114E2E"></path>
                        <path d="M29.8333125,34 C27.4185,36.1310714 24.2611875,37.3328286 21.0110625,37.3328286 C17.7980625,37.3328286 14.6694375,36.1544714 12.2630625,34.0651857 C7.31025,37.0102429 0.7678125,41.9326 0,47.7558571 C1.3449375,47.3029 2.7556875,47.0722429 4.2255,47.0655571 C5.346,43.8982 9.11925,40.7676143 12.808125,38.3875 C9.7756875,47.7207571 11.080125,61.6638143 11.080125,61.6638143 L33.86475,61.6638143 C33.86475,61.6638143 34.273125,48.7854571 31.046625,39.4973286 C33.8124375,41.4579143 36.396,43.7878857 37.6025625,46.1780286 C39.2563125,46.519 40.8358125,47.1691857 42.2465625,48.0934857 C41.6863125,42.0796857 34.8991875,36.9935286 29.8333125,34" id="Fill-981-Copy" fill="#8ECE60"></path>
                        <path d="M28.2921477,4.7268 C26.8712727,3.02194286 24.8547102,1.98231429 23.6734602,0 C21.6771477,0.7605 20.4081477,2.64085714 18.6075852,3.64371429 C17.4516477,4.28888571 16.1623977,4.04318571 14.9929602,5.83495714 C14.9760852,5.2416 14.6537727,4.77192857 14.5879602,4.19194286 C9.67564773,7.69191429 10.9581477,14.8138714 11.8153977,19.6275857 L11.8153977,19.9100571 C15.0857727,18.2469857 14.6503977,13.1391 19.7584602,13.7257714 C20.9970852,13.8661714 21.9437727,15.0060857 22.8803352,15.1515 C23.5097727,15.2517857 25.0048977,14.5046571 25.1348352,14.5514571 C28.1267727,15.5910857 29.6067102,20.6705571 29.4058977,23.6022429 C31.3903977,20.2811143 31.3178352,16.7794714 30.8098977,12.5323714 C30.4605852,9.61572857 30.2732727,7.10858571 28.2921477,4.7268" id="Fill-982-Copy" fill="#E7CEAE"></path>
                    </g>
                </g>
            </g>
        </g>
    </g>
</svg>