<svg width="115" height="115" viewBox="0 0 115 115" xmlns="http://www.w3.org/2000/svg" xmlns:xlink="http://www.w3.org/1999/xlink"><title>91A98FFF-E505-4DD1-9B9D-BCD37098F348</title><defs><path d="M57.343 114.153C25.9 114.153.41 88.653.41 57.2.41 25.745 25.9.247 57.343.247c31.444 0 56.933 25.498 56.933 56.953 0 31.454-25.49 56.953-56.933 56.953zm17.373-58.34c0 9.856-7.991 17.854-17.847 17.854-9.853 0-17.848-7.995-17.848-17.854H33.11c0 12.046 9.089 22.013 20.695 23.549v13.363h5.911V79.362c11.824-1.424 20.802-11.503 20.802-23.55h-5.8zM56.87 66.985c6.13 0 11.168-5.04 11.168-11.172V33.8c0-6.133-5.038-11.173-11.168-11.173-6.131 0-11.169 5.04-11.169 11.173v22.013c0 6.133 5.038 11.172 11.169 11.172z" id="a"/></defs><g fill="none" fill-rule="evenodd"><mask id="b" fill="#fff"><use xlink:href="#a"/></mask><g mask="url(#b)"><path fill="#8FDDDD" d="M-3 86h123v30H-3z"/><path fill="#5878A4" d="M-3 0h123v86H-3z"/></g></g></svg>