<?xml version="1.0" encoding="UTF-8"?>
<svg width="1440px" height="173px" viewBox="0 0 1440 173" version="1.1" xmlns="http://www.w3.org/2000/svg" xmlns:xlink="http://www.w3.org/1999/xlink">
    <!-- Generator: sketchtool 42 (36781) - http://www.bohemiancoding.com/sketch -->
    <title>E6293555-C767-4E28-BF9C-B8F6439C5F7F</title>
    <desc>Created with sketchtool.</desc>
    <defs>
        <polygon id="path-1" points="1.31399522 0.124176259 0.416310564 0.124176259 9.15162981 0.124176259 1.98839913 0.124176259 2.21167988 0.124176259 1.31399522 0.124176259 9.15162981 0.124176259 9.15162981 0.523456835 0.416310564 0.523456835 0.416310564 0.124176259"></polygon>
    </defs>
    <g id="Page-1" stroke="none" stroke-width="1" fill="none" fill-rule="evenodd">
        <g id="Parite-Home" transform="translate(0.000000, -852.000000)">
            <g id="Group-38" transform="translate(-14.000000, 852.000000)">
                <path d="M1398.65031,61.5807483 C1399.697,61.5807483 1400.63938,61.1346952 1401.30459,60.4236483 C1402.2422,62.4111025 1404.24975,63.7888309 1406.58275,63.7888309 C1407.68071,63.7888309 1408.70475,63.478872 1409.58216,62.9488842 C1411.48182,67.1090485 1415.65845,70 1420.50864,70 C1425.95251,70 1430.54997,66.3578328 1432.02821,61.3643166 C1434.07689,63.8751638 1437.18597,65.4771178 1440.66819,65.4771178 C1442.29128,65.4771178 1443.83211,65.1263906 1445.22452,64.4998779 C1446.39102,67.5563007 1449.33618,69.7272122 1452.78621,69.7272122 C1455.05543,69.7272122 1457.10471,68.7877429 1458.5758,67.2751194 C1459.2881,67.5682913 1460.06775,67.730765 1460.88556,67.730765 C1464.26227,67.730765 1467,64.9777062 1467,61.5807483 C1467,58.1843899 1464.26227,55.4313312 1460.88556,55.4313312 C1460.06775,55.4313312 1459.2881,55.5938048 1458.5758,55.8869768 C1457.10471,54.3737537 1455.05543,53.434884 1452.78621,53.434884 C1452.45659,53.434884 1452.13292,53.4570667 1451.81403,53.4948373 C1451.43314,47.634995 1446.59011,43 1440.66819,43 C1435.75839,43 1431.59189,46.1859221 1430.09219,50.6134784 C1427.89688,47.7015432 1424.42182,45.8190074 1420.50864,45.8190074 C1415.65845,45.8190074 1411.48182,48.7099589 1409.58216,52.8707228 C1408.70475,52.340735 1407.68071,52.0307761 1406.58275,52.0307761 C1404.24975,52.0307761 1402.2422,53.407905 1401.30459,55.3959587 C1400.63938,54.6855113 1399.697,54.2382591 1398.65031,54.2382591 C1396.63382,54.2382591 1395,55.8821805 1395,57.910403 C1395,59.9368269 1396.63382,61.5807483 1398.65031,61.5807483" id="Fill-6" fill="#FFFFFF"></path>
                <path d="M1176.12048,13.4078185 C1174.43221,13.4078185 1172.91457,14.1186808 1171.84152,15.2512816 C1170.33169,12.0852562 1167.09753,9.89114096 1163.33947,9.89114096 C1161.56949,9.89114096 1159.92027,10.3857577 1158.50596,11.229832 C1155.44484,4.60387869 1148.71758,0 1140.90286,0 C1132.13045,0 1124.72548,5.79979995 1122.34327,13.7518998 C1119.04242,9.75374741 1114.03288,7.20300627 1108.42433,7.20300627 C1105.8078,7.20300627 1103.32586,7.76154092 1101.08364,8.75973494 C1099.20191,3.89122432 1094.45792,0.433685731 1088.90104,0.433685731 C1085.24511,0.433685731 1081.94247,1.92948335 1079.57348,4.33924677 C1078.42473,3.87210869 1077.16904,3.6134504 1075.85207,3.6134504 C1070.41114,3.6134504 1066,7.9992915 1066,13.4078185 C1066,18.8169429 1070.41114,23.202784 1075.85207,23.202784 C1077.16904,23.202784 1078.42473,22.9435283 1079.57348,22.4769876 C1081.94247,24.8855563 1085.24511,26.3819513 1088.90104,26.3819513 C1089.43035,26.3819513 1089.95245,26.3467069 1090.46554,26.2857758 C1091.07897,35.6177848 1098.88348,43 1108.42433,43 C1116.33398,43 1123.04682,37.9259964 1125.46327,30.8753178 C1128.99903,35.5126488 1134.59857,38.5102177 1140.90286,38.5102177 C1148.71758,38.5102177 1155.44484,33.906339 1158.50596,27.2791909 C1159.92027,28.1238626 1161.56949,28.617882 1163.33947,28.617882 C1167.09753,28.617882 1170.33169,26.4237667 1171.84152,23.2589361 C1172.91457,24.3903422 1174.43221,25.1006071 1176.12048,25.1006071 C1179.36725,25.1006071 1182,22.484156 1182,19.2542128 C1182,16.0254643 1179.36725,13.4078185 1176.12048,13.4078185" id="Fill-7" fill="#FFFFFF"></path>
                <g id="Group-310" transform="translate(1350.755427, 170.604317)">
                    <mask id="mask-2" fill="white">
                        <use xlink:href="#path-1"></use>
                    </mask>
                    <g id="Clip-309"></g>
                    <polyline id="Fill-308" mask="url(#mask-2)" points="9.15162981 0.124176259 1.98839913 0.124176259 2.21167988 0.124176259 0.416310564 0.124176259 9.15162981 0.124176259"></polyline>
                </g>
                <path d="M1369.16184,168.208633 C1367.39407,168.208633 1365.96093,169.639059 1365.96093,171.402878 L1372.36324,171.402878 C1372.36324,169.639059 1370.93059,168.208633 1369.16184,168.208633" id="Fill-319" fill="#848484"></path>
                <path d="M972.152045,81.7837702 C973.281545,81.7837702 974.297036,81.3088144 975.014759,80.5514655 C976.02592,82.6682199 978.190153,84.1351356 980.705069,84.1351356 C981.888927,84.1351356 982.992931,83.8049601 983.939633,83.2401737 C985.987933,87.6705456 990.490056,90.7482014 995.719523,90.7482014 C1001.59023,90.7482014 1006.54598,86.8706704 1008.13969,81.5539375 C1010.34866,84.2268775 1013.70108,85.9327045 1017.45517,85.9327045 C1019.2057,85.9327045 1020.86676,85.5590472 1022.36763,84.8920067 C1023.62605,88.146457 1026.80096,90.4581631 1030.52042,90.4581631 C1032.96655,90.4581631 1035.17696,89.4576024 1036.76249,87.8478178 C1037.53025,88.1593582 1038.37112,88.33233 1039.2524,88.33233 C1042.89344,88.33233 1045.84515,85.4008878 1045.84515,81.7837702 C1045.84515,78.1676081 1042.89344,75.2356882 1039.2524,75.2356882 C1038.37112,75.2356882 1037.53025,75.4091378 1036.76249,75.721156 C1035.17696,74.1108936 1032.96655,73.1098551 1030.52042,73.1098551 C1030.16541,73.1098551 1029.81617,73.134224 1029.4727,73.174839 C1029.06189,66.9354304 1023.84012,62 1017.45517,62 C1012.16173,62 1007.66922,65.392541 1006.05242,70.1067396 C1003.68567,67.0061482 999.939272,65.0016821 995.719523,65.0016821 C990.490056,65.0016821 985.987933,68.0802936 983.939633,72.5101876 C982.992931,71.945879 981.888927,71.6152258 980.705069,71.6152258 C978.190153,71.6152258 976.02592,73.0816636 975.014759,75.198418 C974.297036,74.4415469 973.281545,73.9665912 972.152045,73.9665912 C969.979154,73.9665912 968.217077,75.7163778 968.217077,77.8751807 C968.217077,80.0339835 969.979154,81.7837702 972.152045,81.7837702" id="Fill-5" fill="#FFFFFF"></path>
                <g id="Group-23" transform="translate(1434.785818, 99.532374)">
                    <path d="M23.5254894,57.9763356 C23.5254894,57.9763356 11.195986,58.4955473 12.855603,46.3768155 L9.77500672,47.3780046 C9.77500672,47.3780046 8.63232516,58.3242006 23.3946455,60.6906475 L23.5254894,57.9763356" id="Fill-138" fill="#794D3D"></path>
                    <path d="M21.2303197,26.8593418 C21.2303197,33.1550089 17.8909793,36.0708565 13.7710182,36.0708565 C9.65140028,36.0708565 6.31171668,33.1550089 6.31171668,26.8593418 C6.31171668,20.562978 9.65140028,15.4589385 13.7710182,15.4589385 C17.8909793,15.4589385 21.2303197,20.562978 21.2303197,26.8593418" id="Fill-141" fill="#8ECE60"></path>
                    <path d="M20.6565273,41.2810567 C20.6565273,49.8506291 16.03244,53.8200081 10.3282637,53.8200081 C4.62408736,53.8200081 2.27373675e-13,49.8506291 2.27373675e-13,41.2810567 C2.27373675e-13,32.7118311 4.62408736,25.7648975 10.3282637,25.7648975 C16.03244,25.7648975 20.6565273,32.7118311 20.6565273,41.2810567" id="Fill-142" fill="#528C28"></path>
                    <path d="M30.4109986,12.0330653 C30.4109986,18.6785594 26.8149291,21.7570246 22.3780769,21.7570246 C17.9415692,21.7570246 14.3448106,18.6785594 14.3448106,12.0330653 C14.3448106,5.38757125 17.9415692,0 22.3780769,0 C26.8149291,0 30.4109986,5.38757125 30.4109986,12.0330653" id="Fill-143" fill="#8ECE60"></path>
                    <path d="M39.0178849,35.7123182 C39.0178849,48.47928 32.0814659,54.3925614 23.5254894,54.3925614 C14.9691674,54.3925614 8.03309396,48.47928 8.03309396,35.7123182 C8.03309396,22.9456988 14.9691674,12.5961721 23.5254894,12.5961721 C32.0814659,12.5961721 39.0178849,22.9456988 39.0178849,35.7123182" id="Fill-145" fill="#114E2E"></path>
                </g>
                <path d="M1420.38013,162.618705 C1415.51848,162.618705 1411.57742,166.55173 1411.57742,171.402878 L1429.18379,171.402878 C1429.18379,166.55173 1425.24274,162.618705 1420.38013,162.618705" id="Fill-167" fill="#E4E4E4"></path>
                <path d="M1412.77739,165.81295 C1409.90492,165.81295 1407.57598,168.31563 1407.57598,171.402878 L1417.97974,171.402878 C1417.97974,168.31563 1415.65032,165.81295 1412.77739,165.81295" id="Fill-168" fill="#E4E4E4"></path>
                <path d="M1418.37919,168.208633 C1416.39095,168.208633 1414.77858,169.996403 1414.77858,172.201439 L1421.98119,172.201439 C1421.98119,169.996403 1420.36835,168.208633 1418.37919,168.208633" id="Fill-169" fill="#848484"></path>
                <path d="M1428.78439,168.208633 C1426.79539,168.208633 1425.18234,169.638813 1425.18234,171.402878 L1432.38495,171.402878 C1432.38495,169.638813 1430.7734,168.208633 1428.78439,168.208633" id="Fill-170" fill="#848484"></path>
                <g id="Group-24" transform="translate(1384.367583, 83.561151)">
                    <polyline id="Fill-219" fill="#114E2E" points="18.7359274 40.920059 0 61.1072881 37.7279305 61.1072881 18.7359274 40.920059"></polyline>
                    <polyline id="Fill-220" fill="#114E2E" points="19.0333123 30.0080433 2.18712641 46.3760668 36.0875857 46.3760668 19.0333123 30.0080433"></polyline>
                    <polyline id="Fill-221" fill="#528C28" points="19.0505195 20.7328299 3.82747121 34.3728495 34.4472409 34.3728495 19.0505195 20.7328299"></polyline>
                    <polyline id="Fill-222" fill="#528C28" points="18.7918376 12.5488181 4.92103442 24.0064346 32.8068961 24.0064346 18.7918376 12.5488181"></polyline>
                    <polyline id="Fill-223" fill="#8ECE60" points="18.802094 6.00160865 6.01459762 15.8224228 31.7133329 15.8224228 18.802094 6.00160865"></polyline>
                    <polyline id="Fill-224" fill="#D3DC4E" points="18.5363433 0 6.56137922 8.72961258 30.6197697 8.72961258 18.5363433 0"></polyline>
                    <polyline id="Fill-218" fill="#794D3D" points="21.8712641 87.8417266 16.4034481 87.8417266 18.2830529 2.18240315 19.9926935 2.18240315 21.8712641 87.8417266"></polyline>
                </g>
                <g id="Group-22" transform="translate(1190.000000, 80.000000)">
                    <polyline id="Fill-236" fill="#794D3D" points="38.9048268 91.9754549 31.7223972 91.9754549 34.1910494 3.58345928 36.4361746 3.58345928 38.9048268 91.9754549"></polyline>
                    <path d="M33.5180046,24.1879896 C33.5180046,31.9399751 27.2211761,38.2235657 19.4524134,38.2235657 C11.6836506,38.2235657 5.38682217,31.9399751 5.38682217,24.1879896 C5.38682217,16.4370859 11.6836506,10.1531346 19.4524134,10.1531346 C27.2211761,10.1531346 33.5180046,16.4370859 33.5180046,24.1879896" id="Fill-237" fill="#8ECE60"></path>
                    <path d="M71.2257598,29.8626947 C71.2257598,35.1398952 66.9375131,39.4180521 61.649187,39.4180521 C56.3597905,39.4180521 52.0726143,35.1398952 52.0726143,29.8626947 C52.0726143,24.5844261 56.3597905,20.3062693 61.649187,20.3062693 C66.9375131,20.3062693 71.2257598,24.5844261 71.2257598,29.8626947" id="Fill-238" fill="#8ECE60"></path>
                    <path d="M65.2404018,36.7306369 C65.2404018,52.398014 52.5117755,65.0995103 36.8097719,65.0995103 C21.1084867,65.0995103 8.37950115,52.398014 8.37950115,36.7306369 C8.37950115,21.0625429 21.1084867,8.36140499 36.8097719,8.36140499 C52.5117755,8.36140499 65.2404018,21.0625429 65.2404018,36.7306369" id="Fill-239" fill="#114E2E"></path>
                    <path d="M29.9267898,41.2101381 C29.9267898,49.4561228 23.2278603,56.1408621 14.9632163,56.1408621 C6.69964378,56.1408621 0,49.4561228 0,41.2101381 C0,32.9634407 6.69964378,26.2787014 14.9632163,26.2787014 C23.2278603,26.2787014 29.9267898,32.9634407 29.9267898,41.2101381" id="Fill-240" fill="#D3DC4E"></path>
                    <path d="M61.0506512,18.8129827 C61.0506512,29.203478 52.6086645,37.6263225 42.196237,37.6263225 C31.7834518,37.6263225 23.3428961,29.203478 23.3428961,18.8129827 C23.3428961,8.42248752 31.7834518,0 42.196237,0 C52.6086645,0 61.0506512,8.42248752 61.0506512,18.8129827" id="Fill-242" fill="#528C28"></path>
                    <path d="M60.4521154,40.911339 C60.4521154,48.3329893 54.4226737,54.3491325 46.98506,54.3491325 C39.5478047,54.3491325 33.5180046,48.3329893 33.5180046,40.911339 C33.5180046,33.4889733 39.5478047,27.4731878 46.98506,27.4731878 C54.4226737,27.4731878 60.4521154,33.4889733 60.4521154,40.911339" id="Fill-243" fill="#D3DC4E"></path>
                    <path d="M36.5106836,36.4316606 C36.5106836,40.0602165 33.5634533,43.0015114 29.9264382,43.0015114 C26.2908295,43.0015114 23.3428961,40.0602165 23.3428961,36.4316606 C23.3428961,32.8031047 26.2908295,29.8621607 29.9264382,29.8621607 C33.5634533,29.8621607 36.5106836,32.8031047 36.5106836,36.4316606" id="Fill-244" fill="#8ECE60"></path>
                    <path d="M35.313612,47.4806591 C35.313612,52.5933752 31.1599116,56.7381053 26.0361303,56.7381053 C20.9127027,56.7381053 16.7590023,52.5933752 16.7590023,47.4806591 C16.7590023,42.3682958 20.9127027,38.2235657 26.0361303,38.2235657 C31.1599116,38.2235657 35.313612,42.3682958 35.313612,47.4806591" id="Fill-246" fill="#528C28"></path>
                    <path d="M51.4731898,63.9050239 L51.4731898,63.9050239 L51.4536393,63.9050239 L51.44653,63.9050239 L51.4337333,63.9050239 L51.4259131,63.9050239 L51.4141828,63.9050239 L51.4063626,63.9050239 L51.3942768,63.9050239 C51.3917886,63.9046712 51.3889449,63.9046712 51.3864566,63.9046712 L51.3747263,63.9046712 L51.3669061,63.9046712 L51.3548203,63.9046712 C51.3519766,63.9043186 51.3498438,63.9043186 51.3470001,63.9043186 L51.3334925,63.9043186 L51.3278051,63.9043186 C51.3224731,63.9043186 51.3171412,63.9039659 51.3118092,63.9039659 L51.3078991,63.9039659 C51.3011453,63.9039659 51.2947469,63.9036132 51.2883486,63.9036132 L51.2837275,63.9036132 C51.2787511,63.9036132 51.2737746,63.9032606 51.2687981,63.9032606 L51.2623997,63.9032606 C51.2577787,63.9032606 51.2531576,63.9029079 51.2485366,63.9029079 L51.2424937,63.9029079 C51.2378727,63.9029079 51.2336071,63.9025552 51.2289861,63.9025552 L51.2225877,63.9025552 C51.2179667,63.9022026 51.2129902,63.9022026 51.2083692,63.9022026 C51.2069473,63.9022026 51.2048146,63.9022026 51.2030372,63.9018499 C51.1980607,63.9018499 51.1930842,63.9018499 51.1877523,63.9014972 L51.1834867,63.9014972 C51.1777993,63.9014972 51.1717564,63.9011446 51.166069,63.9011446 L51.1639362,63.9011446 C51.1436748,63.9004392 51.1234133,63.8997339 51.1027964,63.8993813 C51.0960426,63.8990286 51.0896442,63.8986759 51.0828904,63.8986759 L51.0814686,63.8986759 C51.0754257,63.8983233 51.0690273,63.8979706 51.0629844,63.8979706 L51.0608517,63.8979706 C51.0544533,63.8976179 51.048055,63.8972653 51.0420121,63.8972653 L51.0413011,63.8972653 C49.4388697,63.837665 47.9224605,63.4493818 46.5567681,62.7990692 L46.5560571,62.7990692 C42.8009361,61.0107095 40.1893425,57.2368507 40.1018984,52.8490038 C42.0533954,53.9556638 44.3130797,54.5883432 46.7217033,54.5883432 C51.7415651,54.5883432 56.1144825,51.8407371 58.396561,47.7794571 C59.3929264,48.2350991 60.5016185,48.4890173 61.6707394,48.4890173 C61.7997728,48.4890173 61.9280953,48.486196 62.0557068,48.479848 C62.0621052,48.4960706 62.0685035,48.5119405 62.0749019,48.528163 L62.0731245,48.5320423 C62.5608211,49.775536 62.8352392,51.1241236 62.8459032,52.5365434 L62.8459032,52.5372487 L62.8459032,52.5527659 L62.8459032,52.5569979 L62.8459032,52.5693412 C62.8462586,52.5714571 62.8462586,52.5739258 62.8462586,52.5756891 L62.8462586,52.5866217 L62.8462586,52.5954383 L62.8462586,52.6039022 L62.8462586,52.6211828 C62.8462586,58.8531104 57.7545931,63.9050239 51.4731898,63.9050239" id="Fill-252" fill="#8ECE60"></path>
                    <path d="M61.6488339,48.3767003 C60.4872691,48.3767003 59.3857426,48.1229695 58.3958168,47.6676638 C55.7234055,46.4381267 53.8682217,43.7415324 53.8682217,40.6125385 C53.8682217,37.7140168 55.4595901,35.1869288 57.8180363,33.8530802 C58.9492288,33.2134672 60.2562982,32.8483768 61.6488339,32.8483768 C62.6567712,32.8483768 63.6198564,33.0397321 64.5038322,33.3875547 C66.0224484,33.9852316 67.3072683,35.0459672 68.1834745,36.3949692 C68.182415,36.3963788 68.1810023,36.3977884 68.1795896,36.399198 C68.9583219,37.5987808 69.4195574,39.0242544 69.4301524,40.5579159 L69.4301524,40.5920991 L69.4301524,40.596328 L69.4301524,40.6125385 L69.4301524,40.6248727 L69.4301524,40.6266347 L69.4301524,40.6375592 L69.4301524,40.6403784 L69.4301524,40.6495409 L69.4301524,40.6551794 L69.4301524,40.6618751 L69.4301524,40.669628 L69.4301524,40.6738568 L69.4301524,40.6816097 C69.4301524,40.6833717 69.4297992,40.6847813 69.4297992,40.6861909 L69.4297992,40.6942962 L69.4297992,40.6985251 L69.4297992,40.706278 L69.4297992,40.7108592 C69.4297992,40.713326 69.429446,40.7164977 69.429446,40.7193169 L69.429446,40.7224885 L69.429446,40.7309462 L69.429446,40.7351751 C69.429446,40.7379943 69.4290929,40.7404611 69.4290929,40.742928 L69.4290929,40.7475092 L69.4290929,40.7552621 L69.4290929,40.7594909 C69.4287397,40.7626626 69.4287397,40.7651294 69.4287397,40.768301 L69.4287397,40.7714727 C69.4287397,40.7742919 69.4287397,40.7774635 69.4283865,40.7802828 L69.4283865,40.7834544 L69.4283865,40.7929693 C69.4283865,40.7940265 69.4280334,40.7943789 69.4280334,40.7954361 L69.4280334,40.804951 L69.4280334,40.8074179 C69.4276802,40.8112943 69.4276802,40.814466 69.4276802,40.8183424 C69.3220834,44.8678151 66.106502,48.1360085 62.077578,48.3555561 L62.0729869,48.3654234 C62.0592134,48.3661282 62.0454399,48.366833 62.0313132,48.3675378 C61.9045264,48.3738811 61.7770333,48.3767003 61.6488339,48.3767003" id="Fill-257" fill="#528C28"></path>
                </g>
                <g id="Group-22-Copy" transform="translate(85.120144, 80.000000)">
                    <polyline id="Fill-236" fill="#794D3D" points="38.9048268 91.9754549 31.7223972 91.9754549 34.1910494 3.58345928 36.4361746 3.58345928 38.9048268 91.9754549"></polyline>
                    <path d="M33.5180046,24.1879896 C33.5180046,31.9399751 27.2211761,38.2235657 19.4524134,38.2235657 C11.6836506,38.2235657 5.38682217,31.9399751 5.38682217,24.1879896 C5.38682217,16.4370859 11.6836506,10.1531346 19.4524134,10.1531346 C27.2211761,10.1531346 33.5180046,16.4370859 33.5180046,24.1879896" id="Fill-237" fill="#8ECE60"></path>
                    <path d="M71.2257598,29.8626947 C71.2257598,35.1398952 66.9375131,39.4180521 61.649187,39.4180521 C56.3597905,39.4180521 52.0726143,35.1398952 52.0726143,29.8626947 C52.0726143,24.5844261 56.3597905,20.3062693 61.649187,20.3062693 C66.9375131,20.3062693 71.2257598,24.5844261 71.2257598,29.8626947" id="Fill-238" fill="#8ECE60"></path>
                    <path d="M65.2404018,36.7306369 C65.2404018,52.398014 52.5117755,65.0995103 36.8097719,65.0995103 C21.1084867,65.0995103 8.37950115,52.398014 8.37950115,36.7306369 C8.37950115,21.0625429 21.1084867,8.36140499 36.8097719,8.36140499 C52.5117755,8.36140499 65.2404018,21.0625429 65.2404018,36.7306369" id="Fill-239" fill="#114E2E"></path>
                    <path d="M29.9267898,41.2101381 C29.9267898,49.4561228 23.2278603,56.1408621 14.9632163,56.1408621 C6.69964378,56.1408621 0,49.4561228 0,41.2101381 C0,32.9634407 6.69964378,26.2787014 14.9632163,26.2787014 C23.2278603,26.2787014 29.9267898,32.9634407 29.9267898,41.2101381" id="Fill-240" fill="#D3DC4E"></path>
                    <path d="M61.0506512,18.8129827 C61.0506512,29.203478 52.6086645,37.6263225 42.196237,37.6263225 C31.7834518,37.6263225 23.3428961,29.203478 23.3428961,18.8129827 C23.3428961,8.42248752 31.7834518,0 42.196237,0 C52.6086645,0 61.0506512,8.42248752 61.0506512,18.8129827" id="Fill-242" fill="#528C28"></path>
                    <path d="M60.4521154,40.911339 C60.4521154,48.3329893 54.4226737,54.3491325 46.98506,54.3491325 C39.5478047,54.3491325 33.5180046,48.3329893 33.5180046,40.911339 C33.5180046,33.4889733 39.5478047,27.4731878 46.98506,27.4731878 C54.4226737,27.4731878 60.4521154,33.4889733 60.4521154,40.911339" id="Fill-243" fill="#D3DC4E"></path>
                    <path d="M36.5106836,36.4316606 C36.5106836,40.0602165 33.5634533,43.0015114 29.9264382,43.0015114 C26.2908295,43.0015114 23.3428961,40.0602165 23.3428961,36.4316606 C23.3428961,32.8031047 26.2908295,29.8621607 29.9264382,29.8621607 C33.5634533,29.8621607 36.5106836,32.8031047 36.5106836,36.4316606" id="Fill-244" fill="#8ECE60"></path>
                    <path d="M35.313612,47.4806591 C35.313612,52.5933752 31.1599116,56.7381053 26.0361303,56.7381053 C20.9127027,56.7381053 16.7590023,52.5933752 16.7590023,47.4806591 C16.7590023,42.3682958 20.9127027,38.2235657 26.0361303,38.2235657 C31.1599116,38.2235657 35.313612,42.3682958 35.313612,47.4806591" id="Fill-246" fill="#528C28"></path>
                    <path d="M51.4731898,63.9050239 L51.4731898,63.9050239 L51.4536393,63.9050239 L51.44653,63.9050239 L51.4337333,63.9050239 L51.4259131,63.9050239 L51.4141828,63.9050239 L51.4063626,63.9050239 L51.3942768,63.9050239 C51.3917886,63.9046712 51.3889449,63.9046712 51.3864566,63.9046712 L51.3747263,63.9046712 L51.3669061,63.9046712 L51.3548203,63.9046712 C51.3519766,63.9043186 51.3498438,63.9043186 51.3470001,63.9043186 L51.3334925,63.9043186 L51.3278051,63.9043186 C51.3224731,63.9043186 51.3171412,63.9039659 51.3118092,63.9039659 L51.3078991,63.9039659 C51.3011453,63.9039659 51.2947469,63.9036132 51.2883486,63.9036132 L51.2837275,63.9036132 C51.2787511,63.9036132 51.2737746,63.9032606 51.2687981,63.9032606 L51.2623997,63.9032606 C51.2577787,63.9032606 51.2531576,63.9029079 51.2485366,63.9029079 L51.2424937,63.9029079 C51.2378727,63.9029079 51.2336071,63.9025552 51.2289861,63.9025552 L51.2225877,63.9025552 C51.2179667,63.9022026 51.2129902,63.9022026 51.2083692,63.9022026 C51.2069473,63.9022026 51.2048146,63.9022026 51.2030372,63.9018499 C51.1980607,63.9018499 51.1930842,63.9018499 51.1877523,63.9014972 L51.1834867,63.9014972 C51.1777993,63.9014972 51.1717564,63.9011446 51.166069,63.9011446 L51.1639362,63.9011446 C51.1436748,63.9004392 51.1234133,63.8997339 51.1027964,63.8993813 C51.0960426,63.8990286 51.0896442,63.8986759 51.0828904,63.8986759 L51.0814686,63.8986759 C51.0754257,63.8983233 51.0690273,63.8979706 51.0629844,63.8979706 L51.0608517,63.8979706 C51.0544533,63.8976179 51.048055,63.8972653 51.0420121,63.8972653 L51.0413011,63.8972653 C49.4388697,63.837665 47.9224605,63.4493818 46.5567681,62.7990692 L46.5560571,62.7990692 C42.8009361,61.0107095 40.1893425,57.2368507 40.1018984,52.8490038 C42.0533954,53.9556638 44.3130797,54.5883432 46.7217033,54.5883432 C51.7415651,54.5883432 56.1144825,51.8407371 58.396561,47.7794571 C59.3929264,48.2350991 60.5016185,48.4890173 61.6707394,48.4890173 C61.7997728,48.4890173 61.9280953,48.486196 62.0557068,48.479848 C62.0621052,48.4960706 62.0685035,48.5119405 62.0749019,48.528163 L62.0731245,48.5320423 C62.5608211,49.775536 62.8352392,51.1241236 62.8459032,52.5365434 L62.8459032,52.5372487 L62.8459032,52.5527659 L62.8459032,52.5569979 L62.8459032,52.5693412 C62.8462586,52.5714571 62.8462586,52.5739258 62.8462586,52.5756891 L62.8462586,52.5866217 L62.8462586,52.5954383 L62.8462586,52.6039022 L62.8462586,52.6211828 C62.8462586,58.8531104 57.7545931,63.9050239 51.4731898,63.9050239" id="Fill-252" fill="#8ECE60"></path>
                    <path d="M61.6488339,48.3767003 C60.4872691,48.3767003 59.3857426,48.1229695 58.3958168,47.6676638 C55.7234055,46.4381267 53.8682217,43.7415324 53.8682217,40.6125385 C53.8682217,37.7140168 55.4595901,35.1869288 57.8180363,33.8530802 C58.9492288,33.2134672 60.2562982,32.8483768 61.6488339,32.8483768 C62.6567712,32.8483768 63.6198564,33.0397321 64.5038322,33.3875547 C66.0224484,33.9852316 67.3072683,35.0459672 68.1834745,36.3949692 C68.182415,36.3963788 68.1810023,36.3977884 68.1795896,36.399198 C68.9583219,37.5987808 69.4195574,39.0242544 69.4301524,40.5579159 L69.4301524,40.5920991 L69.4301524,40.596328 L69.4301524,40.6125385 L69.4301524,40.6248727 L69.4301524,40.6266347 L69.4301524,40.6375592 L69.4301524,40.6403784 L69.4301524,40.6495409 L69.4301524,40.6551794 L69.4301524,40.6618751 L69.4301524,40.669628 L69.4301524,40.6738568 L69.4301524,40.6816097 C69.4301524,40.6833717 69.4297992,40.6847813 69.4297992,40.6861909 L69.4297992,40.6942962 L69.4297992,40.6985251 L69.4297992,40.706278 L69.4297992,40.7108592 C69.4297992,40.713326 69.429446,40.7164977 69.429446,40.7193169 L69.429446,40.7224885 L69.429446,40.7309462 L69.429446,40.7351751 C69.429446,40.7379943 69.4290929,40.7404611 69.4290929,40.742928 L69.4290929,40.7475092 L69.4290929,40.7552621 L69.4290929,40.7594909 C69.4287397,40.7626626 69.4287397,40.7651294 69.4287397,40.768301 L69.4287397,40.7714727 C69.4287397,40.7742919 69.4287397,40.7774635 69.4283865,40.7802828 L69.4283865,40.7834544 L69.4283865,40.7929693 C69.4283865,40.7940265 69.4280334,40.7943789 69.4280334,40.7954361 L69.4280334,40.804951 L69.4280334,40.8074179 C69.4276802,40.8112943 69.4276802,40.814466 69.4276802,40.8183424 C69.3220834,44.8678151 66.106502,48.1360085 62.077578,48.3555561 L62.0729869,48.3654234 C62.0592134,48.3661282 62.0454399,48.366833 62.0313132,48.3675378 C61.9045264,48.3738811 61.7770333,48.3767003 61.6488339,48.3767003" id="Fill-257" fill="#528C28"></path>
                </g>
                <g id="Group-11" transform="translate(1089.060781, 85.158273)">
                    <path d="M31.2547614,56.8473124 C31.6715373,47.1155861 34.3601052,12.1794669 28.8406316,5.95330254 C23.3204975,-0.27319008 12.7468729,-2.37232505 5.85520921,3.34661945 C-1.03678474,9.06622055 4.01769643,38.7623815 3.40409133,45.5331916 C2.79081648,52.3040017 3.63757831,72.3974574 20.4380727,68.9227554 C24.5014726,68.0823135 30.8383158,66.5800236 31.2547614,56.8473124 Z" id="Fill-258" fill="#528C28"></path>
                    <path d="M24.943151,61.6610241 C28.5705982,61.4273532 31.6636064,60.3700337 33.0063102,56.536505 C34.3480231,52.7029762 34.7860121,45.4641497 30.1448482,42.6368974 C25.5043451,39.8093136 18.9668805,42.6368974 17.6856141,46.2559792 C16.4036871,49.875061 15.7945983,62.2486816 24.943151,61.6610241" id="Fill-259" fill="#8ECE60"></path>
                    <path d="M7.9851541,25.086145 C11.6125012,24.8217777 14.7054241,23.6213714 16.0477605,19.2700641 C17.3904272,14.9184259 17.8277435,6.70087062 13.1867078,3.49173597 C8.54633265,0.28094695 2.0090485,3.49173597 0.72748714,7.59985184 C-0.554404522,11.7079677 -1.16314617,25.7541771 7.9851541,25.086145" id="Fill-266" fill="#8ECE60"></path>
                    <path d="M33.8465501,32.5400342 C34.7558741,29.5350741 35.0523369,23.8616649 31.9086096,21.6456177 C28.7645609,19.4289138 24.3365903,21.6456177 23.4681023,24.4824864 C22.5999359,27.3183703 22.187396,37.0174345 28.3848184,36.5561684 C30.842051,36.3736317 32.9372261,35.5446659 33.8465501,32.5400342 Z" id="Fill-267" fill="#D3DC4E"></path>
                    <path d="M6.50348701,46.9273534 C8.96071964,46.7448168 11.0558947,45.9165077 11.9652187,42.9118762 C12.8745427,39.9069165 13.1710054,34.2328512 10.0272782,32.0168042 C6.88355099,29.8001006 2.4549374,32.0168042 1.58677093,34.8536727 C0.718604467,37.6905411 0.306064625,47.3886195 6.50348701,46.9273534" id="Fill-268" fill="#D3DC4E"></path>
                    <path d="M18.0520984,27.6121168 C18.0520984,27.6121168 9.23603173,27.9689558 10.4223905,19.6506693 L8.22019137,20.3378911 C8.22019137,20.3378911 7.40295871,27.8515151 17.9585776,29.476004 L18.0520984,27.6121168" id="Fill-261" fill="#794D3D"></path>
                    <path d="M18.0520984,52.1753922 C18.0520984,52.1753922 9.23603173,52.532243 10.4223905,44.214006 L8.22019137,44.9009276 C8.22019137,44.9009276 7.40295871,52.4151211 17.9585776,54.0393407 L18.0520984,52.1753922" id="Fill-262" fill="#794D3D"></path>
                    <polygon id="Fill-260" fill="#794D3D" points="15.316932 86.2446043 17.1970571 23.4716328 18.9074846 23.4716328 20.7872648 86.2446043"></polygon>
                    <path d="M18.0520984,36.2990416 L18.1015094,35.8125769 C18.1015094,35.8125769 18.556292,35.8949958 19.2598102,35.9246151 C19.4124128,35.9307321 19.57678,35.9345955 19.7508948,35.9345955 C22.0728746,35.9345955 26.1081043,35.2430493 26.8617057,30.5677079 C27.2966567,30.6993849 27.7773213,30.7702137 28.3084053,30.7702137 C28.4512601,30.7705356 28.5971402,30.7653845 28.7473899,30.7547602 C28.8297415,30.7489651 28.9114209,30.7425261 28.9927641,30.7354432 C28.7557931,31.8616204 25.5195422,35.7188898 25.5195422,35.7188898 L24.0362046,36.5198986 C24.0362046,36.5198986 21.2412912,37.4632088 19.3098935,37.6077638 C18.9075469,37.637705 18.488394,37.657022 18.0520984,37.6637829 L18.0520984,36.2990416 Z" id="Fill-274" fill="#794D3D"></path>
                    <path d="M18.0888833,58.4061561 L18.0520984,56.4676291 C18.0520984,56.4676291 18.0687879,56.4683013 18.1004637,56.4683013 C18.2537341,56.4683013 18.7588453,56.4535136 19.405987,56.2797587 C21.2033379,55.7971434 24.0984455,54.0881612 23.6035524,48.0621922 L25.1580549,48.0349695 C25.1580549,48.0349695 25.5609857,55.483914 19.4543523,57.9658873 C19.031326,58.1379618 18.5769644,58.2858384 18.0888833,58.4061561" id="Fill-276" fill="#794D3D"></path>
                </g>
                <path d="M1167.48915,158.625899 C1160.41752,158.625899 1154.68452,164.346258 1154.68452,171.402878 L1180.29378,171.402878 C1180.29378,164.346258 1174.56125,158.625899 1167.48915,158.625899" id="Fill-280" fill="#848484"></path>
                <path d="M1156.685,163.417266 C1152.48644,163.417266 1149.08249,166.992522 1149.08249,171.402878 L1164.28799,171.402878 C1164.28799,166.992522 1160.88404,163.417266 1156.685,163.417266" id="Fill-281" fill="#E4E4E4"></path>
                <path d="M1164.28823,165.81295 C1161.19378,165.81295 1158.68596,168.316005 1158.68596,171.402878 L1169.89001,171.402878 C1169.89001,168.316005 1167.38269,165.81295 1164.28823,165.81295" id="Fill-282" fill="#848484"></path>
                <path d="M1179.89363,166.611511 C1177.02105,166.611511 1174.69175,168.756541 1174.69175,171.402878 L1185.09551,171.402878 C1185.09551,168.756541 1182.76621,166.611511 1179.89363,166.611511" id="Fill-283" fill="#E4E4E4"></path>
                <path d="M1325.94694,162.618705 C1321.08529,162.618705 1317.14327,166.550984 1317.14327,171.402878 L1334.74964,171.402878 C1334.74964,166.550984 1330.80858,162.618705 1325.94694,162.618705" id="Fill-284" fill="#848484"></path>
                <path d="M1318.34394,165.81295 C1315.47135,165.81295 1313.14182,168.316137 1313.14182,171.402878 L1323.54559,171.402878 C1323.54559,168.316137 1321.21653,165.81295 1318.34394,165.81295" id="Fill-285" fill="#E4E4E4"></path>
                <path d="M1323.14521,167.410072 C1321.15697,167.410072 1319.54414,169.197842 1319.54414,171.402878 L1326.74674,171.402878 C1326.74674,169.197842 1325.13391,167.410072 1323.14521,167.410072" id="Fill-286" fill="#848484"></path>
                <path d="M1334.34899,168.208633 C1332.36063,168.208633 1330.74819,169.638813 1330.74819,171.402878 L1337.9508,171.402878 C1337.9508,169.638813 1336.33886,168.208633 1334.34899,168.208633" id="Fill-287" fill="#E4E4E4"></path>
                <g id="Group-20" transform="translate(965.015919, 132.273381)">
                    <polyline id="Fill-288" fill="#794D3D" points="10.2297867 39.1294964 13.0713941 39.1294964 12.7240653 24.3850485 10.7326501 24.3850485 10.2297867 39.1294964"></polyline>
                    <path d="M23.3011808,15.3684071 C23.3011808,23.8560326 18.0847645,27.7876134 11.6505904,27.7876134 C5.21607369,27.7876134 0,23.8560326 0,15.3684071 C0,6.88043813 5.21607369,0 11.6505904,0 C18.0847645,0 23.3011808,6.88043813 23.3011808,15.3684071" id="Fill-291" fill="#D3DC4E"></path>
                    <path d="M11.9347511,32.8914607 L11.9347511,31.2729644 C12.2851314,31.178796 12.7282883,31.0310187 13.1882241,30.8031807 C14.3420114,30.2314695 15.6017352,29.1564691 15.7685359,27.1669424 C16.2090609,27.022692 16.6370841,26.8516371 17.0496445,26.6534251 C16.8709999,28.2278352 16.0886486,30.6130806 13.2224396,32.2615556 L13.2227686,32.2654352 L13.2224396,32.2654352 C12.8329089,32.4893937 12.4052147,32.6992445 11.9347511,32.8914607" id="Fill-297" fill="#794D3D"></path>
                </g>
                <path d="M1285.13169,164.284332 C1285.06435,164.076312 1285.00438,163.860255 1284.94765,163.63947 C1284.47209,163.494801 1283.98131,163.417266 1283.47899,163.417266 C1280.14361,163.417266 1277.31699,166.765919 1276.32851,171.402878 L1280.56289,171.402878 C1281.74511,168.562929 1283.30371,166.134294 1285.13169,164.284332" id="Fill-299" fill="#848484"></path>
                <path d="M1293.85266,162.773079 C1295.61086,159.45443 1298.18298,157.092462 1301.13748,156.30951 C1299.69647,152.457498 1296.88257,149.841727 1293.64638,149.841727 C1288.94389,149.841727 1285.13169,155.36594 1285.13169,162.180714 C1285.13169,163.603327 1285.30002,164.864853 1285.60652,165.973255 C1285.66635,166.19147 1285.7296,166.405471 1285.80063,166.611511 C1288.13728,164.390025 1290.8894,163.009557 1293.85266,162.773079" id="Fill-300" fill="#E4E4E4"></path>
                <path d="M1293.93488,160.064721 C1294.23007,160.039366 1294.52669,160.02425 1294.82663,160.02425 C1300.4738,160.02425 1305.43329,164.560878 1308.27324,171.402878 L1314.73433,171.402878 C1314.73766,171.262449 1314.7424,171.124458 1314.7424,170.981592 C1314.7424,161.07064 1309.548,153.035971 1303.14006,153.035971 C1302.42295,153.035971 1301.7215,153.14178 1301.04141,153.334382 C1298.15922,154.149649 1295.65005,156.609102 1293.93488,160.064721" id="Fill-301" fill="#848484"></path>
                <path d="M1294.73565,160.223022 C1294.43218,160.223022 1294.13208,160.237873 1293.83342,160.262785 C1290.90875,160.504722 1288.19247,161.917055 1285.88625,164.189341 C1283.98337,166.063989 1282.3609,168.525032 1281.13025,171.402878 L1308.34009,171.402878 C1305.4668,164.6804 1300.4491,160.223022 1294.73565,160.223022" id="Fill-302" fill="#E4E4E4"></path>
                <path d="M1401.17318,163.417266 C1396.75337,163.417266 1393.17077,166.992612 1393.17077,171.402878 L1409.17656,171.402878 C1409.17656,166.992612 1405.59395,163.417266 1401.17318,163.417266" id="Fill-316" fill="#848484"></path>
                <path d="M1394.77111,166.611511 C1392.11971,166.611511 1389.96961,168.756856 1389.96961,171.402878 L1399.57308,171.402878 C1399.57308,168.756856 1397.42299,166.611511 1394.77111,166.611511" id="Fill-317" fill="#E4E4E4"></path>
                <path d="M1002.19369,166.896609 C1001.70082,166.896609 1001.22719,166.981948 1000.78313,167.132602 C999.632153,165.83488 997.969524,165.014388 996.114438,165.014388 C992.640847,165.014388 989.824891,167.874906 989.824891,171.402878 L1006.63097,171.402878 C1006.63097,168.914227 1004.64492,166.896609 1002.19369,166.896609" id="Fill-320" fill="#848484"></path>
                <g id="Group-25" transform="translate(921.000000, 138.661871)">
                    <polyline id="Fill-321" fill="#794D3D" points="16.8060781 32.7410072 19.2069465 32.7410072 18.9141129 15.1726619 17.2313513 15.1726619 16.8060781 32.7410072"></polyline>
                    <path d="M18.4621382,20.9946586 C18.4621382,20.9946586 26.4655548,20.1621566 24.2568983,12.7769784 L26.3384524,13.1113642 C26.3384524,13.1113642 27.7098471,20.3021435 18.406657,23.1582734 L18.4621382,20.9946586" id="Fill-322" fill="#794D3D"></path>
                    <path d="M13.6188847,10.9289215 C13.6188847,10.9289215 12.3256446,16.7999645 18.406657,16.9698504 L17.656021,18.3669065 C17.656021,18.3669065 11.9217285,17.649394 12.005245,10.381295 L13.6188847,10.9289215" id="Fill-323" fill="#794D3D"></path>
                    <path d="M6.4759802,11.1798561 C6.4759802,11.1798561 8.18830894,16.6852532 13.5838733,14.202828 L13.6049204,15.7040887 C13.6049204,15.7040887 8.24694004,17.5748547 4.80173661,11.4150381 L6.4759802,11.1798561" id="Fill-324" fill="#794D3D"></path>
                    <path d="M24.1088046,18.9098984 C24.1088046,18.9098984 29.2605825,21.7128429 30.8924013,15.971223 L32.0115774,17.0590669 C32.0115774,17.0590669 29.9539647,22.3246303 23.2083936,20.2986459 L24.1088046,18.9098984" id="Fill-325" fill="#794D3D"></path>
                    <path d="M16.8060781,7.78051096 C16.8060781,11.1950776 14.8350637,12.7769784 12.4044863,12.7769784 C9.97344462,12.7769784 8.00289436,11.1950776 8.00289436,7.78051096 C8.00289436,4.36544875 9.97344462,1.5971223 12.4044863,1.5971223 C14.8350637,1.5971223 16.8060781,4.36544875 16.8060781,7.78051096" id="Fill-326" fill="#8ECE60"></path>
                    <path d="M11.2040521,7.06679645 C11.2040521,10.9694118 8.69618686,12.7769784 5.60227105,12.7769784 C2.50835525,12.7769784 0,10.9694118 0,7.06679645 C0,3.16371138 2.50835525,0 5.60227105,0 C8.69618686,0 11.2040521,3.16371138 11.2040521,7.06679645" id="Fill-327" fill="#528C28"></path>
                    <path d="M29.6107091,10.1763998 C29.6107091,13.5905285 27.1023539,15.1726619 24.0084381,15.1726619 C20.9145223,15.1726619 18.406657,13.5905285 18.406657,10.1763998 C18.406657,6.76129516 20.9145223,3.99280576 24.0084381,3.99280576 C27.1023539,3.99280576 29.6107091,6.76129516 29.6107091,10.1763998" id="Fill-328" fill="#D3DC4E"></path>
                    <path d="M21.6078148,12.7593196 C21.6078148,14.954834 19.9952913,15.971223 18.0062734,15.971223 C16.0172555,15.971223 14.4052098,14.954834 14.4052098,12.7593196 C14.4052098,10.5638051 16.0172555,8.78417266 18.0062734,8.78417266 C19.9952913,8.78417266 21.6078148,10.5638051 21.6078148,12.7593196" id="Fill-329" fill="#114E2E"></path>
                    <path d="M36.0130246,14.4406286 C36.0130246,17.1240847 34.0418257,18.3669065 31.6106803,18.3669065 C29.1805382,18.3669065 27.2098408,17.1240847 27.2098408,14.4406286 C27.2098408,11.757672 29.1805382,9.58273381 31.6106803,9.58273381 C34.0418257,9.58273381 36.0130246,11.757672 36.0130246,14.4406286" id="Fill-330" fill="#8ECE60"></path>
                </g>
                <path d="M985.202123,168.022626 C985.578352,168.022626 985.939255,168.087374 986.276921,168.20056 C987.153964,167.22736 988.420584,166.611511 989.834532,166.611511 C992.480987,166.611511 994.626628,168.757098 994.626628,171.402878 L981.821997,171.402878 C981.821997,169.536548 983.334822,168.022626 985.202123,168.022626" id="Fill-331" fill="#E4E4E4"></path>
                <path d="M1358.75855,168.208633 C1356.99033,168.208633 1355.55716,169.638602 1355.55716,171.402878 L1361.95948,171.402878 C1361.95948,169.638602 1360.52631,168.208633 1358.75855,168.208633" id="Fill-318" fill="#E4E4E4"></path>
                <g id="Group" transform="translate(686.000000, 149.000000)">
                    <path d="M93.16184,19.2086331 C91.3940693,19.2086331 89.9609262,20.6390589 89.9609262,22.4028777 L96.3632417,22.4028777 C96.3632417,20.6390589 94.9305864,19.2086331 93.16184,19.2086331" id="Fill-319" fill="#848484"></path>
                    <path d="M49.9469361,13.618705 C45.0852895,13.618705 41.1432706,17.5509839 41.1432706,22.4028777 L58.7496382,22.4028777 C58.7496382,17.5509839 54.8085828,13.618705 49.9469361,13.618705" id="Fill-284" fill="#848484"></path>
                    <path d="M42.3439409,16.8129496 C39.4713483,16.8129496 37.1418234,19.3161373 37.1418234,22.4028777 L47.5455861,22.4028777 C47.5455861,19.3161373 45.2165335,16.8129496 42.3439409,16.8129496" id="Fill-285" fill="#E4E4E4"></path>
                    <path d="M47.1452097,18.4100719 C45.1569737,18.4100719 43.5441389,20.1978417 43.5441389,22.4028777 L50.7467438,22.4028777 C50.7467438,20.1978417 49.1339091,18.4100719 47.1452097,18.4100719" id="Fill-286" fill="#848484"></path>
                    <path d="M58.3489949,19.2086331 C56.3606252,19.2086331 54.748191,20.6388127 54.748191,22.4028777 L61.9507959,22.4028777 C61.9507959,20.6388127 60.3388603,19.2086331 58.3489949,19.2086331" id="Fill-287" fill="#E4E4E4"></path>
                    <path d="M9.1316932,15.2843322 C9.06434896,15.076312 9.00438491,14.8602546 8.94764969,14.6394696 C8.47208865,14.494801 7.98130596,14.4172662 7.47899173,14.4172662 C4.14360677,14.4172662 1.31699371,17.7659185 0.328509407,22.4028777 L4.56289386,22.4028777 C5.74510816,19.5629293 7.3037122,17.1342936 9.1316932,15.2843322" id="Fill-299" fill="#848484"></path>
                    <path d="M17.8526588,13.773079 C19.6108631,10.4544299 22.1829787,8.09246207 25.1374819,7.30951002 C23.6964744,3.45749827 20.8825692,0.841726619 17.6463836,0.841726619 C12.9438926,0.841726619 9.1316932,6.3659404 9.1316932,13.1807139 C9.1316932,14.6033266 9.30002155,15.8648534 9.60651538,16.973255 C9.66635465,17.1914701 9.72959941,17.4054708 9.80062814,17.6115108 C12.1372787,15.3900248 14.8893987,14.0095567 17.8526588,13.773079" id="Fill-300" fill="#E4E4E4"></path>
                    <path d="M17.934877,11.0647213 C18.230073,11.0393661 18.5266929,11.0242505 18.8266349,11.0242505 C24.4738019,11.0242505 29.4332855,15.5608783 32.2732424,22.4028777 L38.7343343,22.4028777 C38.7376564,22.262449 38.7424023,22.1244583 38.7424023,21.9815915 C38.7424023,12.0706395 33.5479958,4.03597122 27.1400582,4.03597122 C26.4229501,4.03597122 25.7215035,4.14178036 25.0414136,4.33438226 C22.159218,5.149649 19.6500515,7.60910201 17.934877,11.0647213" id="Fill-301" fill="#848484"></path>
                    <path d="M18.7356466,11.2230216 C18.432184,11.2230216 18.1320825,11.2378731 17.8334215,11.2627854 C14.9087526,11.5047218 12.1924741,12.9170553 9.88625423,15.189341 C7.98337078,17.0639886 6.36090216,19.5250325 5.13024602,22.4028777 L32.3400868,22.4028777 C29.4667952,15.6803999 24.4490986,11.2230216 18.7356466,11.2230216" id="Fill-302" fill="#E4E4E4"></path>
                    <path d="M82.758548,19.2086331 C80.9903283,19.2086331 79.5571635,20.6386015 79.5571635,22.4028777 L85.959479,22.4028777 C85.959479,20.6386015 84.5263143,19.2086331 82.758548,19.2086331" id="Fill-318" fill="#E4E4E4"></path>
                </g>
                <g id="Group-10" transform="translate(225.503251, 52.000000)">
                    <polygon id="Fill-3974-Copy" fill="#D3DC4E" points="2.99739922 15.5293317 23.4474551 15.5293317 23.4474551 6.58910891 2.99739922 6.58910891"></polygon>
                    <polygon id="Fill-3975-Copy" fill="#8FDDDD" points="0 118.800436 27.6929714 118.800436 27.6929714 14.3762376 0 14.3762376"></polygon>
                    <polygon id="Fill-3976-Copy" fill="#FFFFFF" points="2.39791938 27.588 6.65842263 27.588 6.65842263 17.3712871 2.39791938 17.3712871"></polygon>
                    <polygon id="Fill-3977-Copy" fill="#5878A4" points="8.39271782 27.588 12.6532211 27.588 12.6532211 17.3712871 8.39271782 17.3712871"></polygon>
                    <polygon id="Fill-3978-Copy" fill="#8FDDDD" points="14.9869961 27.588 19.2474993 27.588 19.2474993 17.3712871 14.9869961 17.3712871"></polygon>
                    <polygon id="Fill-3979-Copy" fill="#FFFFFF" points="21.5812744 27.588 25.8411782 27.588 25.8411782 17.3712871 21.5812744 17.3712871"></polygon>
                    <polygon id="Fill-3980-Copy" fill="#FFFFFF" points="2.39791938 40.7662178 6.65842263 40.7662178 6.65842263 30.549505 2.39791938 30.549505"></polygon>
                    <polygon id="Fill-3981-Copy" fill="#FFFFFF" points="8.39271782 40.7662178 12.6532211 40.7662178 12.6532211 30.549505 8.39271782 30.549505"></polygon>
                    <polygon id="Fill-3982-Copy" fill="#5878A4" points="14.9869961 40.7662178 19.2474993 40.7662178 19.2474993 30.549505 14.9869961 30.549505"></polygon>
                    <polygon id="Fill-3983-Copy" fill="#FFFFFF" points="21.5812744 40.7662178 25.8411782 40.7662178 25.8411782 30.549505 21.5812744 30.549505"></polygon>
                    <polygon id="Fill-3984-Copy" fill="#FFFFFF" points="2.39791938 53.9444356 6.65842263 53.9444356 6.65842263 43.7277228 2.39791938 43.7277228"></polygon>
                    <polygon id="Fill-3985-Copy" fill="#FFFFFF" points="8.39271782 53.9450347 12.6532211 53.9450347 12.6532211 43.7277228 8.39271782 43.7277228"></polygon>
                    <polygon id="Fill-3986-Copy" fill="#D3DC4E" points="14.9869961 53.9444356 19.2474993 53.9444356 19.2474993 43.7277228 14.9869961 43.7277228"></polygon>
                    <polygon id="Fill-3987-Copy" fill="#FFFFFF" points="21.5812744 53.9444356 25.8411782 53.9444356 25.8411782 43.7277228 21.5812744 43.7277228"></polygon>
                    <polygon id="Fill-3988-Copy" fill="#FFFFFF" points="2.39791938 67.1232525 6.65842263 67.1232525 6.65842263 56.9059406 2.39791938 56.9059406"></polygon>
                    <polygon id="Fill-3989-Copy" fill="#8FDDDD" points="8.39271782 67.1232525 12.6532211 67.1232525 12.6532211 56.9059406 8.39271782 56.9059406"></polygon>
                    <polygon id="Fill-3990-Copy" fill="#FFFFFF" points="14.9869961 67.1232525 19.2474993 67.1232525 19.2474993 56.9059406 14.9869961 56.9059406"></polygon>
                    <polygon id="Fill-3991-Copy" fill="#8FDDDD" points="21.5812744 67.1232525 25.8411782 67.1232525 25.8411782 56.9059406 21.5812744 56.9059406"></polygon>
                    <polygon id="Fill-3992-Copy" fill="#FFFFFF" points="2.39791938 80.3008713 6.65842263 80.3008713 6.65842263 70.0841584 2.39791938 70.0841584"></polygon>
                    <polygon id="Fill-3993-Copy" fill="#5878A4" points="8.39271782 80.3008713 12.6532211 80.3008713 12.6532211 70.0841584 8.39271782 70.0841584"></polygon>
                    <polygon id="Fill-3994-Copy" fill="#FFFFFF" points="14.9869961 80.3008713 19.2474993 80.3008713 19.2474993 70.0841584 14.9869961 70.0841584"></polygon>
                    <polygon id="Fill-3995-Copy" fill="#D3DC4E" points="21.5812744 80.3008713 25.8411782 80.3008713 25.8411782 70.0841584 21.5812744 70.0841584"></polygon>
                    <polygon id="Fill-3996-Copy" fill="#D3DC4E" points="11.390117 8.93962376 20.7629844 8.93962376 20.7629844 0 11.390117 0"></polygon>
                </g>
                <g id="Group-13" transform="translate(354.035111, 92.732673)">
                    <polygon id="Fill-4019-Copy" fill="#5878A4" points="0 77.4885198 33.0978817 77.4885198 33.0978817 -1.13686838e-13 0 -1.13686838e-13"></polygon>
                    <polygon id="Fill-4020-Copy" fill="#8FDDDD" points="0 15.8731634 33.3316788 15.8731634 33.3316788 13.1782178 0 13.1782178"></polygon>
                    <polygon id="Fill-4021-Copy" fill="#8FDDDD" points="0 20.6652426 33.3316788 20.6652426 33.3316788 17.970297 0 17.970297"></polygon>
                    <polygon id="Fill-4022-Copy" fill="#8FDDDD" points="0 25.4573218 33.3316788 25.4573218 33.3316788 22.7623762 0 22.7623762"></polygon>
                    <polygon id="Fill-4023-Copy" fill="#8FDDDD" points="0 30.8484109 33.3316788 30.8484109 33.3316788 28.1534653 0 28.1534653"></polygon>
                    <polygon id="Fill-4024-Copy" fill="#8FDDDD" points="0 35.6404901 33.3316788 35.6404901 33.3316788 32.9455446 0 32.9455446"></polygon>
                    <polygon id="Fill-4025-Copy" fill="#8FDDDD" points="0 41.0315792 33.3316788 41.0315792 33.3316788 38.3366337 0 38.3366337"></polygon>
                    <polygon id="Fill-4026-Copy" fill="#8FDDDD" points="0 45.8236584 33.3316788 45.8236584 33.3316788 43.1287129 0 43.1287129"></polygon>
                    <polygon id="Fill-4027-Copy" fill="#8FDDDD" points="0 51.2153465 33.3316788 51.2153465 33.3316788 48.519802 0 48.519802"></polygon>
                    <polygon id="Fill-4028-Copy" fill="#8FDDDD" points="0 56.6058366 33.3316788 56.6058366 33.3316788 53.9108911 0 53.9108911"></polygon>
                </g>
                <g id="Group-5" transform="translate(38.960988, 56.792079)">
                    <polygon id="Fill-3997-Copy" fill="#5878A4" points="4.19635891 5.99009901 26.976593 5.99009901 26.976593 0 4.19635891 0"></polygon>
                    <polygon id="Fill-4008-Copy" fill="#5878A4" points="1.79843953 113.811881 29.9739922 113.811881 29.9739922 8.38613861 1.79843953 8.38613861"></polygon>
                    <polygon id="Fill-4009-Copy" fill="#8FDDDD" points="1.19895969 22.7623762 29.9739922 22.7623762 29.9739922 19.1683168 1.19895969 19.1683168"></polygon>
                    <polygon id="Fill-4010-Copy" fill="#8FDDDD" points="1.19895969 29.3514851 29.9739922 29.3514851 29.9739922 25.7574257 1.19895969 25.7574257"></polygon>
                    <polygon id="Fill-4011-Copy" fill="#8FDDDD" points="1.19895969 36.539604 29.9739922 36.539604 29.9739922 32.9455446 1.19895969 32.9455446"></polygon>
                    <polygon id="Fill-4012-Copy" fill="#8FDDDD" points="1.19895969 43.1287129 29.9739922 43.1287129 29.9739922 39.5346535 1.19895969 39.5346535"></polygon>
                    <polygon id="Fill-4013-Copy" fill="#8FDDDD" points="1.19895969 50.3168317 29.9739922 50.3168317 29.9739922 46.7227723 1.19895969 46.7227723"></polygon>
                    <polygon id="Fill-4014-Copy" fill="#8FDDDD" points="1.19895969 56.9059406 29.9739922 56.9059406 29.9739922 53.3118812 1.19895969 53.3118812"></polygon>
                    <polygon id="Fill-4015-Copy" fill="#8FDDDD" points="1.19895969 64.0940594 29.9739922 64.0940594 29.9739922 60.5 1.19895969 60.5"></polygon>
                    <polygon id="Fill-4016-Copy" fill="#8FDDDD" points="1.19895969 70.6831683 29.9739922 70.6831683 29.9739922 67.0891089 1.19895969 67.0891089"></polygon>
                    <polygon id="Fill-4017-Copy" fill="#8FDDDD" points="1.19895969 77.8712871 29.9739922 77.8712871 29.9739922 74.2772277 1.19895969 74.2772277"></polygon>
                    <polygon id="Fill-4018-Copy" fill="#8FDDDD" points="1.19895969 85.6584158 29.9739922 85.6584158 29.9739922 82.0643564 1.19895969 82.0643564"></polygon>
                    <polygon id="Fill-4029-Copy" fill="#8FDDDD" points="0 13.7772277 31.1729519 13.7772277 31.1729519 4.79207921 0 4.79207921"></polygon>
                </g>
                <g id="Group-18" transform="translate(523.739922, 103.514851)">
                    <polygon id="Fill-4030-Copy" fill="#8FDDDD" points="0 66.8363267 23.4324681 66.8363267 23.4324681 0 0 0"></polygon>
                    <polygon id="Fill-4031-Copy" fill="#5878A4" points="8.99219766 66.8363267 23.6195059 66.8363267 23.6195059 0 8.99219766 0"></polygon>
                </g>
                <g id="Group-15" transform="translate(402.810143, 113.698020)">
                    <polygon id="Fill-4050-Copy" fill="#FFFFFF" points="0 56.3069307 25.7776333 56.3069307 25.7776333 0 0 0"></polygon>
                    <polygon id="Fill-4051-Copy" fill="#5878A4" points="3.59687906 7.78712871 9.5916775 7.78712871 9.5916775 3.59405941 3.59687906 3.59405941"></polygon>
                    <polygon id="Fill-4052-Copy" fill="#5878A4" points="3.59687906 14.9752475 9.5916775 14.9752475 9.5916775 10.7821782 3.59687906 10.7821782"></polygon>
                    <polygon id="Fill-4053-Copy" fill="#5878A4" points="3.59687906 22.1633663 9.5916775 22.1633663 9.5916775 17.970297 3.59687906 17.970297"></polygon>
                    <polygon id="Fill-4054-Copy" fill="#D3DC4E" points="3.59687906 29.3514851 9.5916775 29.3514851 9.5916775 25.1584158 3.59687906 25.1584158"></polygon>
                    <polygon id="Fill-4055-Copy" fill="#5878A4" points="3.59687906 36.539604 9.5916775 36.539604 9.5916775 32.3465347 3.59687906 32.3465347"></polygon>
                    <polygon id="Fill-4056-Copy" fill="#5878A4" points="3.59687906 43.7277228 9.5916775 43.7277228 9.5916775 39.5346535 3.59687906 39.5346535"></polygon>
                    <polygon id="Fill-4057-Copy" fill="#5878A4" points="3.59687906 50.9158416 9.5916775 50.9158416 9.5916775 46.7227723 3.59687906 46.7227723"></polygon>
                    <polygon id="Fill-4058-Copy" fill="#5878A4" points="13.7880364 7.78712871 19.7828349 7.78712871 19.7828349 3.59405941 13.7880364 3.59405941"></polygon>
                    <polygon id="Fill-4059-Copy" fill="#D3DC4E" points="13.7880364 14.9752475 19.7828349 14.9752475 19.7828349 10.7821782 13.7880364 10.7821782"></polygon>
                    <polygon id="Fill-4060-Copy" fill="#5878A4" points="13.7880364 22.1633663 19.7828349 22.1633663 19.7828349 17.970297 13.7880364 17.970297"></polygon>
                    <polygon id="Fill-4061-Copy" fill="#5878A4" points="13.7880364 29.3514851 19.7828349 29.3514851 19.7828349 25.1584158 13.7880364 25.1584158"></polygon>
                    <polygon id="Fill-4062-Copy" fill="#5878A4" points="13.7880364 36.539604 19.7828349 36.539604 19.7828349 32.3465347 13.7880364 32.3465347"></polygon>
                    <polygon id="Fill-4063-Copy" fill="#D3DC4E" points="13.7880364 43.7277228 19.7828349 43.7277228 19.7828349 39.5346535 13.7880364 39.5346535"></polygon>
                    <polygon id="Fill-4064-Copy" fill="#5878A4" points="13.7880364 50.9158416 19.7828349 50.9158416 19.7828349 46.7227723 13.7880364 46.7227723"></polygon>
                </g>
                <g id="Group-16" transform="translate(456.789337, 141.851485)">
                    <polygon id="Fill-4065-Copy" fill="#8FDDDD" points="0 28.256495 25.5060689 28.256495 25.5060689 0 0 0"></polygon>
                    <polygon id="Fill-4066-Copy" fill="#FFFFFF" points="2.99739922 22.6120248 7.98806892 22.6120248 7.98806892 5.99009901 2.99739922 5.99009901"></polygon>
                    <polygon id="Fill-4067-Copy" fill="#FFFFFF" points="10.1911573 22.6120248 15.181827 22.6120248 15.181827 5.99009901 10.1911573 5.99009901"></polygon>
                    <polygon id="Fill-4068-Copy" fill="#FFFFFF" points="17.9843953 22.6120248 22.9744655 22.6120248 22.9744655 5.99009901 17.9843953 5.99009901"></polygon>
                </g>
                <g id="Group-27" transform="translate(615.000000, 120.000000)">
                    <g id="Group-19" transform="translate(0.920676, 0.287129)">
                        <polygon id="Fill-4069-Copy" fill="#8FDDDD" points="0 50.2856832 25.5060689 50.2856832 25.5060689 0 0 0"></polygon>
                        <polygon id="Fill-4070-Copy" fill="#D3DC4E" points="2.99739922 40.3624851 7.98806892 40.3624851 7.98806892 10.7821782 2.99739922 10.7821782"></polygon>
                        <polygon id="Fill-4070-Copy" fill="#FFFFFF" points="10.1911573 40.3624851 15.181827 40.3624851 15.181827 10.7821782 10.1911573 10.7821782"></polygon>
                        <polygon id="Fill-4072-Copy" fill="#5878A4" points="17.9843953 40.3624851 22.9744655 40.3624851 22.9744655 10.7821782 17.9843953 10.7821782"></polygon>
                    </g>
                </g>
                <g id="Group-26" transform="translate(647.000000, 131.000000)">
                    <polygon id="Combined-Shape" fill="#E4E4E4" points="27.6017858 41.5064158 27.6017858 11.0150149 0.407156047 11.0150149 0.407156047 41.5064158"></polygon>
                    <path d="M27.444896,11.1953168 C26.5456762,5.31064356 20.8368296,0.773742574 13.8678765,0.773742574 C6.89892328,0.773742574 1.23144083,5.31064356 0.332221066,11.1953168 L27.444896,11.1953168 Z" id="Fill-1" fill="#E4E4E4"></path>
                    <polygon id="Fill-2" fill="#FFFFFF" points="7.97558908 38.3921634 12.4273264 38.3921634 12.4273264 35.2916881 7.97558908 35.2916881"></polygon>
                    <polygon id="Fill-3" fill="#5878A4" points="7.97558908 27.3380347 12.4273264 27.3380347 12.4273264 24.3735347 7.97558908 24.3735347"></polygon>
                    <polygon id="Fill-4" fill="#D3DC4E" points="7.97558908 32.9094257 12.4273264 32.9094257 12.4273264 29.9449257 7.97558908 29.9449257"></polygon>
                    <polygon id="Fill-5" fill="#848484" points="7.97558908 16.467203 12.4273264 16.467203 12.4273264 13.4110545 7.97558908 13.4110545"></polygon>
                    <polygon id="Fill-7" fill="#5878A4" points="7.97558908 22.0385941 12.4273264 22.0385941 12.4273264 19.0740941 7.97558908 19.0740941"></polygon>
                </g>
                <g id="Group-21" transform="translate(840.000000, 111.000000)">
                    <path d="M0.988141743,59.6039604 L0.988141743,6.58297117 L24.1049751,6.58297117 L24.1049751,59.6039604 L0.988141743,59.6039604 Z M3.48300512,6.55897137 L3.48300512,0.900990099 L6.65210101,0.900990099 L6.65210101,6.55897137 L3.48300512,6.55897137 Z" id="Combined-Shape" fill="#8FDDDD"></path>
                    <polygon id="Fill-10" fill="#5878A4" points="20.6221174 56.535414 13.6178164 56.535414 13.6178164 52.4386052 20.6221174 52.4386052"></polygon>
                    <polygon id="Fill-10" fill="#5878A4" points="20.6221174 49.2665221 13.6178164 49.2665221 13.6178164 45.1707283 20.6221174 45.1707283"></polygon>
                    <polygon id="Fill-10" fill="#5878A4" points="20.6221174 38.6722719 13.6178164 38.6722719 13.6178164 34.5764781 20.6221174 34.5764781"></polygon>
                    <polygon id="Fill-10" fill="#FFFFFF" points="20.6221174 31.4003347 13.6178164 31.4003347 13.6178164 27.3045409 20.6221174 27.3045409"></polygon>
                    <polygon id="Fill-10" fill="#5878A4" points="13.4076265 10.0676948 20.4119275 10.0676948 20.4119275 14.1634886 13.4076265 14.1634886"></polygon>
                    <polygon id="Fill-10" fill="#FFFFFF" points="13.4076265 17.3355718 20.4119275 17.3355718 20.4119275 21.4323806 13.4076265 21.4323806"></polygon>
                    <polygon id="Fill-10" fill="#8FDDDD" points="4.6811894 10.0676948 11.6854904 10.0676948 11.6854904 14.1634886 4.6811894 14.1634886"></polygon>
                    <polygon id="Fill-10" fill="#5878A4" points="4.6811894 17.3355718 11.6854904 17.3355718 11.6854904 21.4323806 4.6811894 21.4323806"></polygon>
                    <polygon id="Fill-10" fill="#FFFFFF" points="4.47506109 27.1015276 11.4793621 27.1015276 11.4793621 31.1983364 4.47506109 31.1983364"></polygon>
                    <polygon id="Fill-10" fill="#D3DC4E" points="4.47506109 34.3704196 11.4793621 34.3704196 11.4793621 38.4662133 4.47506109 38.4662133"></polygon>
                    <polygon id="Fill-10" fill="#8FDDDD" points="4.47506109 44.9646698 11.4793621 44.9646698 11.4793621 49.0604635 4.47506109 49.0604635"></polygon>
                    <polygon id="Fill-10" fill="#D3DC4E" points="4.47506109 52.2325467 11.4793621 52.2325467 11.4793621 56.3283405 4.47506109 56.3283405"></polygon>
                </g>
                <g id="Group-2" transform="translate(863.000000, 131.000000)">
                    <polygon id="Fill-2" fill="#848484" points="5.85709585 16.4760295 9.02619174 16.4760295 9.02619174 0.846033889 5.85709585 0.846033889"></polygon>
                    <polygon id="Fill-4" fill="#848484" points="18.3232895 16.4760295 21.4923853 16.4760295 21.4923853 0.846033889 18.3232895 0.846033889"></polygon>
                    <polygon id="Fill-7" fill="#848484" points="30.7894831 16.4760295 33.9585789 16.4760295 33.9585789 0.846033889 30.7894831 0.846033889"></polygon>
                    <polygon id="Fill-12" fill="#E4E4E4" points="26.5749945 16.494954 0.964313098 16.494954 0.964313098 39.6039604 41.5330052 39.6039604 41.5330052 16.494954"></polygon>
                    <polygon id="Fill-12" fill="#D3DC4E" points="11.4555335 33.4222048 4.45021703 33.4222048 4.45021703 29.326411 11.4555335 29.326411"></polygon>
                    <polygon id="Fill-12" fill="#D3DC4E" points="11.4555335 26.1502676 4.45021703 26.1502676 4.45021703 22.0544738 11.4555335 22.0544738"></polygon>
                    <polygon id="Fill-12" fill="#D3DC4E" points="20.1809551 33.4222048 13.1766541 33.4222048 13.1766541 29.326411 20.1809551 29.326411"></polygon>
                    <polygon id="Fill-12" fill="#D3DC4E" points="20.1809551 26.1502676 13.1766541 26.1502676 13.1766541 22.0544738 20.1809551 22.0544738"></polygon>
                    <polygon id="Fill-12" fill="#D3DC4E" points="28.9073922 33.4222048 21.9030912 33.4222048 21.9030912 29.326411 28.9073922 29.326411"></polygon>
                    <polygon id="Fill-12" fill="#D3DC4E" points="28.9073922 26.1502676 21.9030912 26.1502676 21.9030912 22.0544738 28.9073922 22.0544738"></polygon>
                    <polygon id="Fill-12" fill="#D3DC4E" points="38.0501475 33.6282633 31.0458465 33.6282633 31.0458465 29.5324695 38.0501475 29.5324695"></polygon>
                    <polygon id="Fill-12" fill="#D3DC4E" points="38.0501475 26.3563261 31.0458465 26.3563261 31.0458465 22.2605323 38.0501475 22.2605323"></polygon>
                </g>
                <g id="Group-12" transform="translate(323.244473, 129.871287)">
                    <polygon id="Fill-4073-Copy" fill="#8FDDDD" points="0 40.3786584 25.5060689 40.3786584 25.5060689 -1.13686838e-13 0 -1.13686838e-13"></polygon>
                    <polygon id="Fill-4075-Copy" fill="#D3DC4E" points="2.39791938 11.9047228 10.7151027 11.9047228 10.7151027 3.59405941 2.39791938 3.59405941"></polygon>
                    <polygon id="Fill-4076-Copy" fill="#FFFFFF" points="13.7880364 11.9047228 22.1052198 11.9047228 22.1052198 3.59405941 13.7880364 3.59405941"></polygon>
                    <polygon id="Fill-4077-Copy" fill="#FFFFFF" points="2.39791938 23.2859109 10.7151027 23.2859109 10.7151027 14.9752475 2.39791938 14.9752475"></polygon>
                    <polygon id="Fill-4078-Copy" fill="#D3DC4E" points="13.7880364 23.2859109 22.1052198 23.2859109 22.1052198 14.9752475 13.7880364 14.9752475"></polygon>
                    <polygon id="Fill-4079-Copy" fill="#FFFFFF" points="2.39791938 34.667099 10.7151027 34.667099 10.7151027 26.3564356 2.39791938 26.3564356"></polygon>
                    <polygon id="Fill-4080-Copy" fill="#FFFFFF" points="13.7880364 34.667099 22.1052198 34.667099 22.1052198 26.3564356 13.7880364 26.3564356"></polygon>
                </g>
                <g id="Group-14" transform="translate(273.626788, 156.826733)">
                    <polygon id="Fill-4074-Copy" fill="#8FDDDD" points="0 13.2345248 25.5060689 13.2345248 25.5060689 0 0 0"></polygon>
                    <polygon id="Fill-4081-Copy" fill="#FFFFFF" points="1.79843953 6.9634901 11.243844 6.9634901 11.243844 4.19306931 1.79843953 4.19306931"></polygon>
                    <polygon id="Fill-4082-Copy" fill="#FFFFFF" points="13.1885566 6.9634901 22.633961 6.9634901 22.633961 4.19306931 13.1885566 4.19306931"></polygon>
                </g>
                <g id="Group-3" transform="translate(0.000000, 130.470297)">
                    <polyline id="Fill-3857-Copy" fill="#D3DC4E" points="14.1399311 7.18811881 0 18.6262129 0 40.8297129 15.4869623 40.8297129 14.1399311 7.18811881"></polyline>
                    <polygon id="Fill-4083-Copy" fill="#8FDDDD" points="8.39271782 40.3786584 33.8987867 40.3786584 33.8987867 0 8.39271782 0"></polygon>
                    <polygon id="Fill-4085-Copy" fill="#FFFFFF" points="10.7906372 11.9047228 19.1078205 11.9047228 19.1078205 3.59405941 10.7906372 3.59405941"></polygon>
                    <polygon id="Fill-4086-Copy" fill="#FFFFFF" points="22.1807542 11.9047228 30.4985371 11.9047228 30.4985371 3.59405941 22.1807542 3.59405941"></polygon>
                    <polygon id="Fill-4087-Copy" fill="#FFFFFF" points="10.7906372 23.2859109 19.1078205 23.2859109 19.1078205 14.9752475 10.7906372 14.9752475"></polygon>
                    <polygon id="Fill-4088-Copy" fill="#D3DC4E" points="22.1807542 23.2859109 30.4985371 23.2859109 30.4985371 14.9752475 22.1807542 14.9752475"></polygon>
                    <polygon id="Fill-4089-Copy" fill="#FFFFFF" points="10.7906372 34.667099 19.1078205 34.667099 19.1078205 26.3564356 10.7906372 26.3564356"></polygon>
                    <polygon id="Fill-4090-Copy" fill="#D3DC4E" points="22.1807542 34.667099 30.4985371 34.667099 30.4985371 26.3564356 22.1807542 26.3564356"></polygon>
                </g>
                <g id="Group-6" transform="translate(54.165150, 157.425743)">
                    <polygon id="Fill-4084-Copy" fill="#5878A4" points="0 13.2345248 25.5066684 13.2345248 25.5066684 0 0 0"></polygon>
                    <polygon id="Fill-4091-Copy" fill-opacity="0.400000006" fill="#E1EA5E" points="1.79843953 6.9634901 11.243844 6.9634901 11.243844 4.19306931 1.79843953 4.19306931"></polygon>
                    <polygon id="Fill-4092-Copy" fill="#FFFFFF" points="13.1885566 6.9634901 22.633961 6.9634901 22.633961 4.19306931 13.1885566 4.19306931"></polygon>
                </g>
                <g id="Group-7" transform="translate(146.345904, 140.054455)">
                    <polygon id="Fill-4093-Copy" fill="#8FDDDD" points="0 30.6465446 25.5060689 30.6465446 25.5060689 0 0 0"></polygon>
                    <polygon id="Fill-4095-Copy" fill="#FFFFFF" points="2.99739922 13.7017525 11.3145826 13.7017525 11.3145826 5.39108911 2.99739922 5.39108911"></polygon>
                    <polygon id="Fill-4096-Copy" fill="#5878A4" points="13.7880364 13.7017525 22.1052198 13.7017525 22.1052198 5.39108911 13.7880364 5.39108911"></polygon>
                    <polygon id="Fill-4097-Copy" fill="#D3DC4E" points="2.99739922 25.0829406 11.3145826 25.0829406 11.3145826 16.7722772 2.99739922 16.7722772"></polygon>
                    <polygon id="Fill-4098-Copy" fill="#FFFFFF" points="13.7880364 25.0829406 22.1052198 25.0829406 22.1052198 16.7722772 13.7880364 16.7722772"></polygon>
                </g>
                <g id="Group-35" transform="translate(169.000000, 157.000000)">
                    <g id="Group-8" transform="translate(0.126138, 0.425743)">
                        <polygon id="Fill-4094-Copy" fill="#8FDDDD" points="0 13.2345248 25.5060689 13.2345248 25.5060689 0 0 0"></polygon>
                        <polygon id="Fill-4099-Copy" fill="#5878A4" points="1.79843953 6.9634901 11.243844 6.9634901 11.243844 4.19306931 1.79843953 4.19306931"></polygon>
                    </g>
                    <polygon id="Fill-4100-Copy" fill="#FFFFFF" points="13.3146944 7.38923267 22.7600988 7.38923267 22.7600988 4.61881188 13.3146944 4.61881188"></polygon>
                </g>
                <polyline id="Fill-3864-Copy" fill="#FFFFFF" points="150.136477 168.262431 149.482445 168.262431 150.136477 167.608911 150.136477 168.262431"></polyline>
                <g id="Group-34" transform="translate(270.000000, 71.000000)">
                    <polygon id="Fill-4121-Copy" fill="#5878A4" points="0.0819245774 67.2825842 31.1829389 67.2825842 31.1829389 23.529703 0.0819245774 23.529703"></polygon>
                    <polygon id="Fill-4144-Copy" fill="#5878A4" points="0.0819245774 99.578802 31.1829389 99.578802 31.1829389 66.0594059 0.0819245774 66.0594059"></polygon>
                    <polygon id="Fill-4122-Copy" fill="#D3DC4E" points="2.47984395 31.034099 7.59280754 31.034099 7.59280754 25.9257426 2.47984395 25.9257426"></polygon>
                    <polygon id="Fill-4125-Copy" fill="#5878A4" points="2.47984395 38.2222178 7.59220806 38.2222178 7.59220806 33.1138614 2.47984395 33.1138614"></polygon>
                    <polygon id="Fill-4129-Copy" fill="#D3DC4E" points="2.47984395 44.8113267 7.59280754 44.8113267 7.59280754 39.7029703 2.47984395 39.7029703"></polygon>
                    <polygon id="Fill-4133-Copy" fill="#D3DC4E" points="2.47984395 51.4004356 7.59280754 51.4004356 7.59280754 46.2920792 2.47984395 46.2920792"></polygon>
                    <polygon id="Fill-4137-Copy" fill="#D3DC4E" points="2.47984395 58.5885545 7.59280754 58.5885545 7.59280754 53.480198 2.47984395 53.480198"></polygon>
                    <polygon id="Fill-4141-Copy" fill="#D3DC4E" points="2.47984395 65.1776634 7.59280754 65.1776634 7.59280754 60.0693069 2.47984395 60.0693069"></polygon>
                    <polygon id="Fill-4145-Copy" fill="#5878A4" points="2.47984395 73.564401 7.59220806 73.564401 7.59220806 68.4554455 2.47984395 68.4554455"></polygon>
                    <polygon id="Fill-4149-Copy" fill="#D3DC4E" points="2.47984395 80.1535099 7.59280754 80.1535099 7.59280754 75.0445545 2.47984395 75.0445545"></polygon>
                    <polygon id="Fill-4153-Copy" fill="#5878A4" points="2.47984395 87.3410297 7.59220806 87.3410297 7.59220806 82.2326733 2.47984395 82.2326733"></polygon>
                    <polygon id="Fill-4157-Copy" fill="#D3DC4E" points="2.47984395 93.9307376 7.59280754 93.9307376 7.59280754 88.8217822 2.47984395 88.8217822"></polygon>
                    <polygon id="Fill-4161-Copy" fill="#FFFFFF" points="2.47984395 96.674802 7.59280754 96.674802 7.59280754 95.4108911 2.47984395 95.4108911"></polygon>
                    <polygon id="Fill-4119-Copy" fill="#FFFFFF" points="20.4642393 23.8280099 22.033078 23.8280099 22.033078 3.76237624 20.4642393 3.76237624"></polygon>
                    <path d="M18.6657997,2.67637129 C18.6657997,1.2914604 19.7898244,0.168316832 21.1764213,0.168316832 C22.5624187,0.168316832 23.6864434,1.2914604 23.6864434,2.67637129 C23.6864434,4.06188119 22.5624187,5.18502475 21.1764213,5.18502475 C19.7898244,5.18502475 18.6657997,4.06188119 18.6657997,2.67637129" id="Fill-4120-Copy" fill="#FFFFFF"></path>
                    <polygon id="Fill-4123-Copy" fill="#D3DC4E" points="9.67360208 31.034099 14.7859662 31.034099 14.7859662 25.9257426 9.67360208 25.9257426"></polygon>
                    <polygon id="Fill-4124-Copy" fill="#D3DC4E" points="16.8673602 31.034099 21.9797243 31.034099 21.9797243 25.9257426 16.8673602 25.9257426"></polygon>
                    <polygon id="Fill-4126-Copy" fill="#D3DC4E" points="9.67360208 38.2222178 14.7859662 38.2222178 14.7859662 33.1138614 9.67360208 33.1138614"></polygon>
                    <polygon id="Fill-4127-Copy" fill="#5878A4" points="16.8673602 38.2222178 21.9797243 38.2222178 21.9797243 33.1138614 16.8673602 33.1138614"></polygon>
                    <polygon id="Fill-4128-Copy" fill="#D3DC4E" points="24.0611183 38.2222178 29.1740819 38.2222178 29.1740819 33.1138614 24.0611183 33.1138614"></polygon>
                    <polygon id="Fill-4130-Copy" fill="#5878A4" points="9.67360208 44.8113267 14.7859662 44.8113267 14.7859662 39.7029703 9.67360208 39.7029703"></polygon>
                    <polygon id="Fill-4131-Copy" fill="#D3DC4E" points="16.8673602 44.8113267 21.9797243 44.8113267 21.9797243 39.7029703 16.8673602 39.7029703"></polygon>
                    <polygon id="Fill-4132-Copy" fill="#D3DC4E" points="24.0611183 44.8113267 29.1740819 44.8113267 29.1740819 39.7029703 24.0611183 39.7029703"></polygon>
                    <polygon id="Fill-4134-Copy" fill="#D3DC4E" points="9.67360208 51.4004356 14.7859662 51.4004356 14.7859662 46.2920792 9.67360208 46.2920792"></polygon>
                    <polygon id="Fill-4135-Copy" fill="#D3DC4E" points="16.8673602 51.4004356 21.9797243 51.4004356 21.9797243 46.2920792 16.8673602 46.2920792"></polygon>
                    <polygon id="Fill-4136-Copy" fill="#5878A4" points="24.0611183 51.4004356 29.1740819 51.4004356 29.1740819 46.2920792 24.0611183 46.2920792"></polygon>
                    <polygon id="Fill-4138-Copy" fill="#5878A4" points="9.67360208 58.5885545 14.7859662 58.5885545 14.7859662 53.480198 9.67360208 53.480198"></polygon>
                    <polygon id="Fill-4139-Copy" fill="#D3DC4E" points="16.8673602 58.5885545 21.9797243 58.5885545 21.9797243 53.480198 16.8673602 53.480198"></polygon>
                    <polygon id="Fill-4140-Copy" fill="#D3DC4E" points="24.0611183 58.5885545 29.1740819 58.5885545 29.1740819 53.480198 24.0611183 53.480198"></polygon>
                    <polygon id="Fill-4142-Copy" fill="#D3DC4E" points="9.67360208 65.1776634 14.7859662 65.1776634 14.7859662 60.0693069 9.67360208 60.0693069"></polygon>
                    <polygon id="Fill-4143-Copy" fill="#D3DC4E" points="16.8673602 65.1776634 21.9797243 65.1776634 21.9797243 60.0693069 16.8673602 60.0693069"></polygon>
                    <polygon id="Fill-4146-Copy" fill="#D3DC4E" points="9.67360208 73.564401 14.7859662 73.564401 14.7859662 68.4554455 9.67360208 68.4554455"></polygon>
                    <polygon id="Fill-4147-Copy" fill="#5878A4" points="16.8673602 73.564401 21.9797243 73.564401 21.9797243 68.4554455 16.8673602 68.4554455"></polygon>
                    <polygon id="Fill-4148-Copy" fill="#D3DC4E" points="24.0611183 73.564401 29.1740819 73.564401 29.1740819 68.4554455 24.0611183 68.4554455"></polygon>
                    <polygon id="Fill-4150-Copy" fill="#D3DC4E" points="9.67360208 80.1535099 14.7859662 80.1535099 14.7859662 75.0445545 9.67360208 75.0445545"></polygon>
                    <polygon id="Fill-4151-Copy" fill="#D3DC4E" points="16.8673602 80.1535099 21.9797243 80.1535099 21.9797243 75.0445545 16.8673602 75.0445545"></polygon>
                    <polygon id="Fill-4152-Copy" fill="#D3DC4E" points="24.0611183 80.1535099 29.1740819 80.1535099 29.1740819 75.0445545 24.0611183 75.0445545"></polygon>
                    <polygon id="Fill-4154-Copy" fill="#5878A4" points="9.67360208 87.3410297 14.7859662 87.3410297 14.7859662 82.2326733 9.67360208 82.2326733"></polygon>
                    <polygon id="Fill-4155-Copy" fill="#D3DC4E" points="16.8673602 87.3416287 21.9797243 87.3416287 21.9797243 82.2326733 16.8673602 82.2326733"></polygon>
                    <polygon id="Fill-4156-Copy" fill="#D3DC4E" points="24.0611183 87.3416287 29.1740819 87.3416287 29.1740819 82.2326733 24.0611183 82.2326733"></polygon>
                    <polygon id="Fill-4158-Copy" fill="#D3DC4E" points="9.67360208 93.9307376 14.7859662 93.9307376 14.7859662 88.8217822 9.67360208 88.8217822"></polygon>
                    <polygon id="Fill-4159-Copy" fill="#D3DC4E" points="16.8673602 93.9307376 21.9797243 93.9307376 21.9797243 88.8217822 16.8673602 88.8217822"></polygon>
                    <polygon id="Fill-4160-Copy" fill="#5878A4" points="24.0611183 93.9307376 29.1740819 93.9307376 29.1740819 88.8217822 24.0611183 88.8217822"></polygon>
                    <polygon id="Fill-4162-Copy" fill="#FFFFFF" points="9.67360208 96.674802 14.7859662 96.674802 14.7859662 95.4108911 9.67360208 95.4108911"></polygon>
                    <polygon id="Fill-4163-Copy" fill="#FFFFFF" points="16.8673602 96.674802 21.9797243 96.674802 21.9797243 95.4108911 16.8673602 95.4108911"></polygon>
                    <polygon id="Fill-4164-Copy" fill="#FFFFFF" points="24.0611183 96.674802 29.1740819 96.674802 29.1740819 95.4108911 24.0611183 95.4108911"></polygon>
                </g>
                <g id="Group-17" transform="translate(487.962289, 74.762376)">
                    <polygon id="Fill-4111-Copy" fill="#5878A4" points="2.39791938 4.05409901 24.1260663 4.05409901 24.1260663 0 2.39791938 0"></polygon>
                    <polygon id="Fill-4112-Copy" fill="#8FDDDD" points="0 95.4935594 27.1600338 95.4935594 27.1600338 2.9950495 0 2.9950495"></polygon>
                    <polygon id="Fill-4113-Copy" fill="#5878A4" points="1.79843953 95.587005 4.35642003 95.587005 4.35642003 8.98514851 1.79843953 8.98514851"></polygon>
                    <polygon id="Fill-4114-Copy" fill="#5878A4" points="5.99479844 95.587005 8.55217945 95.587005 8.55217945 8.98514851 5.99479844 8.98514851"></polygon>
                    <polygon id="Fill-4115-Copy" fill="#5878A4" points="10.1911573 95.587005 12.7491378 95.587005 12.7491378 8.98514851 10.1911573 8.98514851"></polygon>
                    <polygon id="Fill-4116-Copy" fill="#5878A4" points="14.3875163 95.587005 16.9454967 95.587005 16.9454967 8.98514851 14.3875163 8.98514851"></polygon>
                    <polygon id="Fill-4117-Copy" fill="#5878A4" points="18.5838752 95.587005 21.1412562 95.587005 21.1412562 8.98514851 18.5838752 8.98514851"></polygon>
                    <polygon id="Fill-4118-Copy" fill="#5878A4" points="22.7802341 95.587005 25.3382146 95.587005 25.3382146 8.98514851 22.7802341 8.98514851"></polygon>
                    <polygon id="Fill-4171-Copy" fill="#8FDDDD" points="10.1911573 37.5914653 12.8360624 37.5914653 12.8360624 28.1534653 10.1911573 28.1534653"></polygon>
                </g>
                <g id="Group-9" transform="translate(186.919376, 91.534653)">
                    <polygon id="Fill-3998-Copy" fill="#507FC0" points="3.59687906 78.7500347 28.7984122 78.7500347 28.7984122 0 3.59687906 0"></polygon>
                    <polygon id="Fill-3999-Copy" fill="#D3DC4E" points="0 6.05898515 19.7025046 6.05898515 19.7025046 2.3960396 0 2.3960396"></polygon>
                    <polygon id="Fill-4000-Copy" fill="#D3DC4E" points="0 13.247104 19.7025046 13.247104 19.7025046 9.58415842 0 9.58415842"></polygon>
                    <polygon id="Fill-4001-Copy" fill="#D3DC4E" points="0 19.8362129 19.7025046 19.8362129 19.7025046 16.1732673 0 16.1732673"></polygon>
                    <polygon id="Fill-4002-Copy" fill="#D3DC4E" points="0 26.4253218 19.7025046 26.4253218 19.7025046 22.7623762 0 22.7623762"></polygon>
                    <polygon id="Fill-4003-Copy" fill="#D3DC4E" points="0 33.6128416 19.7025046 33.6128416 19.7025046 29.950495 0 29.950495"></polygon>
                    <polygon id="Fill-4004-Copy" fill="#D3DC4E" points="0 40.2019505 19.7025046 40.2019505 19.7025046 36.539604 0 36.539604"></polygon>
                    <polygon id="Fill-4005-Copy" fill="#D3DC4E" points="0 47.3900693 19.7025046 47.3900693 19.7025046 43.7277228 0 43.7277228"></polygon>
                    <polygon id="Fill-4006-Copy" fill="#D3DC4E" points="0 53.9797772 19.7025046 53.9797772 19.7025046 50.3168317 0 50.3168317"></polygon>
                    <polygon id="Fill-4007-Copy" fill="#D3DC4E" points="0 61.167896 19.7025046 61.167896 19.7025046 57.5049505 0 57.5049505"></polygon>
                </g>
            </g>
        </g>
    </g>
</svg>