<?xml version="1.0" encoding="UTF-8"?>
<svg width="159px" height="73px" viewBox="0 0 159 73" version="1.1" xmlns="http://www.w3.org/2000/svg" xmlns:xlink="http://www.w3.org/1999/xlink">
    <!-- Generator: sketchtool 42 (36781) - http://www.bohemiancoding.com/sketch -->
    <title>8487D210-CD91-4F01-929A-800CCC3A1B69</title>
    <desc>Created with sketchtool.</desc>
    <defs></defs>
    <g id="Page-1" stroke="none" stroke-width="1" fill="none" fill-rule="evenodd">
        <g id="Parite-Home" transform="translate(-145.000000, -235.000000)" fill="#FFFFFF">
            <path d="M294.457844,266.941613 C292.895038,266.941613 291.421485,267.319684 290.119247,267.984299 C289.285432,259.770229 282.339964,253.36037 273.894586,253.36037 C272.26649,253.36037 270.695298,253.60145 269.211562,254.044727 C266.02665,243.044178 255.867518,235 243.825113,235 C231.232821,235 220.699311,243.797329 218.046316,255.572564 C215.236381,254.584315 212.214998,254.044128 209.067224,254.044128 C197.018829,254.044128 186.81597,261.921405 183.333951,272.797525 C181.021191,268.581914 176.537636,265.722453 171.384991,265.722453 C164.967846,265.722453 159.589975,270.158805 158.152362,276.127182 C156.778244,274.544309 154.752407,273.541703 152.489964,273.541703 C148.353232,273.541703 145,276.890502 145,281.021765 C145,285.153028 148.353232,288.502426 152.489964,288.502426 C155.235206,288.502426 157.633024,287.027231 158.938257,284.8276 C161.054543,289.591773 165.829815,292.916045 171.384991,292.916045 C176.099164,292.916045 180.251469,290.523191 182.69601,286.888445 C185.377758,298.966377 196.165845,308 209.067224,308 C222.123146,308 233.016659,298.748627 235.533081,286.45175 C238.141151,287.312579 240.928323,287.779185 243.825113,287.779185 C250.806521,287.779185 257.15538,285.074064 261.879137,280.657453 C264.860387,283.899771 269.139681,285.933697 273.894586,285.933697 C278.641704,285.933697 282.912613,283.907547 285.892665,280.675998 C287.447683,283.830378 290.698486,286.001295 294.457844,286.001295 C299.727893,286.001295 304,281.734836 304,276.472351 C304,271.20867 299.727893,266.941613 294.457844,266.941613" id="Fill-3"></path>
        </g>
    </g>
</svg>