<svg width="215" height="105" viewBox="0 0 215 105" xmlns="http://www.w3.org/2000/svg" xmlns:xlink="http://www.w3.org/1999/xlink"><title>6D7AA4F6-5925-4A06-A371-2051FF27814B</title><defs><path d="M72.4 99.023c.813-1.169 1.256-2.524 1.256-4.078v-4.351l-.001-.106a6.743 6.743 0 0 0-.38-2.102l-.574-1.63c.62-1.058.955-2.258.955-3.608v-4.351l-.001-.106a6.743 6.743 0 0 0-.38-2.102l-.566-1.607c.616-1.055.947-2.25.947-3.595v-4.352c.017-6.033-6.7-9.076-15.832-9.85v-.205h-5c-6.544 0-12.346.943-16.154 3.045a7.93 7.93 0 0 0 .01-.404V55.27c0-3.854-2.73-6.487-7.078-8.089 4.475-9.079 10.94-17.192 18.503-21.566.919.443 1.939.719 3.021.719H71.93c.337 0 .664-.047.99-.093C86.987 35.12 97 56.812 97 72.78c0 4.08-.653 7.61-1.861 10.651-3.579 9.017-12.02 13.726-22.74 15.591zm6.403-83.184c0-3.844-3.053-6.978-6.873-6.978h-16.3c2.918-2.975 6.485-5.626 9.402-7.142C72.01-1.895 80.321.375 83.612 6.787a12.006 12.006 0 0 1 1.276 4.339c.025.203.036.203.016 0a8.39 8.39 0 0 1 3.777 7.015c0 3.886-2.632 7.157-6.208 8.094-.975-1.026-3.261-3.041-4.297-3.948.425-.906.627-1.912.627-2.958v-3.49zm-4.483 3.698a3.245 3.245 0 0 1-3.239 3.256H51.64a3.249 3.249 0 0 1-3.239-3.256v-3.255a3.248 3.248 0 0 1 3.239-3.255H71.08a3.244 3.244 0 0 1 3.239 3.255v3.255zM31.68 55.27v4.351c0 2.789-7.086 5.055-15.832 5.055S.016 62.426.016 59.621V55.27c0-2.79 7.086-5.055 15.832-5.055S31.68 52.473 31.68 55.27zM15.848 69.469c5.738 0 11.738-.864 15.718-3 .063.176.094.359.098.547v4.351c0 2.805-7.086 5.055-15.832 5.055S0 74.156 0 71.367v-4.351c.004-.188.035-.371.098-.547 4.043 2.136 10.004 3 15.75 3zm0 11.773v.008c5.738 0 11.738-.871 15.718-3.008.063.176.094.36.098.547v4.352c0 2.804-7.086 5.054-15.832 5.054S0 85.93 0 83.141v-4.352c.004-.187.035-.371.098-.547 4.043 2.137 10.004 3 15.75 3zm0 11.774c5.738 0 11.738-.86 15.734-2.969.063.176.094.359.098.547v4.351c0 2.805-7.086 5.055-15.832 5.055S.008 97.75 0 94.914v-4.352c.004-.187.035-.371.098-.546 4.043 2.136 10.004 3 15.75 3zM52.824 61.98v.004c8.746 0 15.84 2.262 15.832 5.051v4.352c0 2.804-7.086 5.054-15.832 5.054s-15.832-2.265-15.832-5.054v-4.352c0-2.805 7.086-5.055 15.832-5.055zm0 19.262v.008c5.746 0 11.707-.871 15.735-3 .062.176.093.359.097.547v4.351c0 2.805-7.086 5.055-15.832 5.055s-15.832-2.265-15.832-5.055v-4.351c.004-.188.035-.371.098-.547 3.996 2.129 9.996 3 15.734 2.992zm0 11.774c5.746 0 11.707-.86 15.735-2.969.062.176.093.359.097.547v4.351c0 2.805-7.093 5.055-15.832 5.055-8.738 0-15.832-2.25-15.847-5.086v-4.352c.004-.187.035-.371.097-.546 4.043 2.136 10.004 3 15.75 3z" id="a"/><path d="M93.934 20.347c-4.055 0-8.111 4.038-16.216 4.038-8.111 0-12.161-4.038-16.222-4.038-1.908 0-4.056 2.016-4.056 4.038v28.267c0 8.949 4.056 20.189 20.273 20.189 16.216 0 20.271-11.24 20.271-20.189V24.385c.006-2.022-2.136-4.038-4.05-4.038zm-30.408 19.18c0-2.788 2.269-5.047 5.068-5.047 2.798 0 5.068 2.26 5.068 5.047s-2.27 5.047-5.068 5.047c-2.799 0-5.068-2.26-5.068-5.047zm14.192 25.237c-10.137 0-12.161-8.073-12.161-8.073h24.328c-.006 0-2.031 8.073-12.167 8.073zm9.124-20.19c-2.8 0-5.069-2.26-5.069-5.047 0-2.788 2.27-5.047 5.069-5.047 2.798 0 5.067 2.26 5.067 5.047s-2.27 5.047-5.067 5.047zM46.159 52.49c-3.393-2.868-7.54-5.57-12.45-8.058a33.387 33.387 0 0 0-2.138-.973c-1.832-3.456-2.509-7.408-2.509-10.997V4.195c0-2.02 2.143-4.038 4.055-4.038 4.057 0 8.112 4.038 16.218 4.038 8.11 0 12.165-4.038 16.222-4.038 1.912 0 4.055 2.022 4.055 4.038v14.13l-4.055-2.018c-2.423-1.205-4.057-2.016-8.112 0-2.574 1.283-4.055 4.378-4.055 8.078v8.832c-1.23-.455-2.026-.755-4.055-.755-10.137 0-12.161 8.079-12.161 8.079H53.39v11.858c-1.273.182-2.6.248-4.055.248-1.12 0-2.173-.056-3.176-.157zM40.211 14.29c-2.799 0-5.063 2.26-5.068 5.047 0 2.787 2.269 5.047 5.068 5.047 2.798 0 5.068-2.26 5.068-5.047s-2.27-5.047-5.068-5.047zm-20.12 29.75c3.899 0 8.101.852 12.289 2.97 16.526 8.387 27.497 20.858 19.08 37.324-3.144 6.157-9.682 10.586-18.688 10.586-5.048 0-10.87-1.388-17.3-4.652-5.512-2.797-7.537-9.01-4.733-14.494 2.107-4.12.051-6.886-5.46-9.679-5.51-2.792-6.157-8.305-3.353-13.794 1.954-3.816 9.26-8.26 18.165-8.26zm-6.116 15.234c.967-1.89.208-4.206-1.695-5.174a3.792 3.792 0 0 0-1.75-.42c-1.409 0-2.763.765-3.445 2.103a3.833 3.833 0 0 0 1.69 5.173c.565.29 1.16.42 1.75.42 1.41 0 2.769-.763 3.45-2.102zM24.52 82.764c1.159-2.27.248-5.053-2.031-6.213a4.65 4.65 0 0 0-2.101-.502c-1.69 0-3.318.922-4.138 2.523a4.61 4.61 0 0 0 2.031 6.213c.676.34 1.394.502 2.101.502 1.69 0 3.318-.922 4.138-2.523zm3.307-26.828a3.841 3.841 0 0 0-1.695-5.174c-.56-.29-1.16-.42-1.75-.42-1.405 0-2.763.769-3.445 2.103a3.838 3.838 0 0 0 1.69 5.173c.559.29 1.16.42 1.75.42 1.409 0 2.767-.765 3.45-2.102zM40.17 69.11a3.836 3.836 0 0 0 1.69 5.175 3.872 3.872 0 0 0 5.196-1.683 3.84 3.84 0 0 0-1.69-5.173 3.869 3.869 0 0 0-5.196 1.68zm-4.768-13.18c-1.41 0-2.763.765-3.444 2.097a3.846 3.846 0 0 0 1.69 5.18 3.861 3.861 0 0 0 5.195-1.683 3.838 3.838 0 0 0-1.69-5.173 3.869 3.869 0 0 0-1.751-.422z" id="c"/></defs><g fill="none" fill-rule="evenodd"><g transform="translate(118)"><mask id="b" fill="#fff"><use xlink:href="#a"/></mask><g mask="url(#b)"><path fill="#8FDDDD" d="M-9 86h114v14H-9z"/><path fill="#5878A4" d="M-9 0h114v86H-9z"/></g></g><g transform="translate(0 10)"><mask id="d" fill="#fff"><use xlink:href="#c"/></mask><g mask="url(#d)"><path fill="#8FDDDD" d="M-8 64h114v33H-8z"/><path fill="#5878A4" d="M-8 31h114v33H-8zM-8-2h114v33H-8z"/></g></g></g></svg>