<?xml version="1.0" encoding="UTF-8"?>
<svg width="48px" height="48px" viewBox="0 0 48 48" version="1.1" xmlns="http://www.w3.org/2000/svg" xmlns:xlink="http://www.w3.org/1999/xlink">
    <!-- Generator: sketchtool 42 (36781) - http://www.bohemiancoding.com/sketch -->
    <title>2FFCB24B-98BE-442D-9AC8-66A64944BC09</title>
    <desc>Created with sketchtool.</desc>
    <defs></defs>
    <g id="Page-1" stroke="none" stroke-width="1" fill="none" fill-rule="evenodd">
        <g id="Parite-Home" transform="translate(-630.000000, -4718.000000)" fill="#4267B2">
            <g id="Group-28" transform="translate(630.000000, 4718.000000)">
                <path d="M30.2325,15.984 L27.9735,15.9855 C26.202,15.9855 25.8585,16.827 25.8585,18.0615 L25.8585,20.7855 L30.084,20.7855 L29.5335,25.053 L25.8585,25.053 L25.8585,36 L21.453,36 L21.453,25.053 L17.769,25.053 L17.769,20.7855 L21.453,20.7855 L21.453,17.64 C21.453,13.9875 23.6835,12 26.94,12 C28.5,12 29.841,12.1155 30.2325,12.168 L30.2325,15.984 Z M24,0 C10.746,0 0,10.7445 0,24 C0,37.254 10.746,48 24,48 C37.2555,48 48,37.254 48,24 C48,10.7445 37.2555,0 24,0 L24,0 Z" id="Fill-183"></path>
            </g>
        </g>
    </g>
</svg>
