<svg width="127" height="146" viewBox="0 0 127 146" xmlns="http://www.w3.org/2000/svg"><title>25F27FC5-0F2E-4324-AF27-F274B179027A</title><g fill="none" fill-rule="evenodd"><path d="M23.585 52.08l-1.97-4.325C19.43 48.718.26 57.508.003 68.847c-.26 11.57 14.072 18.407 14.682 18.689l2.07-4.286c-.122-.056-12.124-5.806-11.934-14.298.162-7.098 13.6-14.583 18.764-16.871M29.785 47.755l-1.971 4.326c5.163 2.288 18.605 9.773 18.764 16.87.193 8.493-11.81 14.243-11.933 14.3l2.07 4.285c.61-.282 14.94-7.118 14.679-18.69-.256-11.338-19.424-20.128-21.61-21.091" fill="#C09B7C"/><path d="M26.848 19c-6.144 0-11.127 6.469-11.127 14.448s4.983 14.448 11.127 14.448c6.143 0 11.125-6.47 11.125-14.448C37.973 25.468 32.99 19 26.848 19" fill="#C09B7C"/><path d="M26.259 46.557c-16.221-.161-12.615 37.987-12.615 37.987h27.632s1.201-37.822-15.017-37.987" fill="#C09B7C"/><path fill="#848484" d="M26.95 138.426l-1.375-44.788h3.44l1.607 43.815 5.734.452 4.578-54.207H13.302l7.227 54.728z"/><path d="M21.016 137.613s-5.734 4.52-7.57 7.005c-1.833 2.484 14.45.452 14.45.452l-.458-7.457h-6.422M36.898 137.613h-6.221l-.444 7.457s15.774 2.034 13.996-.452c-1.777-2.487-7.331-7.005-7.331-7.005" fill="#114E2E"/><path d="M26.835 19.01c-15.477.509-12.729 11.522-10.838 18.305.264.933.943 4.268.373-2.62-.543-6.532 1.215-9.074 8.057-9.074 2.144 0 5.292-.19 7.406-.008 8.078.685 5.878 12.309 6.358 11.361.518-1.018 4.128-18.471-11.356-17.963" fill="#513423"/><path d="M27.046 51.009c-2.828 0-5.501-.752-7.83-2.056C15.719 50.7 9.309 54.28 4.837 58.986c1.54.713 3.082 1.417 4.609 2.159 1.817-1.685 3.283-1.9 5.413-3.264-3.469 11.684-1.404 26.71-1.404 26.71h27.632s1.398-14.167-2.513-25.365c1.308.923 1.676.544 2.828 1.578l.043-.026a129.04 129.04 0 0 1 4.462-2.288c-3.874-3.893-9.001-6.971-12.488-8.811-1.96.852-4.12 1.33-6.373 1.33" fill="#5878A4"/><path d="M34.075 22.594l-17.434 2.484c-.6 1.756-1.032 3.818-.895 5.84 2.383 1.215 4.64-2.115 5.2-3.965.136 1.6-.806 4.858 1.716 4.693 2.069-.133 2.533-3.161 2.695-4.69.119 1.65.645 4.359 2.93 4.24 1.627-.085 2.52-1.877 2.336-3.342.38 2.602 4.213 3.453 4.357.457.916 2.978 2.678-.405 2.312-2.165-.411-1.961-1.766-2.586-3.217-3.552" fill="#513423"/><g><path d="M102.972 14.38c-6.032 0-10.92 6.447-10.92 14.399 0 7.953 4.888 14.398 10.92 14.398 6.03 0 10.916-6.445 10.916-14.398 0-7.952-4.887-14.399-10.916-14.399" fill="#C09B7C"/><path d="M111.067 68.313c4.39-13.171 1.953-26.27-7.996-26.37-10.524-.109-12.94 14.547-5.513 26.37 3.067 4.88-4.164 11.485-4.164 11.485h21.715s-6.149-5.163-4.042-11.485M100.349 137.485h3.6l-1.35-47.287h3.378l1.574 47.512 2.927.45 4.493-57.87H93.256l7.093 57.195" fill="#C09B7C"/><path d="M103.148 46.257l-1.936-4.315c-2.143.96-20.96 9.72-21.209 21.02C79.746 74.494 93.81 81.304 94.41 81.59l2.03-4.273c-.118-.055-11.898-5.784-11.71-14.25.157-7.072 13.347-14.533 18.419-16.81" fill="#C09B7C"/><path d="M104.832 41.942l-1.935 4.315c5.068 2.277 18.258 9.738 18.417 16.81.189 8.466-11.592 14.195-11.71 14.25l2.029 4.273c.596-.286 14.664-7.096 14.405-18.628-.251-11.3-19.061-20.06-21.206-21.02" fill="#C09B7C"/><path d="M100.854 136.612s-5.63 4.504-7.43 6.98c-1.803 2.478 11.484.45 11.484.45l-.452-7.43h-3.602M110.353 136.612h-3.402l-.438 7.43s12.78 2.028 11.035-.451c-1.744-2.475-7.195-6.98-7.195-6.98" fill="#5878A4"/><path d="M110.94 74.298H97.545c-9.123 4.39-.854 41.208-.854 41.208h16.528c9.692-39.858-2.28-41.208-2.28-41.208" fill="#8FDDDD"/><path d="M111.045 68.243c4.41-13.124 1.996-26.184-7.954-26.3-10.523-.126-12.965 14.482-5.556 26.28 3.061 4.868-4.182 11.441-4.182 11.441l21.715.034s-6.14-5.155-4.023-11.455" fill="#D3DC4E"/><path d="M102.431 0s-8.97 1.071-5.447 10.262C87.375 14.538 91.92 27.81 91.92 27.81s.58-10.314 10.937-10.298c10.354.014 10.788 11.692 10.788 11.692s4.12-13.733-3.282-18.578c1.07-4.488.912-10.612-7.932-10.626z" fill="#1E140F"/></g></g></svg>