<?xml version="1.0" encoding="UTF-8"?>
<svg width="13px" height="12px" viewBox="0 0 13 12" version="1.1" xmlns="http://www.w3.org/2000/svg" xmlns:xlink="http://www.w3.org/1999/xlink">
    <!-- Generator: Sketch 42 (36781) - http://www.bohemiancoding.com/sketch -->
    <title>micro</title>
    <desc>Created with Sketch.</desc>
    <defs></defs>
    <g id="Page-1" stroke="none" stroke-width="1" fill="none" fill-rule="evenodd">
        <g id="Parite-Home" transform="translate(-760.000000, -2474.000000)" fill="#00B2FF">
            <g id="Group-39" transform="translate(527.000000, 2398.000000)">
                <g id="micro" transform="translate(233.363344, 76.181818)">
                    <path d="M6.13211303,11.3264869 C3.03931844,11.3264869 0.532113035,8.81841823 0.532113035,5.72455874 C0.532113035,2.63069924 3.03931844,0.122630571 6.13211303,0.122630571 C9.22490763,0.122630571 11.732113,2.63069924 11.732113,5.72455874 C11.732113,8.81841823 9.22490763,11.3264869 6.13211303,11.3264869 Z M7.84095303,5.58815179 C7.84095303,6.55756545 7.0548997,7.3442629 6.08544637,7.3442629 C5.11636637,7.3442629 4.3299397,6.55793892 4.3299397,5.58815179 L3.74847303,5.58815179 C3.74847303,6.77305296 4.6424197,7.75339039 5.7839797,7.90445572 L5.7839797,9.2188548 L6.36544637,9.2188548 L6.36544637,7.90445572 C7.52847303,7.76440751 8.4114997,6.77305296 8.4114997,5.58815179 L7.84095303,5.58815179 Z M6.08544637,6.68706336 C6.68847303,6.68706336 7.1839797,6.19138608 7.1839797,5.58815179 L7.1839797,3.42291318 C7.1839797,2.81967889 6.68847303,2.32400161 6.08544637,2.32400161 C5.4824197,2.32400161 4.98691303,2.81967889 4.98691303,3.42291318 L4.98691303,5.58815179 C4.98691303,6.19138608 5.4824197,6.68706336 6.08544637,6.68706336 Z" id="Combined-Shape-Copy-3"></path>
                </g>
            </g>
        </g>
    </g>
</svg>