<svg width="155" height="61" viewBox="0 0 155 61" xmlns="http://www.w3.org/2000/svg" xmlns:xlink="http://www.w3.org/1999/xlink"><title>8DAE862B-7DF6-4BDE-8528-135C031E0A45</title><defs><path d="M0 1.656v29.716c0 .91.726 1.655 1.641 1.655h4.916c.902 0 1.641-.746 1.641-1.655V1.656C8.198.746 7.472 0 6.558 0H1.645A1.644 1.644 0 0 0 0 1.656z" id="a"/><path d="M0 1.656v29.716c0 .91.726 1.655 1.641 1.655h4.903c.902 0 1.641-.746 1.641-1.655V1.656C8.185.746 7.46 0 6.544 0H1.628C.726-.003 0 .745 0 1.656z" id="c"/><path d="M0 1.668v29.938c0 .916.682 1.667 1.541 1.667H6.16c.847 0 1.541-.751 1.541-1.667V1.668C7.7.751 7.018 0 6.159 0H1.546C.698-.003 0 .75 0 1.668z" id="e"/></defs><g fill="none" fill-rule="evenodd"><text font-family="Roboto-Bold, Roboto" font-size="16.632" font-weight="bold" letter-spacing=".693" fill="#5878A3"><tspan x="77.024" y="39">PARITÉ AU </tspan> <tspan x="65" y="54.838" font-size="18.711">POUVOIR</tspan></text><path d="M65.262 16.27l-5.871-2.988L46.376 6.65 33.58.136a1.348 1.348 0 0 0-1.181 0L19.617 6.651 6.599 13.28.727 16.27A1.347 1.347 0 0 0 0 17.461v4.495c0 .734.585 1.335 1.323 1.335h63.354c.727 0 1.323-.601 1.323-1.335v-4.495a1.384 1.384 0 0 0-.738-1.192zm-32.267 3.697c-3.651 0-6.599-2.974-6.599-6.658 0-3.683 2.948-6.658 6.599-6.658 3.65 0 6.598 2.975 6.598 6.658 0 3.684-2.947 6.658-6.598 6.658z" fill="#D3DC4E"/><path d="M51.812 29.314V59.03c0 .91.726 1.655 1.641 1.655h4.915c.903 0 1.642-.746 1.642-1.655V29.314c0-.91-.725-1.656-1.642-1.656h-4.915a1.643 1.643 0 0 0-1.64 1.656z" fill="#5878A4"/><g transform="translate(20.9 27.727)"><mask id="b" fill="#fff"><use xlink:href="#a"/></mask><use fill="#D3DC4E" xlink:href="#a"/><path fill="#5878A4" mask="url(#b)" d="M-4.4 22.182h16.5v11.091H-4.4z"/></g><g transform="translate(36.3 27.727)"><mask id="d" fill="#fff"><use xlink:href="#c"/></mask><use fill="#D3DC4E" xlink:href="#c"/><path fill="#5878A4" mask="url(#d)" d="M0 11.091h11v22.182H0z"/></g><use fill="#D3DC4E" xlink:href="#e" transform="translate(5.5 27.727)"/></g></svg>