<?xml version="1.0" encoding="UTF-8"?>
<svg width="66px" height="61px" viewBox="0 0 66 61" version="1.1" xmlns="http://www.w3.org/2000/svg" xmlns:xlink="http://www.w3.org/1999/xlink">
    <!-- Generator: sketchtool 42 (36781) - http://www.bohemiancoding.com/sketch -->
    <title>E30C7FCB-31CE-4A72-A1B1-138B3C85CDC3</title>
    <desc>Created with sketchtool.</desc>
    <defs>
        <path d="M0,1.65588378 L0,31.3717565 C0,32.281211 0.726,33.0265201 1.6412,33.0265201 L6.5571,33.0265201 C7.4591,33.0265201 8.1983,32.281211 8.1983,31.3717565 L8.1983,1.65588378 C8.1983,0.745320139 7.4723,1.10482321e-05 6.5571,1.10482321e-05 L1.6456,1.10482321e-05 C0.726,-0.0033162245 0,0.745320139 0,1.65588378 Z" id="path-1"></path>
        <path d="M0,1.65588378 L0,31.3717565 C0,32.281211 0.726,33.0265201 1.6412,33.0265201 L6.5439,33.0265201 C7.4459,33.0265201 8.1851,32.281211 8.1851,31.3717565 L8.1851,1.65588378 C8.1851,0.745320139 7.4591,1.10482321e-05 6.5439,1.10482321e-05 L1.628,1.10482321e-05 C0.726,-0.0033162245 0,0.745320139 0,1.65588378 Z" id="path-3"></path>
        <path d="M0,1.66822811 L0,31.6056277 C0,32.521862 0.681873071,33.2727273 1.5414464,33.2727273 L6.1585536,33.2727273 C7.00572924,33.2727273 7.7,32.521862 7.7,31.6056277 L7.7,1.66822811 C7.7,0.750876375 7.01812693,1.11305948e-05 6.1585536,1.11305948e-05 L1.54557896,1.11305948e-05 C0.698403328,-0.00334094639 0,0.750876375 0,1.66822811 Z" id="path-5"></path>
    </defs>
    <g id="Page-1" stroke="none" stroke-width="1" fill="none" fill-rule="evenodd">
        <g id="Parite-Home" transform="translate(-120.000000, -54.000000)">
            <g id="Group-2-Copy-2" transform="translate(120.000000, 54.000000)">
                <path d="M65.2621933,16.2690775 L59.3907774,13.281578 L46.3762932,6.65074286 L33.5799586,0.13622246 C33.2021874,-0.0454074866 32.7765297,-0.0454074866 32.3987585,0.13622246 L19.6166125,6.65074286 L6.59858114,13.281578 L0.727165238,16.2690775 C0.2837718,16.4927597 0,16.9651765 0,17.4608562 L0,21.9559737 C0,22.6896513 0.585279338,23.2909091 1.32308602,23.2909091 L64.676914,23.2909091 C65.4040792,23.2909091 66,22.6896513 66,21.9559737 L66,17.4608562 C65.9893586,16.9651765 65.7020396,16.4927597 65.2621933,16.2690775 Z M32.9946793,19.9669916 C29.3437777,19.9669916 26.3960981,16.9929131 26.3960981,13.3093146 C26.3960981,9.62571612 29.3437777,6.65074286 32.9946793,6.65074286 C36.6455808,6.65074286 39.5932604,9.62571612 39.5932604,13.3093146 C39.5932604,16.9929131 36.6455808,19.9669916 32.9946793,19.9669916 Z" id="Fill-2-Copy-3" fill="#D3DC4E"></path>
                <g id="Group-52-Copy-3" transform="translate(5.500000, 27.618182)">
                    <path d="M46.3122,1.6957935 L46.3122,31.4116662 C46.3122,32.3211208 47.0382,33.0664299 47.9534,33.0664299 L52.8682,33.0664299 C53.7713,33.0664299 54.5105,32.3211208 54.5105,31.4116662 L54.5105,1.6957935 C54.5105,0.785229864 53.7845,0.0399207726 52.8682,0.0399207726 L47.9534,0.0399207726 C47.0382,0.0365934999 46.3122,0.785229864 46.3122,1.6957935 Z" id="Fill-6" fill="#5878A4"></path>
                    <g id="Rectangle-10" transform="translate(15.400000, 0.109091)">
                        <mask id="mask-2" fill="white">
                            <use xlink:href="#path-1"></use>
                        </mask>
                        <use id="Mask" fill="#D3DC4E" xlink:href="#path-1"></use>
                        <rect fill="#5878A4" mask="url(#mask-2)" x="-4.4" y="22.1818182" width="16.5" height="11.0909091"></rect>
                    </g>
                    <g id="Rectangle-10-Copy-2" transform="translate(30.800000, 0.109091)">
                        <mask id="mask-4" fill="white">
                            <use xlink:href="#path-3"></use>
                        </mask>
                        <use id="Mask" fill="#D3DC4E" xlink:href="#path-3"></use>
                        <rect fill="#5878A4" mask="url(#mask-4)" x="0" y="11.0909091" width="11" height="22.1818182"></rect>
                    </g>
                    <g id="Rectangle-10-Copy" transform="translate(0.000000, 0.109091)">
                        <mask id="mask-6" fill="white">
                            <use xlink:href="#path-5"></use>
                        </mask>
                        <use id="Mask" fill="#D3DC4E" xlink:href="#path-5"></use>
                    </g>
                </g>
            </g>
        </g>
    </g>
</svg>