<svg width="190" height="124" viewBox="0 0 190 124" xmlns="http://www.w3.org/2000/svg" xmlns:xlink="http://www.w3.org/1999/xlink"><title>4B77181C-0F6D-4649-BD9F-3EF78524753D</title><defs><path d="M44.286 60.17h4.657c12.064 0 18.708-6.608 18.708-18.61 0-11.137-6.977-16.325-21.958-16.325h-1.407V60.17zm0-44.263h7.704c7.324 0 14.755 2.29 20.388 6.282 4.683 3.321 10.267 9.377 10.267 19.372 0 6.42-2.268 21.825-23.119 27.08l28.007 40.797-12.945 4.399-30.302-44.018v54.526H28.464V1.786h15.822v14.12zM.206 15.82h15.817v95.77H.205v-95.77z" id="a"/><path d="M28.622 10.543c.5-.525 1.109-.774 2.005-.977.162-.037.332-.072.612-.129.25-.052.387-.087.444-.11l1.494-.603.332 1.597c.447 2.141-.023 4.097-1.314 5.898l-.31.433-.518.106c-2.183.447-3.492-1.637-3.214-3.616-.33-.985-.193-1.904.469-2.6zm9.366 6.285l-.071.09c-1.04 1.301-1.855 1.838-3.284 1.357l-1.17-.393 1.746-7.77 1.379.406c2.31.68 3.077 3.637 2.025 5.56l-.279.355c-.079.072-.173.18-.346.395zm.286 1.51l-.803 2.058c-1.184 3.032-5.533 3.804-8.004 1.657-.365-.304-.74-.598-1.314-1.034a203.69 203.69 0 0 1-.897-.682c-1.536-1.179-2.527-2.065-3.46-3.195l-.594-.717 2.915-5.455.862 3.383c.421 1.654 2.171 3.599 4.057 4.583l7.238-.599zm21.53 20.954c-1.208 2.628-3.375 4.829-5.781 5.126l-7.908 1.05 3.389-2.994c2.4-2.12 3.567-4.713 4.828-9.71l.302-1.208c.177-.714.28-1.127.396-1.573l.434-1.666 1.504.798c3.248 1.724 3.966 5.686 2.924 9.928l-.087.249zm-15.427-16.68c-1.153 1.52-3.33 2.176-5.27 1.73l-1.232-.285.192-1.267c.2-1.314.679-2.273 1.747-3.89l.167-.252c1.153-1.74 1.522-2.555 1.522-3.688l2.71-.037c.016.594.106 1.112.359 2.214.263 1.15.354 1.618.406 2.282.082 1.031-.04 1.973-.429 2.895l-.172.298zM41.355 28.6c-3.135 2.646-6.175 4.082-9.71 4.283-4.237.13-7.312-2.615-9.674-7.23l-.127-.37-1.991-10.307 3.112 3.082c4.992 4.941 10.728 7.551 17.632 8.112l3.319.27-2.561 2.16zM21.698 48.61c-3.89 2.677-9.031 1.615-13.442-1.697-3.415-2.84-4.44-7.395-3.272-12.235l.077-.227.137-.317c.181-.423.274-.638.368-.854 1.484-3.405 2.746-5.254 5.097-6.662l2.46-1.473-.432 2.866c-1.139 7.568 2.35 14.39 8.927 18.269l1.866 1.1-1.786 1.23zm18.408-3.795c-7.969 2.788-15.473 2.858-19.966-1.361-5.61-4.148-6.763-11.118-5.005-19.882l.085-.424 3.458-3.339.402 2.59c1.435 9.257 10.714 17.497 20.876 19.77l4.703 1.053-4.553 1.593zm6.783-26.104l1.736 1.117c2.458 1.582 3.424 4.27 3.46 7.921.012 1.105-.05 2.13-.197 3.721l-.079.857c-.028.308-.048.55-.064.77-.414 3.89-2.805 6.937-6.323 7.249-4.072.233-7.244-.753-12.187-3.263l-2.896-1.47 3.065-1.063c5.325-1.846 10.23-5.524 12.553-9.97l.932-5.869zm7.134-7.071c2.09 1.847 2.82 3.664 3.747 7.825l.019.085c.292 1.31.447 1.939.669 2.642l.352 1.115-1.027.532c-1.627.843-3.048.838-4.168-.065-.752-.607-1.12-1.275-1.757-2.802l-.072-.174c-.482-1.155-.759-1.635-1.2-1.96l-9.53-8.61 2.596-.578c3.945-.878 7.71-.3 10.37 1.99zM45.237 5.37c-.437 1.43-1.279 1.993-3.265 2.799-.87.353-1.205.517-1.457.723l-.284.232-.36.057c-.982.153-1.982.052-3.093-.256-.665-.184-1.212-.383-2.289-.808-3.4-1.344-4.387-1.35-5.674.498l-2.971 4.266.517-5.199c.348-3.505 2.468-5.2 6.55-6.568.223-.075.45-.15.743-.244l.715-.229c.591-.19.993-.328 1.36-.47l.399-.087c6.053-.378 8.88.388 9.167 4.787l-.058.499zm-22.382 6.706c-1.375 1.093-2.438 2.307-4.436 4.899l-.375.486c-2.19 2.84-3.401 4.198-5.063 5.424l-1.321.974-.7-1.498c-1.306-2.797-.807-4.824 1.201-8.584.368-.69.478-.897.64-1.224.148-.295.272-.56.379-.81l.13-.237c2.182-3.193 5.018-3.35 9.175-1.806l2.29.85-1.92 1.526zm26.38 35.772c-.131 2.364-.96 4.527-2.43 6.997l-.395.665h-3.248l.32-1.644c.059-.298.104-.602.18-1.176.08-.616.09-.692.129-.954.44-2.967 1.375-4.697 3.763-5.3l1.784-.451-.103 1.863zm13.48.992c.226 3.064-.332 5.762-2.333 6.937l-.315.185h-3.095l.238-1.584c.148-.99.187-1.234.282-1.72.526-2.696 1.472-4.415 3.48-5.032l1.617-.498.126 1.712zm-40.678 9.41c-2.926 1.32-5.699.342-6.088-2.974l-1.198-5.406 1.66-.032c2.597-.051 3.912 1.363 5.214 4.307.074.166.311.712.335.767.284.646.471 1.028.666 1.335l.855 1.35-1.444.652zm48.83-3.199c-1.45 1.647-4.393 1.69-7.258.858l-1.57-.456 3.085-6.264 6.773 4.692-1.03 1.17zm-55.96 4.097c-2.213.668-3.67-.251-6.055-2.778-.808-.857-.89-.942-1.193-1.229l-.678-.64.34-.874c.658-1.687 2.37-2.839 4.177-3.124l.604-.096.47.398c1.662 1.405 2.69 3.762 3.277 6.755l.241 1.23-1.184.358zm-12.773.883l-.412-.918c-.757-1.688.675-3.195 2.444-3.703 1.949-.56 3.783.378 3.783 2.68v1.219l-5.815.722zm60.92 2.509c-.466 1.762-2.338 2.607-4.072 2.057l-.434-.137-.265-.376c-1.163-1.65-1.746-3.656-1.6-5.644l.073-.997.957-.238c2.556-.633 3.646.432 4.57 2.952l.018.045c.243.664.368.941.52 1.143l.407.54-.174.655zm4.595-.559c-.197.04-.197.04-.39.077-.39.08-.675.144-.941.218l-.585.163-.51-.336c-.622-.41-1.276-1.18-1.567-1.925-.543-1.391.142-2.738 1.778-2.996l.452-.07.402.22c.327.18.768.24 1.634.23l.271-.005c1.596-.028 2.309.051 3.192.584l1.587.958-1.375 1.25c-1.01.92-1.933 1.237-3.948 1.632zm-11.638 3.39h-1.355c-1.849 0-2.773-.942-3.655-2.818l-.16-.342c-.191-.409-.304-.622-.415-.777l-.33-.46.488-3.195.927-.19c1.428-.29 2.573.068 3.278 1.075.45.643.589 1.187.79 2.479.116.75.184 1.052.287 1.26l.145.293v2.675zm-8.766-.296c-.474-.04-.767-.134-1.53-.43l-.272-.104a2.534 2.534 0 0 0-.53-.152l-1.119-.13-.43-6.23 1.372-.079c2.002-.114 2.884.875 3.77 3.02l.06.145c.296.719.45 1.006.6 1.142l.89.807-.676 1c-.512.756-1.283 1.083-2.135 1.011zm-21.237-4.779V59.13l2.16 1.621c1.332.999.85 2.262-.347 3.763-.653.818-1.59 1.723-2.34 2.279l-.74.55-.778-.495c-.609-.387-1.016-.948-1.351-1.68a6.876 6.876 0 0 1-.095-.222l-.446.15-.776-4.698 3.528-.11c.342-.045.727-.036 1.185.01zm-12.536 1.04l-1.506 9.403-.683.298c-.76.332-1.695.276-2.59-.009-1.494-.476-2.478-1.154-1.632-2.54l3.446-6.73 2.965-.422zm-9.754 4.985C1.76 66.306.219 64.699.978 62.557l.322-.91h4.393l.38.737c1.12 2.169-.294 3.955-2.355 3.938zm31.517-17.816c.451 5.592.451 12.157 0 17.614l-.105 1.261h-5.092v-20.14h5.095l.102 1.265zm7.476 2.725c-.074.326-.138.595-.208.857-.64 2.42-1.639 3.875-3.638 3.875h-2.79l.245-1.588c.402-2.622 2.464-4.957 4.929-5.538l2.113-.498-.486 2.147c-.028.121-.138.623-.165.745zm-3.986 9.962c-.509-.327-.918-.886-1.125-1.436l-.962-2.543 2.586.723c-.04-.011.008-.008.141-.006l.1.002c1.102.027 1.89.353 2.138 1.564l.11.537-.284.467c-.633 1.04-1.768 1.294-2.704.692zm-6.957 8.16c1.746 3.523-.341 7.683-3.863 8.756-.456.202-.931.414-1.522.68l-1.538.692c-9.702 4.364-14.92 5.945-21.454 5.555l-.364-.073c-2.628-.925-2.974-4.803-.953-6.354 5.44-4.184 10.364-5.888 21.616-8.42l1.66-.375c1.99-.453 3.446-.801 4.867-1.175l1.059-.279.492.992zM27.67 84.467c2.232 3.472-.178 7.075-4.136 8.929-5.785 2.076-13.085 2.496-21.846 1.757l-.72-.06-.352-.642c-1.586-2.894.05-6.037 3.04-7.659l.228-.124.258-.03c1.614-.184 3.01-.33 5.799-.613 1.945-.198 2.56-.26 3.522-.362 5.418-.57 9.179-1.078 12.814-1.795l.895-.177.498.776zm-.418 16.045l-.718.388c-9.115 4.935-15.726 7.212-22.86 6.976l-.491-.111c-1.606-.7-2.139-2.102-1.975-3.86.034-.363.089-.701.183-1.183.141-.723.136-.695.153-.851l.1-.919.874-.254c1.453-.422 2.428-.777 5.53-1.966 2.975-1.14 4.57-1.696 6.404-2.167 4.672-1.199 8.55-.975 12.13 1.159l.67.398v2.39zm-4.17 14.277c-.547.267-2.515 1.187-2.928 1.389l-.355.115c-.84.148-1.506.32-2.996.746-3.345.958-4.992 1.233-7.36.949l-.405-.05-.312-.267c-1.827-1.57-2.474-3.909-1.31-5.898l.24-.41.436-.17a63.246 63.246 0 0 0 2.033-.846c.308-.134.623-.271 1.06-.463.537-.237.82-.362 1.083-.476 3.425-1.5 5.51-2.283 7.785-2.795 3.356-.755 6.336-.615 9.081.642l1.243.57-.567 1.258c-1.073 2.378-3.162 3.964-6.728 5.706zm31.12-.634c-.9 2.615-2.599 3.949-5.774 5.312-.224.096-.46.195-.903.38a24.13 24.13 0 0 0-1.358.608l-.29.104c-5.094 1.186-10.259.354-15.856-2.086l-1.483-.647 4.667-7.24.468-.146c.627-.195 1.027-.302 2.24-.612 3.419-.873 4.755-1.537 6.07-3.414l1.05-1.498 1.12 1.445c2.35 3.034 5.492 5.073 9.103 6.006l1.433.37-.487 1.418zM41.52 90.41l.023.38c.392 6.694.183 9.94-1.45 13.507l-.176.383-.356.217c-1.58.962-3.175 1.317-6.12 1.614l-1.694.17.216-1.714c.376-2.993.26-5.593-.326-11.668l-.061-.634c-1.138-11.872-.43-17.41 4.746-22.518l.291-.219c7.871-4.4 16.969-5.415 22.277-.456l.21.248c3.808 5.784 4.637 12.297 3.921 22.662-.077 1.111-.152 2.06-.307 3.95-.336 4.07-.452 5.72-.511 7.812l-.065.383c-.967 3.05-3.313 3.98-6.783 3.703a29.93 29.93 0 0 1-1.746-.201 40.35 40.35 0 0 0-1.218-.16l-.277-.03-.242-.14c-5.9-3.394-6.847-7.647-6.25-18.054.035-.604.052-.896.07-1.243.264-4.94.075-7.792-.961-10.344-.781-.56-1.38-.752-1.79-.602-1.625 3.046-1.828 6.053-1.42 12.954zm32.502-2.761c.308 4.445.372 8.051.379 16.232.002 2.331.004 3.367.012 4.66.011 1.72.031 3.235.064 4.68l.032 1.408H61.573l1.725-2.228c3.11-4.013 3.965-8.082 4.555-17.677l.008-.145c.217-3.523.34-5.086.591-7.015l.157-1.195h5.325l.09 1.28zM19.016 70.54a48.63 48.63 0 0 1-.52.125c-.824.192-1.44.284-2.122.284h-.983l-.305-.949c-.856-2.666-.409-5.793.882-8.769l.626-1.444 1.324.826c2.167 1.353 2.936 3.736 3.442 8.152l.15 1.318-1.29.201c-.338.053-.633.117-1.204.256zm37.322-19.625c-.681 3.62-1.634 5.157-4.67 5.046l-1.207-.044-.095-1.223c-.248-3.196.624-6.18 2.738-8.395l.314-.329.445-.072c.938-.152 1.555.13 2.234.742l.095.086c.115.104.166.144.2.163l1.18.66-.644 1.203c-.227.424-.358.928-.59 2.163zm-32.77 4.676l-1.93-7.299 4.34 6.14c.091.13.198.238.34.349.07.053.146.106.249.174.147.096.251.163.321.21.904.604 1.377 1.311 1.323 2.468l-.076 1.62-2.14-.466-.358-.134c-.389-.212-.863-.625-1.299-1.29a6.015 6.015 0 0 1-.77-1.772z" id="c"/></defs><g fill="none" fill-rule="evenodd"><g transform="translate(0 -1)"><mask id="b" fill="#fff"><use xlink:href="#a"/></mask><use fill="#202F55" fill-rule="nonzero" xlink:href="#a"/><path fill="#8FDDDD" mask="url(#b)" d="M-19.608 101.563h121.569v27.344H-19.608z"/><path fill="#5878A4" mask="url(#b)" d="M-19.608-21.484h121.569v123.047H-19.608z"/></g><g transform="translate(115.49 .953)"><mask id="d" fill="#fff"><use xlink:href="#c"/></mask><use fill="#000" fill-rule="nonzero" xlink:href="#c"/><path fill="#8FDDDD" mask="url(#d)" d="M-23.529 72.266H98.04v54.688H-23.529z"/><path fill="#5878A4" mask="url(#d)" d="M-23.529-23.438H98.04V78.125H-23.529z"/></g></g></svg>