<svg width="276" height="131" viewBox="0 0 276 131" xmlns="http://www.w3.org/2000/svg"><title>4B51EE56-6BD3-43D5-9CD3-286CA23A13FF</title><g fill="none" fill-rule="evenodd"><text font-family="Apercu-Bold, Apercu" font-size="18" font-weight="bold" letter-spacing="-.009" fill="#8FDCDC"><tspan x="215" y="31">3ème </tspan> <tspan x="215" y="55">mandat</tspan></text><text font-family="Apercu-Bold, Apercu" font-size="18" font-weight="bold" letter-spacing="-.009" fill="#8FDCDC"><tspan x="215" y="102">4ème </tspan> <tspan x="215" y="126">mandat</tspan></text><path d="M153.852 95.604c-1.078 1.03-1.858 2.16-1.882 3.266-.05 2.267 1.934 4.066 3.386 5.076-.16-2.145-.282-6.269.715-9.701-.87.57-1.469.66-2.212 1.363a28.703 28.703 0 0 0-.007-.004zm13.034 7.359c1.134-1.032 2.182-2.438 2.145-4.093-.026-1.167-.892-2.36-2.062-3.435l-.035.02-.018.011c-.47-.432-.621-.274-1.155-.66.95 2.782 1.133 6.003 1.125 8.157zM156.76 86.32c-.046.103-.162-.446-.224-.668-.755-2.77-1.845-7.23 4.014-7.627a3.475 3.475 0 0 1 .525-.023c6.199-.125 4.74 7.085 4.53 7.508-.093.186.056-.788-.101-1.902.007.142.01.284.01.428 0 2.752-1.386 5.073-3.281 5.8.415.186.793.446 1.138.768 2.447 1.282 7.543 4.407 7.628 8.222.071 3.233-2.523 5.58-4.325 6.817l-1.81 21.914h.212s2.27 1.888 2.995 2.927c.727 1.038-5.719.189-5.719.189l.182-3.116h.807l-.83-.067-.656-18.306h-1.405l.551 18.373h.21l.187 3.116s-6.653.849-5.904-.19c.61-.843 2.273-2.25 2.873-2.746l-2.75-21.3c-1.348-.734-5.707-3.434-5.616-7.61.106-4.738 7.938-8.41 8.83-8.813l.004.008c.193-.118.397-.218.612-.296-1.22-.576-2.2-1.823-2.687-3.406zM123.852 95.604c-1.078 1.03-1.858 2.16-1.882 3.266-.05 2.267 1.934 4.066 3.386 5.076-.16-2.145-.282-6.269.715-9.701-.87.57-1.469.66-2.212 1.363a28.703 28.703 0 0 0-.007-.004zm13.034 7.359c1.134-1.032 2.182-2.438 2.145-4.093-.026-1.167-.892-2.36-2.062-3.435l-.035.02-.018.011c-.47-.432-.621-.274-1.155-.66.95 2.782 1.133 6.003 1.125 8.157zM126.76 86.32c-.046.103-.162-.446-.224-.668-.755-2.77-1.845-7.23 4.014-7.627a3.475 3.475 0 0 1 .525-.023c6.199-.125 4.74 7.085 4.53 7.508-.093.186.056-.788-.101-1.902.007.142.01.284.01.428 0 2.752-1.386 5.073-3.281 5.8.415.186.793.446 1.138.768 2.447 1.282 7.543 4.407 7.628 8.222.071 3.233-2.523 5.58-4.325 6.817l-1.81 21.914h.212s2.27 1.888 2.995 2.927c.727 1.038-5.719.189-5.719.189l.182-3.116h.807l-.83-.067-.656-18.306h-1.405l.551 18.373h.21l.187 3.116s-6.653.849-5.904-.19c.61-.843 2.273-2.25 2.873-2.746l-2.75-21.3c-1.348-.734-5.707-3.434-5.616-7.61.106-4.738 7.938-8.41 8.83-8.813l.004.008c.193-.118.397-.218.612-.296-1.22-.576-2.2-1.823-2.687-3.406zM93.852 95.604c-1.078 1.03-1.858 2.16-1.882 3.266-.05 2.267 1.934 4.066 3.386 5.076-.16-2.145-.282-6.269.715-9.701-.87.57-1.469.66-2.212 1.363a44.086 44.086 0 0 0-.007-.004zm13.034 7.359c1.134-1.032 2.182-2.438 2.145-4.093-.026-1.167-.892-2.36-2.062-3.435l-.035.02-.018.011c-.47-.432-.621-.274-1.155-.66.95 2.782 1.133 6.003 1.125 8.157zM96.76 86.32c-.046.103-.162-.446-.224-.668-.755-2.77-1.845-7.23 4.014-7.627a3.475 3.475 0 0 1 .525-.023c6.199-.125 4.74 7.085 4.53 7.508-.093.186.056-.788-.101-1.902.007.142.01.284.01.428 0 2.752-1.386 5.073-3.281 5.8.415.186.793.446 1.138.768 2.447 1.282 7.543 4.407 7.628 8.222.071 3.233-2.523 5.58-4.325 6.817l-1.81 21.914h.212s2.27 1.888 2.995 2.927c.727 1.038-5.719.189-5.719.189l.182-3.116h.807l-.83-.067-.656-18.306h-1.405l.551 18.373h.21l.187 3.116s-6.653.849-5.904-.19c.61-.843 2.273-2.25 2.873-2.746l-2.75-21.3c-1.348-.734-5.707-3.434-5.616-7.61.106-4.738 7.938-8.41 8.83-8.813l.004.008c.193-.118.397-.218.612-.296-1.22-.576-2.2-1.823-2.687-3.406zM63.852 95.604c-1.078 1.03-1.858 2.16-1.882 3.266-.05 2.267 1.934 4.066 3.386 5.076-.16-2.145-.282-6.269.715-9.701-.87.57-1.469.66-2.212 1.363a44.086 44.086 0 0 0-.007-.004zm13.034 7.359c1.134-1.032 2.182-2.438 2.145-4.093-.026-1.167-.892-2.36-2.062-3.435l-.035.02-.018.011c-.47-.432-.621-.274-1.155-.66.95 2.782 1.133 6.003 1.125 8.157zM66.76 86.32c-.046.103-.162-.446-.224-.668-.755-2.77-1.845-7.23 4.014-7.627a3.475 3.475 0 0 1 .525-.023c6.199-.125 4.74 7.085 4.53 7.508-.093.186.056-.788-.101-1.902.007.142.01.284.01.428 0 2.752-1.386 5.073-3.281 5.8.415.186.793.446 1.138.768 2.447 1.282 7.543 4.407 7.628 8.222.071 3.233-2.523 5.58-4.325 6.817l-1.81 21.914h.212s2.27 1.888 2.995 2.927c.727 1.038-5.719.189-5.719.189l.182-3.116h.807l-.83-.067-.656-18.306H70.45L71 127.557h.21l.187 3.116s-6.653.849-5.904-.19c.61-.843 2.273-2.25 2.873-2.746l-2.75-21.3c-1.348-.734-5.707-3.434-5.616-7.61.106-4.738 7.938-8.41 8.83-8.813l.004.008c.193-.118.397-.218.612-.296-1.22-.576-2.2-1.823-2.687-3.406zM33.852 95.604c-1.078 1.03-1.858 2.16-1.882 3.266-.05 2.267 1.934 4.066 3.386 5.076-.16-2.145-.282-6.269.715-9.701-.87.57-1.469.66-2.212 1.363a44.086 44.086 0 0 0-.007-.004zm13.034 7.359c1.134-1.032 2.182-2.438 2.145-4.093-.026-1.167-.892-2.36-2.062-3.435l-.035.02-.018.011c-.47-.432-.621-.274-1.155-.66.95 2.782 1.133 6.003 1.125 8.157zM36.76 86.32c-.046.103-.162-.446-.224-.668-.755-2.77-1.845-7.23 4.014-7.627a3.475 3.475 0 0 1 .525-.023c6.199-.125 4.74 7.085 4.53 7.508-.093.186.056-.788-.101-1.902.007.142.01.284.01.428 0 2.752-1.386 5.073-3.281 5.8.415.186.793.446 1.138.768 2.447 1.282 7.543 4.407 7.628 8.222.071 3.233-2.523 5.58-4.325 6.817l-1.81 21.914h.212s2.27 1.888 2.995 2.927c.727 1.038-5.719.189-5.719.189l.182-3.116h.807l-.83-.067-.656-18.306H40.45L41 127.557h.21l.187 3.116s-6.653.849-5.904-.19c.61-.843 2.273-2.25 2.873-2.746l-2.75-21.3c-1.348-.734-5.707-3.434-5.616-7.61.106-4.738 7.938-8.41 8.83-8.813l.004.008c.193-.118.397-.218.612-.296-1.22-.576-2.2-1.823-2.687-3.406zM3.852 95.604c-1.078 1.03-1.858 2.16-1.882 3.266-.05 2.267 1.934 4.066 3.386 5.076-.16-2.145-.282-6.269.715-9.701-.87.57-1.469.66-2.212 1.363a46.208 46.208 0 0 0-.007-.004zm13.034 7.359c1.134-1.032 2.182-2.438 2.145-4.093-.026-1.167-.892-2.36-2.062-3.435l-.035.02-.018.011c-.47-.432-.621-.274-1.155-.66.95 2.782 1.133 6.003 1.125 8.157zM6.76 86.32c-.046.103-.162-.446-.224-.668-.755-2.77-1.845-7.23 4.014-7.627a3.475 3.475 0 0 1 .525-.023c6.199-.125 4.74 7.085 4.53 7.508-.093.186.056-.788-.101-1.902.007.142.01.284.01.428 0 2.752-1.386 5.073-3.281 5.8.415.186.793.446 1.138.768 2.447 1.282 7.543 4.407 7.628 8.222.071 3.233-2.523 5.58-4.325 6.817l-1.81 21.914h.212s2.27 1.888 2.995 2.927c.727 1.038-5.719.189-5.719.189l.182-3.116h.807l-.83-.067-.656-18.306H10.45L11 127.557h.21l.187 3.116s-6.653.849-5.904-.19c.61-.843 2.273-2.25 2.873-2.746l-2.75-21.3c-1.348-.734-5.707-3.434-5.616-7.61.106-4.738 7.938-8.41 8.83-8.813l.004.008c.193-.118.397-.218.612-.296-1.22-.576-2.2-1.823-2.687-3.406z" fill="#5878A4"/><path d="M185.065 88.226a3.416 3.416 0 0 1 1.047-.617c-1.82-.767-3.139-3.022-3.139-5.686 0-.45.038-.887.109-1.307-.142.529-.163.905-.163.905s-1.876-5.498 2.09-7.27c-1.454-3.807 2.248-4.251 2.248-4.251 3.65.006 3.715 2.543 3.273 4.402 2.582 1.697 1.766 6.026 1.452 7.324.002.065.003.13.003.197 0 2.663-1.317 4.917-3.136 5.685.373.136.708.33 1.006.574 2.542 1.381 7.065 4.337 7.144 7.903.072 3.234-2.565 5.572-4.353 6.782.804 2.122 1.144 6.395-.937 14.987h-.406l-.682 8.823c.435.367 2.243 1.913 2.874 2.812.72 1.027-4.554.187-4.554.187l.18-3.078h.234l-.29-8.744h-1.44l.248 8.744h.22l.186 3.078s-5.483.84-4.739-.186c.6-.829 2.23-2.205 2.836-2.704l-1.103-8.932h-.385s-1.91-8.54-1.295-13.602l-.084-.677c-1.397-.768-5.598-3.419-5.508-7.49.078-3.529 4.508-6.46 7.064-7.859zm5.845 12.59c.147.047.396.156.678.401 1.446-.982 3.512-2.793 3.461-5.089-.036-1.6-1.675-3.248-3.497-4.568.316 1.929.06 4.318-.74 6.713-.313.933-.19 1.806.098 2.543zm-5.742.002c.396-.816.576-1.742.068-2.554-1.402-2.242-1.95-4.728-1.712-6.759-1.852 1.33-3.536 3.001-3.572 4.623-.063 2.826 3.08 4.916 4.33 5.633.233-.424.525-.747.886-.943z" fill="#8FDDDD"/><path d="M153.852 25.604c-1.078 1.03-1.858 2.16-1.882 3.266-.05 2.267 1.934 4.066 3.386 5.076-.16-2.145-.282-6.269.715-9.701-.87.57-1.469.66-2.212 1.363a28.703 28.703 0 0 0-.007-.004zm13.034 7.359c1.134-1.032 2.182-2.438 2.145-4.093-.026-1.167-.892-2.36-2.062-3.435l-.035.02-.018.011c-.47-.432-.621-.274-1.155-.66.95 2.782 1.133 6.003 1.125 8.157zM156.76 16.32c-.046.103-.162-.446-.224-.668-.755-2.77-1.845-7.23 4.014-7.627a3.475 3.475 0 0 1 .525-.023c6.199-.125 4.74 7.085 4.53 7.508-.093.186.056-.788-.101-1.902.007.142.01.284.01.428 0 2.752-1.386 5.073-3.281 5.8.415.186.793.446 1.138.768 2.447 1.282 7.543 4.407 7.628 8.222.071 3.233-2.523 5.58-4.325 6.817l-1.81 21.914h.212s2.27 1.888 2.995 2.927c.727 1.038-5.719.189-5.719.189l.182-3.116h.807l-.83-.067-.656-18.306h-1.405L161 57.557h.21l.187 3.116s-6.653.849-5.904-.19c.61-.843 2.273-2.25 2.873-2.746l-2.75-21.3c-1.348-.734-5.707-3.434-5.616-7.61.106-4.738 7.938-8.41 8.83-8.813l.004.008c.193-.118.397-.218.612-.296-1.22-.576-2.2-1.823-2.687-3.406zM123.852 25.604c-1.078 1.03-1.858 2.16-1.882 3.266-.05 2.267 1.934 4.066 3.386 5.076-.16-2.145-.282-6.269.715-9.701-.87.57-1.469.66-2.212 1.363a28.703 28.703 0 0 0-.007-.004zm13.034 7.359c1.134-1.032 2.182-2.438 2.145-4.093-.026-1.167-.892-2.36-2.062-3.435l-.035.02-.018.011c-.47-.432-.621-.274-1.155-.66.95 2.782 1.133 6.003 1.125 8.157zM126.76 16.32c-.046.103-.162-.446-.224-.668-.755-2.77-1.845-7.23 4.014-7.627a3.475 3.475 0 0 1 .525-.023c6.199-.125 4.74 7.085 4.53 7.508-.093.186.056-.788-.101-1.902.007.142.01.284.01.428 0 2.752-1.386 5.073-3.281 5.8.415.186.793.446 1.138.768 2.447 1.282 7.543 4.407 7.628 8.222.071 3.233-2.523 5.58-4.325 6.817l-1.81 21.914h.212s2.27 1.888 2.995 2.927c.727 1.038-5.719.189-5.719.189l.182-3.116h.807l-.83-.067-.656-18.306h-1.405L131 57.557h.21l.187 3.116s-6.653.849-5.904-.19c.61-.843 2.273-2.25 2.873-2.746l-2.75-21.3c-1.348-.734-5.707-3.434-5.616-7.61.106-4.738 7.938-8.41 8.83-8.813l.004.008c.193-.118.397-.218.612-.296-1.22-.576-2.2-1.823-2.687-3.406zM93.852 25.604c-1.078 1.03-1.858 2.16-1.882 3.266-.05 2.267 1.934 4.066 3.386 5.076-.16-2.145-.282-6.269.715-9.701-.87.57-1.469.66-2.212 1.363a44.086 44.086 0 0 0-.007-.004zm13.034 7.359c1.134-1.032 2.182-2.438 2.145-4.093-.026-1.167-.892-2.36-2.062-3.435l-.035.02-.018.011c-.47-.432-.621-.274-1.155-.66.95 2.782 1.133 6.003 1.125 8.157zM96.76 16.32c-.046.103-.162-.446-.224-.668-.755-2.77-1.845-7.23 4.014-7.627a3.475 3.475 0 0 1 .525-.023c6.199-.125 4.74 7.085 4.53 7.508-.093.186.056-.788-.101-1.902.007.142.01.284.01.428 0 2.752-1.386 5.073-3.281 5.8.415.186.793.446 1.138.768 2.447 1.282 7.543 4.407 7.628 8.222.071 3.233-2.523 5.58-4.325 6.817l-1.81 21.914h.212s2.27 1.888 2.995 2.927c.727 1.038-5.719.189-5.719.189l.182-3.116h.807l-.83-.067-.656-18.306h-1.405L101 57.557h.21l.187 3.116s-6.653.849-5.904-.19c.61-.843 2.273-2.25 2.873-2.746l-2.75-21.3c-1.348-.734-5.707-3.434-5.616-7.61.106-4.738 7.938-8.41 8.83-8.813l.004.008c.193-.118.397-.218.612-.296-1.22-.576-2.2-1.823-2.687-3.406z" fill="#5878A4"/><path d="M185.065 18.226a3.416 3.416 0 0 1 1.047-.617c-1.82-.767-3.139-3.022-3.139-5.686 0-.45.038-.887.109-1.307-.142.529-.163.905-.163.905s-1.876-5.498 2.09-7.27C183.555.444 187.257 0 187.257 0c3.65.006 3.715 2.543 3.273 4.402 2.582 1.697 1.766 6.026 1.452 7.324.002.065.003.13.003.197 0 2.663-1.317 4.917-3.136 5.685.373.136.708.33 1.006.574 2.542 1.381 7.065 4.337 7.144 7.903.072 3.234-2.565 5.572-4.353 6.782.804 2.122 1.144 6.395-.937 14.987h-.406l-.682 8.823c.435.367 2.243 1.913 2.874 2.812.72 1.027-4.554.187-4.554.187l.18-3.078h.234l-.29-8.744h-1.44l.248 8.744h.22l.186 3.078s-5.483.84-4.739-.186c.6-.829 2.23-2.205 2.836-2.704l-1.103-8.932h-.385s-1.91-8.54-1.295-13.602l-.084-.677c-1.397-.768-5.598-3.419-5.508-7.49.078-3.529 4.508-6.46 7.064-7.859zm5.845 12.59c.147.047.396.156.678.401 1.446-.982 3.512-2.793 3.461-5.089-.036-1.6-1.675-3.248-3.497-4.568.316 1.929.06 4.318-.74 6.713-.313.933-.19 1.806.098 2.543zm-5.742.002c.396-.816.576-1.742.068-2.554-1.402-2.242-1.95-4.728-1.712-6.759-1.852 1.33-3.536 3.001-3.572 4.623-.063 2.826 3.08 4.916 4.33 5.633.233-.424.525-.747.886-.943z" fill="#8FDDDD"/></g></svg>