<svg width="157" height="102" viewBox="0 0 157 102" xmlns="http://www.w3.org/2000/svg" xmlns:xlink="http://www.w3.org/1999/xlink"><title>F8046515-5DD8-428E-8D6C-C3FE4315B78B</title><defs><path d="M144.49 60.244v4.685c0 5.937-4.863 10.765-10.838 10.765H23.348c-5.975 0-10.838-4.828-10.838-10.765v-4.685c0-5.936 4.863-10.765 10.838-10.765h110.304c5.966 0 10.838 4.83 10.838 10.765zm11.782-17.318c0 4.999-2.828 9.512-7.093 11.856-2.277-6.35-8.372-10.918-15.536-10.918h-4.655c-.018-.322-.053-.615-.053-.938 0-7.494 6.13-13.582 13.672-13.582 7.535 0 13.665 6.088 13.665 13.582zm-128.207 0c0 .323-.035.616-.053.938h-4.655c-7.164 0-13.25 4.569-15.536 10.918C3.556 52.438.728 47.925.728 42.926c0-7.494 6.13-13.582 13.674-13.582 7.533 0 13.663 6.088 13.663 13.582zM115.586.938c10.937 0 19.795 8.799 19.81 19.662v4.532c-7.092 2.854-12.104 9.737-12.104 17.794 0 .323.034.616.053.938H33.674c.018-.322.053-.615.053-.938 0-8.057-5.012-14.949-12.108-17.794V20.6C21.62 9.746 30.477.938 41.414.938h74.172zm22.539 78.736c3.763 0 6.832 3.049 6.832 6.784 0 3.729-3.069 6.787-6.832 6.787h-5.222v5.999a2.816 2.816 0 0 1-2.825 2.808 2.817 2.817 0 0 1-2.827-2.808v-6H28.74v6a2.816 2.816 0 0 1-2.825 2.808 2.817 2.817 0 0 1-2.828-2.808v-6h-4.212c-3.754 0-6.832-3.048-6.832-6.786 0-3.726 3.069-6.784 6.832-6.784h119.25z" id="a"/></defs><g fill="none" fill-rule="evenodd"><mask id="b" fill="#fff"><use xlink:href="#a"/></mask><g mask="url(#b)"><path fill="#8FDDDD" d="M.957 61.637h155.286v40.05H.957z"/><path fill="#5878A4" d="M.957.938h155.286v69H.957z"/></g></g></svg>