<svg width="120px" height="32px" viewBox="150 0 120 32" version="1.1" xmlns="http://www.w3.org/2000/svg" xmlns:xlink="http://www.w3.org/1999/xlink">
    <!-- Generator: Sketch 42 (36781) - http://www.bohemiancoding.com/sketch -->
    <desc>Created with Sketch.</desc>
    <defs></defs>
    <g id="Group" stroke="none" stroke-width="1" fill="none" fill-rule="evenodd" transform="translate(150.000000, 0.000000)">
        <path d="M0,16 C0,7.163 7.17,0 15.997,0 L104.003,0 C112.838,0 120,7.162 120,16 C120,24.837 112.83,32 104.003,32 L15.997,32 C7.162,32 0,24.838 0,16 Z M22.362,12.737 C23.004479,12.2723366 23.559128,11.6970321 24,11.038 C23.4008744,11.3031183 22.765548,11.4773696 22.115,11.555 C22.7999613,11.1442912 23.3126755,10.4990458 23.558,9.739 C22.9134988,10.1213342 22.2083206,10.3905533 21.473,10.535 C20.45682,9.44923602 18.8377133,9.18213261 17.5266334,9.88396939 C16.2155536,10.5858062 15.5399764,12.0812814 15.88,13.529 C13.2403469,13.396736 10.7809741,12.1499656 9.114,10.099 C8.24041859,11.5988103 8.68564318,13.5194987 10.13,14.482 C9.60862992,14.4656755 9.09874776,14.3247464 8.643,14.071 L8.643,14.113 C8.64300481,15.6755819 9.74435084,17.021625 11.276,17.331 C10.7924385,17.4625622 10.2852333,17.4820569 9.793,17.388 C10.222932,18.7252647 11.4555597,19.6411951 12.86,19.667 C11.6972521,20.5797232 10.2611879,21.0746142 8.783,21.072 C8.518,21.072 8.257,21.057 8,21.027 C9.50109633,21.9911114 11.2479603,22.502812 13.032,22.501 C19.07,22.501 22.372,17.499 22.372,13.162 C22.372,13.019 22.368,12.878 22.362,12.737 L22.362,12.737 Z" id="Shape" fill="#1DA1F2" fill-rule="nonzero"></path>
        <g transform="translate(37.000000, 7.000000)" id="Partager" font-size="14" font-family="Helvetica" fill="#FFFFFF" font-weight="normal">
            <text>
                <tspan x="0" y="14">Partager</tspan>
            </text>
        </g>
    </g>
</svg>
