<?xml version="1.0" encoding="UTF-8"?>
<svg width="48px" height="48px" viewBox="0 0 48 48" version="1.1" xmlns="http://www.w3.org/2000/svg" xmlns:xlink="http://www.w3.org/1999/xlink">
    <!-- Generator: sketchtool 42 (36781) - http://www.bohemiancoding.com/sketch -->
    <title>99C90F57-F11A-4736-853A-7C92A6809D79</title>
    <desc>Created with sketchtool.</desc>
    <defs></defs>
    <g id="Page-1" stroke="none" stroke-width="1" fill="none" fill-rule="evenodd">
        <g id="Parite-Home" transform="translate(-760.000000, -4718.000000)" fill="#1DA1F2">
            <g id="Group-28" transform="translate(630.000000, 4718.000000)">
                <path d="M163.543,19.1055 C163.552,19.317 163.558,19.5285 163.558,19.743 C163.558,26.2485 158.605,33.7515 149.548,33.7515 C146.767,33.7515 144.1795,32.937 142,31.5405 C142.3855,31.5855 142.777,31.608 143.1745,31.608 C145.4815,31.608 147.604,30.822 149.29,29.5005 C147.1345,29.4615 145.3165,28.038 144.6895,26.082 C144.991,26.139 145.2985,26.169 145.6165,26.169 C146.065,26.169 146.5,26.109 146.914,25.9965 C144.661,25.545 142.9645,23.5545 142.9645,21.1695 L142.9645,21.1065 C143.6275,21.4755 144.388,21.6975 145.195,21.723 C143.8735,20.8395 143.0035,19.332 143.0035,17.625 C143.0035,16.722 143.2465,15.876 143.671,15.1485 C146.0995,18.1275 149.728,20.088 153.82,20.2935 C153.736,19.9335 153.6925,19.557 153.6925,19.1715 C153.6925,16.452 155.8975,14.247 158.6155,14.247 C160.033,14.247 161.3125,14.8455 162.2095,15.8025 C163.3315,15.582 164.386,15.1725 165.337,14.6085 C164.9695,15.7575 164.188,16.722 163.1725,17.3325 C164.1685,17.2125 165.1165,16.9485 166,16.557 C165.34,17.544 164.5045,18.411 163.543,19.1055 M154,0 C140.7445,0 130,10.7445 130,24 C130,37.254 140.7445,48 154,48 C167.2555,48 178,37.254 178,24 C178,10.7445 167.2555,0 154,0" id="Fill-184"></path>
            </g>
        </g>
    </g>
</svg>